<?xml version="1.0" encoding="utf-8" standalone="no"?>
<!DOCTYPE svg PUBLIC "-//W3C//DTD SVG 1.1//EN"
  "http://www.w3.org/Graphics/SVG/1.1/DTD/svg11.dtd">
<svg xmlns:xlink="http://www.w3.org/1999/xlink" width="1080pt" height="1080pt" viewBox="0 0 1080 1080" xmlns="http://www.w3.org/2000/svg" version="1.1">
 <metadata>
  <rdf:RDF xmlns:dc="http://purl.org/dc/elements/1.1/" xmlns:cc="http://creativecommons.org/ns#" xmlns:rdf="http://www.w3.org/1999/02/22-rdf-syntax-ns#">
   <cc:Work>
    <dc:type rdf:resource="http://purl.org/dc/dcmitype/StillImage"/>
    <dc:date>2022-06-22T09:09:36.401334</dc:date>
    <dc:format>image/svg+xml</dc:format>
    <dc:creator>
     <cc:Agent>
      <dc:title>Matplotlib v3.5.1, https://matplotlib.org/</dc:title>
     </cc:Agent>
    </dc:creator>
   </cc:Work>
  </rdf:RDF>
 </metadata>
 <defs>
  <style type="text/css">*{stroke-linejoin: round; stroke-linecap: butt}</style>
 </defs>
 <g id="figure_1">
  <g id="patch_1">
   <path d="M 0 1080 
L 1080 1080 
L 1080 0 
L 0 0 
z
" style="fill: #ffffff"/>
  </g>
  <g id="axes_1">
   <g id="patch_2">
    <path d="M 106.993757 189.655109 
Q 125.727953 221.924538 143.90081 253.227066 
" clip-path="url(#p9e81edc9bd)" style="fill: none; stroke: #000000; stroke-linecap: round"/>
    <path d="M 143.622145 248.76362 
L 143.90081 253.227066 
L 140.162854 250.771931 
L 143.622145 248.76362 
z
" clip-path="url(#p9e81edc9bd)" style="stroke: #000000; stroke-linecap: round"/>
   </g>
   <g id="patch_3">
    <path d="M 106.59824 189.865628 
Q 204.692806 380.958938 302.276791 571.05761 
" clip-path="url(#p9e81edc9bd)" style="fill: none; stroke: #000000; stroke-linecap: round"/>
    <path d="M 302.229344 566.585725 
L 302.276791 571.05761 
L 298.670815 568.412437 
L 302.229344 566.585725 
z
" clip-path="url(#p9e81edc9bd)" style="stroke: #000000; stroke-linecap: round"/>
   </g>
   <g id="patch_4">
    <path d="M 103.041257 190.817513 
Q 117.223205 500.241831 131.353964 808.549286 
" clip-path="url(#p9e81edc9bd)" style="fill: none; stroke: #000000; stroke-linecap: round"/>
    <path d="M 133.168725 804.461911 
L 131.353964 808.549286 
L 129.17292 804.645052 
L 133.168725 804.461911 
z
" clip-path="url(#p9e81edc9bd)" style="stroke: #000000; stroke-linecap: round"/>
   </g>
   <g id="patch_5">
    <path d="M 111.01896 184.356339 
Q 406.361946 261.682502 700.623353 338.725489 
" clip-path="url(#p9e81edc9bd)" style="fill: none; stroke: #000000; stroke-linecap: round"/>
    <path d="M 697.260344 335.77758 
L 700.623353 338.725489 
L 696.24722 339.647151 
L 697.260344 335.77758 
z
" clip-path="url(#p9e81edc9bd)" style="stroke: #000000; stroke-linecap: round"/>
   </g>
   <g id="patch_6">
    <path d="M 643.042754 268.067677 
Q 673.636046 301.442178 703.473856 333.992516 
" clip-path="url(#p9e81edc9bd)" style="fill: none; stroke: #000000; stroke-linecap: round"/>
    <path d="M 702.245265 329.69245 
L 703.473856 333.992516 
L 699.296649 332.395348 
L 702.245265 329.69245 
z
" clip-path="url(#p9e81edc9bd)" style="stroke: #000000; stroke-linecap: round"/>
   </g>
   <g id="patch_7">
    <path d="M 632.042301 268.644633 
Q 490.191294 460.479203 349.005019 651.414811 
" clip-path="url(#p9e81edc9bd)" style="fill: none; stroke: #000000; stroke-linecap: round"/>
    <path d="M 352.991348 649.387698 
L 349.005019 651.414811 
L 349.775126 647.009481 
L 352.991348 649.387698 
z
" clip-path="url(#p9e81edc9bd)" style="stroke: #000000; stroke-linecap: round"/>
   </g>
   <g id="patch_8">
    <path d="M 154.027428 268.596098 
Q 298.847475 460.481329 442.994009 651.474159 
" clip-path="url(#p9e81edc9bd)" style="fill: none; stroke: #000000; stroke-linecap: round"/>
    <path d="M 442.180745 647.076591 
L 442.994009 651.474159 
L 438.987996 649.48623 
L 442.180745 647.076591 
z
" clip-path="url(#p9e81edc9bd)" style="stroke: #000000; stroke-linecap: round"/>
   </g>
   <g id="patch_9">
    <path d="M 152.516498 269.509156 
Q 186.470481 341.200852 219.94591 411.882109 
" clip-path="url(#p9e81edc9bd)" style="fill: none; stroke: #000000; stroke-linecap: round"/>
    <path d="M 220.041307 407.410991 
L 219.94591 411.882109 
L 216.426254 409.12312 
L 220.041307 407.410991 
z
" clip-path="url(#p9e81edc9bd)" style="stroke: #000000; stroke-linecap: round"/>
   </g>
   <g id="patch_10">
    <path d="M 156.496804 265.676133 
Q 225.345999 301.441949 293.203045 336.692362 
" clip-path="url(#p9e81edc9bd)" style="fill: none; stroke: #000000; stroke-linecap: round"/>
    <path d="M 290.575403 333.073592 
L 293.203045 336.692362 
L 288.731444 336.623214 
L 290.575403 333.073592 
z
" clip-path="url(#p9e81edc9bd)" style="stroke: #000000; stroke-linecap: round"/>
   </g>
   <g id="patch_11">
    <path d="M 148.439704 270.337279 
Q 140.305691 460.48304 132.219461 649.51179 
" clip-path="url(#p9e81edc9bd)" style="fill: none; stroke: #000000; stroke-linecap: round"/>
    <path d="M 134.388589 645.600922 
L 132.219461 649.51179 
L 130.392243 645.429967 
L 134.388589 645.600922 
z
" clip-path="url(#p9e81edc9bd)" style="stroke: #000000; stroke-linecap: round"/>
   </g>
   <g id="patch_12">
    <path d="M 631.19052 108.743006 
Q 705.223381 182.164025 778.462399 254.797762 
" clip-path="url(#p9e81edc9bd)" style="fill: none; stroke: #000000; stroke-linecap: round"/>
    <path d="M 777.030593 250.561025 
L 778.462399 254.797762 
L 774.213926 253.401164 
L 777.030593 250.561025 
z
" clip-path="url(#p9e81edc9bd)" style="stroke: #000000; stroke-linecap: round"/>
   </g>
   <g id="patch_13">
    <path d="M 616.861894 105.492398 
Q 510.841004 142.404894 405.875983 178.949775 
" clip-path="url(#p9e81edc9bd)" style="fill: none; stroke: #000000; stroke-linecap: round"/>
    <path d="M 410.311183 179.523356 
L 405.875983 178.949775 
L 408.995967 175.745763 
L 410.311183 179.523356 
z
" clip-path="url(#p9e81edc9bd)" style="stroke: #000000; stroke-linecap: round"/>
   </g>
   <g id="patch_14">
    <path d="M 631.079934 108.852816 
Q 741.062103 221.923489 850.264725 334.192724 
" clip-path="url(#p9e81edc9bd)" style="fill: none; stroke: #000000; stroke-linecap: round"/>
    <path d="M 848.909387 329.93091 
L 850.264725 334.192724 
L 846.042071 332.719906 
L 848.909387 329.93091 
z
" clip-path="url(#p9e81edc9bd)" style="stroke: #000000; stroke-linecap: round"/>
   </g>
   <g id="patch_15">
    <path d="M 620.262531 109.862943 
Q 546.074527 221.923144 472.503706 333.051097 
" clip-path="url(#p9e81edc9bd)" style="fill: none; stroke: #000000; stroke-linecap: round"/>
    <path d="M 476.379461 330.819836 
L 472.503706 333.051097 
L 473.04415 328.611737 
L 476.379461 330.819836 
z
" clip-path="url(#p9e81edc9bd)" style="stroke: #000000; stroke-linecap: round"/>
   </g>
   <g id="patch_16">
    <path d="M 791.203834 268.116212 
Q 821.243148 301.4418 850.5339 333.936933 
" clip-path="url(#p9e81edc9bd)" style="fill: none; stroke: #000000; stroke-linecap: round"/>
    <path d="M 849.341324 329.62674 
L 850.5339 333.936933 
L 846.3702 332.304878 
L 849.341324 329.62674 
z
" clip-path="url(#p9e81edc9bd)" style="stroke: #000000; stroke-linecap: round"/>
   </g>
   <g id="patch_17">
    <path d="M 779.517622 268.034917 
Q 564.298278 500.239604 349.838943 731.624301 
" clip-path="url(#p9e81edc9bd)" style="fill: none; stroke: #000000; stroke-linecap: round"/>
    <path d="M 354.024882 730.05016 
L 349.838943 731.624301 
L 351.091193 727.331065 
L 354.024882 730.05016 
z
" clip-path="url(#p9e81edc9bd)" style="stroke: #000000; stroke-linecap: round"/>
   </g>
   <g id="patch_18">
    <path d="M 784.081351 270.239603 
Q 736.202466 579.759667 688.494494 888.174839 
" clip-path="url(#p9e81edc9bd)" style="fill: none; stroke: #000000; stroke-linecap: round"/>
    <path d="M 691.082464 884.527592 
L 688.494494 888.174839 
L 687.129479 883.916114 
L 691.082464 884.527592 
z
" clip-path="url(#p9e81edc9bd)" style="stroke: #000000; stroke-linecap: round"/>
   </g>
   <g id="patch_19">
    <path d="M 404.219696 186.365673 
Q 468.324591 221.924629 531.451793 256.941259 
" clip-path="url(#p9e81edc9bd)" style="fill: none; stroke: #000000; stroke-linecap: round"/>
    <path d="M 528.924035 253.252026 
L 531.451793 256.941259 
L 526.983752 256.749925 
L 528.924035 253.252026 
z
" clip-path="url(#p9e81edc9bd)" style="stroke: #000000; stroke-linecap: round"/>
   </g>
   <g id="patch_20">
    <path d="M 392.212859 189.601721 
Q 349.265581 261.681068 306.890581 332.799949 
" clip-path="url(#p9e81edc9bd)" style="fill: none; stroke: #000000; stroke-linecap: round"/>
    <path d="M 310.656163 330.387399 
L 306.890581 332.799949 
L 307.219891 328.339954 
L 310.656163 330.387399 
z
" clip-path="url(#p9e81edc9bd)" style="stroke: #000000; stroke-linecap: round"/>
   </g>
   <g id="patch_21">
    <path d="M 856.032085 349.797589 
Q 837.644863 500.238502 819.393279 649.56964 
" clip-path="url(#p9e81edc9bd)" style="fill: none; stroke: #000000; stroke-linecap: round"/>
    <path d="M 821.863784 645.841825 
L 819.393279 649.56964 
L 817.89333 645.356547 
L 821.863784 645.841825 
z
" clip-path="url(#p9e81edc9bd)" style="stroke: #000000; stroke-linecap: round"/>
   </g>
   <g id="patch_22">
    <path d="M 848.594186 342.93297 
Q 662.092885 380.962123 476.687075 418.767895 
" clip-path="url(#p9e81edc9bd)" style="fill: none; stroke: #000000; stroke-linecap: round"/>
    <path d="M 481.006018 419.928382 
L 476.687075 418.767895 
L 480.20683 416.009033 
L 481.006018 419.928382 
z
" clip-path="url(#p9e81edc9bd)" style="stroke: #000000; stroke-linecap: round"/>
   </g>
   <g id="patch_23">
    <path d="M 864.309726 345.980339 
Q 917.2188 380.961545 969.195249 415.32614 
" clip-path="url(#p9e81edc9bd)" style="fill: none; stroke: #000000; stroke-linecap: round"/>
    <path d="M 966.961616 411.451752 
L 969.195249 415.32614 
L 964.755559 414.788413 
L 966.961616 411.451752 
z
" clip-path="url(#p9e81edc9bd)" style="stroke: #000000; stroke-linecap: round"/>
   </g>
   <g id="patch_24">
    <path d="M 854.825866 349.563409 
Q 824.888699 460.479845 795.242871 570.316874 
" clip-path="url(#p9e81edc9bd)" style="fill: none; stroke: #000000; stroke-linecap: round"/>
    <path d="M 798.216104 566.976233 
L 795.242871 570.316874 
L 794.354298 565.933902 
L 798.216104 566.976233 
z
" clip-path="url(#p9e81edc9bd)" style="stroke: #000000; stroke-linecap: round"/>
   </g>
   <g id="patch_25">
    <path d="M 534.147329 268.067677 
Q 503.554036 301.442178 473.716227 333.992516 
" clip-path="url(#p9e81edc9bd)" style="fill: none; stroke: #000000; stroke-linecap: round"/>
    <path d="M 477.893434 332.395348 
L 473.716227 333.992516 
L 474.944817 329.69245 
L 477.893434 332.395348 
z
" clip-path="url(#p9e81edc9bd)" style="stroke: #000000; stroke-linecap: round"/>
   </g>
   <g id="patch_26">
    <path d="M 540.35251 270.335459 
Q 544.859465 380.960734 549.320909 490.468902 
" clip-path="url(#p9e81edc9bd)" style="fill: none; stroke: #000000; stroke-linecap: round"/>
    <path d="M 551.156424 486.390803 
L 549.320909 490.468902 
L 547.159739 486.553631 
L 551.156424 486.390803 
z
" clip-path="url(#p9e81edc9bd)" style="stroke: #000000; stroke-linecap: round"/>
   </g>
   <g id="patch_27">
    <path d="M 547.845456 265.350951 
Q 625.041553 301.442632 701.224841 337.060793 
" clip-path="url(#p9e81edc9bd)" style="fill: none; stroke: #000000; stroke-linecap: round"/>
    <path d="M 698.448371 333.554911 
L 701.224841 337.060793 
L 696.754253 337.17844 
L 698.448371 333.554911 
z
" clip-path="url(#p9e81edc9bd)" style="stroke: #000000; stroke-linecap: round"/>
   </g>
   <g id="patch_28">
    <path d="M 532.266696 265.576637 
Q 382.067836 341.201238 232.867575 416.323047 
" clip-path="url(#p9e81edc9bd)" style="fill: none; stroke: #000000; stroke-linecap: round"/>
    <path d="M 237.339693 416.310555 
L 232.867575 416.323047 
L 235.540852 412.737857 
L 237.339693 416.310555 
z
" clip-path="url(#p9e81edc9bd)" style="stroke: #000000; stroke-linecap: round"/>
   </g>
   <g id="patch_29">
    <path d="M 471.099608 348.887564 
Q 508.413712 420.722204 545.212442 491.564679 
" clip-path="url(#p9e81edc9bd)" style="fill: none; stroke: #000000; stroke-linecap: round"/>
    <path d="M 545.143421 487.093076 
L 545.212442 491.564679 
L 541.593747 488.936934 
L 545.143421 487.093076 
z
" clip-path="url(#p9e81edc9bd)" style="stroke: #000000; stroke-linecap: round"/>
   </g>
   <g id="patch_30">
    <path d="M 464.531184 349.46816 
Q 405.148827 539.999786 346.099141 729.464018 
" clip-path="url(#p9e81edc9bd)" style="fill: none; stroke: #000000; stroke-linecap: round"/>
    <path d="M 349.198754 726.240293 
L 346.099141 729.464018 
L 345.379929 725.050093 
L 349.198754 726.240293 
z
" clip-path="url(#p9e81edc9bd)" style="stroke: #000000; stroke-linecap: round"/>
   </g>
   <g id="patch_31">
    <path d="M 462.039489 348.22264 
Q 352.302257 500.239584 243.219416 651.350012 
" clip-path="url(#p9e81edc9bd)" style="fill: none; stroke: #000000; stroke-linecap: round"/>
    <path d="M 247.182264 649.277372 
L 243.219416 651.350012 
L 243.939013 646.93615 
L 247.182264 649.277372 
z
" clip-path="url(#p9e81edc9bd)" style="stroke: #000000; stroke-linecap: round"/>
   </g>
   <g id="patch_32">
    <path d="M 467.107438 349.865537 
Q 467.107438 380.962223 467.107438 410.940874 
" clip-path="url(#p9e81edc9bd)" style="fill: none; stroke: #000000; stroke-linecap: round"/>
    <path d="M 469.107438 406.940874 
L 467.107438 410.940874 
L 465.107438 406.940874 
L 469.107438 406.940874 
z
" clip-path="url(#p9e81edc9bd)" style="stroke: #000000; stroke-linecap: round"/>
   </g>
   <g id="patch_33">
    <path d="M 466.612208 349.846124 
Q 457.995901 500.239836 449.443544 649.517345 
" clip-path="url(#p9e81edc9bd)" style="fill: none; stroke: #000000; stroke-linecap: round"/>
    <path d="M 451.669061 645.638289 
L 449.443544 649.517345 
L 447.67561 645.409498 
L 451.669061 645.638289 
z
" clip-path="url(#p9e81edc9bd)" style="stroke: #000000; stroke-linecap: round"/>
   </g>
   <g id="patch_34">
    <path d="M 826.770504 502.149652 
Q 483.5106 579.759051 141.341204 657.121892 
" clip-path="url(#p9e81edc9bd)" style="fill: none; stroke: #000000; stroke-linecap: round"/>
    <path d="M 145.683783 658.190537 
L 141.341204 657.121892 
L 144.801668 654.289016 
L 145.683783 658.190537 
z
" clip-path="url(#p9e81edc9bd)" style="stroke: #000000; stroke-linecap: round"/>
   </g>
   <g id="patch_35">
    <path d="M 831.131242 507.877347 
Q 813.95493 539.999281 797.305818 571.135283 
" clip-path="url(#p9e81edc9bd)" style="fill: none; stroke: #000000; stroke-linecap: round"/>
    <path d="M 800.955671 568.550991 
L 797.305818 571.135283 
L 797.428296 566.664825 
L 800.955671 568.550991 
z
" clip-path="url(#p9e81edc9bd)" style="stroke: #000000; stroke-linecap: round"/>
   </g>
   <g id="patch_36">
    <path d="M 834.067124 508.826199 
Q 813.954206 659.281276 793.989429 808.628177 
" clip-path="url(#p9e81edc9bd)" style="fill: none; stroke: #000000; stroke-linecap: round"/>
    <path d="M 796.501802 804.92845 
L 793.989429 808.628177 
L 792.537071 804.398442 
L 796.501802 804.92845 
z
" clip-path="url(#p9e81edc9bd)" style="stroke: #000000; stroke-linecap: round"/>
   </g>
   <g id="patch_37">
    <path d="M 832.644591 508.514364 
Q 761.107375 738.798099 689.901839 968.014131 
" clip-path="url(#p9e81edc9bd)" style="fill: none; stroke: #000000; stroke-linecap: round"/>
    <path d="M 692.998457 964.787529 
L 689.901839 968.014131 
L 689.178529 963.600876 
L 692.998457 964.787529 
z
" clip-path="url(#p9e81edc9bd)" style="stroke: #000000; stroke-linecap: round"/>
   </g>
   <g id="patch_38">
    <path d="M 602.509317 667.407077 
Q 643.263669 778.555311 683.633133 888.653849 
" clip-path="url(#p9e81edc9bd)" style="fill: none; stroke: #000000; stroke-linecap: round"/>
    <path d="M 684.133867 884.209834 
L 683.633133 888.653849 
L 680.378362 885.586853 
L 684.133867 884.209834 
z
" clip-path="url(#p9e81edc9bd)" style="stroke: #000000; stroke-linecap: round"/>
   </g>
   <g id="patch_39">
    <path d="M 601.825282 667.629123 
Q 643.264388 818.316785 684.407041 967.926432 
" clip-path="url(#p9e81edc9bd)" style="fill: none; stroke: #000000; stroke-linecap: round"/>
    <path d="M 685.274826 963.539297 
L 684.407041 967.926432 
L 681.418005 964.599923 
L 685.274826 963.539297 
z
" clip-path="url(#p9e81edc9bd)" style="stroke: #000000; stroke-linecap: round"/>
   </g>
   <g id="patch_40">
    <path d="M 606.41918 664.522906 
Q 651.769454 699.038971 696.230063 732.877912 
" clip-path="url(#p9e81edc9bd)" style="fill: none; stroke: #000000; stroke-linecap: round"/>
    <path d="M 694.258376 728.863881 
L 696.230063 732.877912 
L 691.835826 732.046843 
L 694.258376 728.863881 
z
" clip-path="url(#p9e81edc9bd)" style="stroke: #000000; stroke-linecap: round"/>
   </g>
   <g id="patch_41">
    <path d="M 968.843231 422.304098 
Q 763.53881 460.48054 559.333579 498.452587 
" clip-path="url(#p9e81edc9bd)" style="fill: none; stroke: #000000; stroke-linecap: round"/>
    <path d="M 563.631801 499.687615 
L 559.333579 498.452587 
L 562.900534 495.755027 
L 563.631801 499.687615 
z
" clip-path="url(#p9e81edc9bd)" style="stroke: #000000; stroke-linecap: round"/>
   </g>
   <g id="patch_42">
    <path d="M 975.420887 429.16265 
Q 922.686045 659.278323 870.200946 888.304212 
" clip-path="url(#p9e81edc9bd)" style="fill: none; stroke: #000000; stroke-linecap: round"/>
    <path d="M 873.043915 884.852035 
L 870.200946 888.304212 
L 869.144986 883.958531 
L 873.043915 884.852035 
z
" clip-path="url(#p9e81edc9bd)" style="stroke: #000000; stroke-linecap: round"/>
   </g>
   <g id="patch_43">
    <path d="M 309.687118 344.957472 
Q 384.495158 380.961341 458.29577 416.480353 
" clip-path="url(#p9e81edc9bd)" style="fill: none; stroke: #000000; stroke-linecap: round"/>
    <path d="M 455.558826 412.943527 
L 458.29577 416.480353 
L 453.824143 416.547813 
L 455.558826 412.943527 
z
" clip-path="url(#p9e81edc9bd)" style="stroke: #000000; stroke-linecap: round"/>
   </g>
   <g id="patch_44">
    <path d="M 295.831273 347.392697 
Q 263.008962 380.960969 230.968289 413.72984 
" clip-path="url(#p9e81edc9bd)" style="fill: none; stroke: #000000; stroke-linecap: round"/>
    <path d="M 235.194773 412.268048 
L 230.968289 413.72984 
L 232.334746 409.471578 
L 235.194773 412.268048 
z
" clip-path="url(#p9e81edc9bd)" style="stroke: #000000; stroke-linecap: round"/>
   </g>
   <g id="patch_45">
    <path d="M 473.347173 426.727424 
Q 508.413471 460.48108 542.674267 493.459386 
" clip-path="url(#p9e81edc9bd)" style="fill: none; stroke: #000000; stroke-linecap: round"/>
    <path d="M 541.179403 489.244486 
L 542.674267 493.459386 
L 538.405428 492.126337 
L 541.179403 489.244486 
z
" clip-path="url(#p9e81edc9bd)" style="stroke: #000000; stroke-linecap: round"/>
   </g>
   <g id="patch_46">
    <path d="M 472.282052 427.668996 
Q 585.557792 579.7595 698.165704 730.953339 
" clip-path="url(#p9e81edc9bd)" style="fill: none; stroke: #000000; stroke-linecap: round"/>
    <path d="M 697.380411 726.55069 
L 698.165704 730.953339 
L 694.172409 728.939984 
L 697.380411 726.55069 
z
" clip-path="url(#p9e81edc9bd)" style="stroke: #000000; stroke-linecap: round"/>
   </g>
   <g id="patch_47">
    <path d="M 541.484634 502.935307 
Q 428.227985 540.001119 316.033912 576.719179 
" clip-path="url(#p9e81edc9bd)" style="fill: none; stroke: #000000; stroke-linecap: round"/>
    <path d="M 320.457579 577.375817 
L 316.033912 576.719179 
L 319.213423 573.574229 
L 320.457579 577.375817 
z
" clip-path="url(#p9e81edc9bd)" style="stroke: #000000; stroke-linecap: round"/>
   </g>
   <g id="patch_48">
    <path d="M 784.255826 581.711279 
Q 620.788049 619.519438 458.40955 657.07566 
" clip-path="url(#p9e81edc9bd)" style="fill: none; stroke: #000000; stroke-linecap: round"/>
    <path d="M 462.75735 658.122863 
L 458.40955 657.07566 
L 461.855992 654.225741 
L 462.75735 658.122863 
z
" clip-path="url(#p9e81edc9bd)" style="stroke: #000000; stroke-linecap: round"/>
   </g>
   <g id="patch_49">
    <path d="M 298.861048 583.342649 
Q 219.273571 619.518775 140.703914 655.232255 
" clip-path="url(#p9e81edc9bd)" style="fill: none; stroke: #000000; stroke-linecap: round"/>
    <path d="M 145.172986 655.397777 
L 140.703914 655.232255 
L 143.517774 651.756311 
L 145.172986 655.397777 
z
" clip-path="url(#p9e81edc9bd)" style="stroke: #000000; stroke-linecap: round"/>
   </g>
   <g id="patch_50">
    <path d="M 314.304559 583.989373 
Q 377.813891 619.51907 440.347499 654.502906 
" clip-path="url(#p9e81edc9bd)" style="fill: none; stroke: #000000; stroke-linecap: round"/>
    <path d="M 437.833106 650.804552 
L 440.347499 654.502906 
L 435.880179 654.295408 
L 437.833106 650.804552 
z
" clip-path="url(#p9e81edc9bd)" style="stroke: #000000; stroke-linecap: round"/>
   </g>
   <g id="patch_51">
    <path d="M 310.35306 587.634325 
Q 324.966778 619.5188 339.114661 650.386909 
" clip-path="url(#p9e81edc9bd)" style="fill: none; stroke: #000000; stroke-linecap: round"/>
    <path d="M 339.266172 645.917341 
L 339.114661 650.386909 
L 335.629913 647.583959 
L 339.266172 645.917341 
z
" clip-path="url(#p9e81edc9bd)" style="stroke: #000000; stroke-linecap: round"/>
   </g>
   <g id="patch_52">
    <path d="M 315.30122 581.090035 
Q 562.473894 619.518955 808.541807 657.776112 
" clip-path="url(#p9e81edc9bd)" style="fill: none; stroke: #000000; stroke-linecap: round"/>
    <path d="M 804.896549 655.185342 
L 808.541807 657.776112 
L 804.282036 659.137856 
L 804.896549 655.185342 
z
" clip-path="url(#p9e81edc9bd)" style="stroke: #000000; stroke-linecap: round"/>
   </g>
   <g id="patch_53">
    <path d="M 301.056967 586.289915 
Q 272.121033 619.517783 243.919337 651.902505 
" clip-path="url(#p9e81edc9bd)" style="fill: none; stroke: #000000; stroke-linecap: round"/>
    <path d="M 248.054493 650.199424 
L 243.919337 651.902505 
L 245.037966 647.572532 
L 248.054493 650.199424 
z
" clip-path="url(#p9e81edc9bd)" style="stroke: #000000; stroke-linecap: round"/>
   </g>
   <g id="patch_54">
    <path d="M 131.801653 667.942172 
Q 131.801653 738.799819 131.801653 808.539432 
" clip-path="url(#p9e81edc9bd)" style="fill: none; stroke: #000000; stroke-linecap: round"/>
    <path d="M 133.801653 804.539432 
L 131.801653 808.539432 
L 129.801653 804.539432 
L 133.801653 804.539432 
z
" clip-path="url(#p9e81edc9bd)" style="stroke: #000000; stroke-linecap: round"/>
   </g>
   <g id="patch_55">
    <path d="M 343.190083 667.942172 
Q 343.190083 699.038857 343.190083 729.017508 
" clip-path="url(#p9e81edc9bd)" style="fill: none; stroke: #000000; stroke-linecap: round"/>
    <path d="M 345.190083 725.017508 
L 343.190083 729.017508 
L 341.190083 725.017508 
L 345.190083 725.017508 
z
" clip-path="url(#p9e81edc9bd)" style="stroke: #000000; stroke-linecap: round"/>
   </g>
   <g id="patch_56">
    <path d="M 351.719111 740.306717 
Q 567.94232 778.557506 783.06459 816.613534 
" clip-path="url(#p9e81edc9bd)" style="fill: none; stroke: #000000; stroke-linecap: round"/>
    <path d="M 779.474147 813.947316 
L 783.06459 816.613534 
L 778.777349 817.886157 
L 779.474147 813.947316 
z
" clip-path="url(#p9e81edc9bd)" style="stroke: #000000; stroke-linecap: round"/>
   </g>
   <g id="patch_57">
    <path d="M 335.084322 741.847085 
Q 237.495551 778.557595 140.953223 814.874458 
" clip-path="url(#p9e81edc9bd)" style="fill: none; stroke: #000000; stroke-linecap: round"/>
    <path d="M 145.401266 815.33804 
L 140.953223 814.874458 
L 143.992915 811.594173 
L 145.401266 815.33804 
z
" clip-path="url(#p9e81edc9bd)" style="stroke: #000000; stroke-linecap: round"/>
   </g>
   <g id="patch_58">
    <path d="M 811.10058 664.226845 
Q 761.108588 699.037516 712.034106 733.209303 
" clip-path="url(#p9e81edc9bd)" style="fill: none; stroke: #000000; stroke-linecap: round"/>
    <path d="M 716.459564 732.564849 
L 712.034106 733.209303 
L 714.173818 729.282264 
L 716.459564 732.564849 
z
" clip-path="url(#p9e81edc9bd)" style="stroke: #000000; stroke-linecap: round"/>
   </g>
   <g id="patch_59">
    <path d="M 819.976742 667.756526 
Q 843.111503 778.557155 866.017751 888.26335 
" clip-path="url(#p9e81edc9bd)" style="fill: none; stroke: #000000; stroke-linecap: round"/>
    <path d="M 867.157976 883.939014 
L 866.017751 888.26335 
L 863.242417 884.756568 
L 867.157976 883.939014 
z
" clip-path="url(#p9e81edc9bd)" style="stroke: #000000; stroke-linecap: round"/>
   </g>
   <g id="patch_60">
    <path d="M 709.950333 349.862504 
Q 707.045464 539.999365 704.157675 729.018323 
" clip-path="url(#p9e81edc9bd)" style="fill: none; stroke: #000000; stroke-linecap: round"/>
    <path d="M 706.218545 725.049342 
L 704.157675 729.018323 
L 702.219012 724.988238 
L 706.218545 725.049342 
z
" clip-path="url(#p9e81edc9bd)" style="stroke: #000000; stroke-linecap: round"/>
   </g>
   <g id="patch_61">
    <path d="M 710.457807 744.580799 
Q 748.352358 778.558478 785.41449 811.78978 
" clip-path="url(#p9e81edc9bd)" style="fill: none; stroke: #000000; stroke-linecap: round"/>
    <path d="M 783.771501 807.630383 
L 785.41449 811.78978 
L 781.101179 810.608533 
L 783.771501 807.630383 
z
" clip-path="url(#p9e81edc9bd)" style="stroke: #000000; stroke-linecap: round"/>
   </g>
   <g id="patch_62">
    <path d="M 702.196776 747.267191 
Q 695.504129 778.557492 689.045327 808.754488 
" clip-path="url(#p9e81edc9bd)" style="fill: none; stroke: #000000; stroke-linecap: round"/>
    <path d="M 691.837723 805.261277 
L 689.045327 808.754488 
L 687.926195 804.424645 
L 691.837723 805.261277 
z
" clip-path="url(#p9e81edc9bd)" style="stroke: #000000; stroke-linecap: round"/>
   </g>
   <g id="patch_63">
    <path d="M 798.650029 824.604718 
Q 830.355862 858.077152 861.292837 890.737887 
" clip-path="url(#p9e81edc9bd)" style="fill: none; stroke: #000000; stroke-linecap: round"/>
    <path d="M 859.994093 886.458487 
L 861.292837 890.737887 
L 857.09007 889.209242 
L 859.994093 886.458487 
z
" clip-path="url(#p9e81edc9bd)" style="stroke: #000000; stroke-linecap: round"/>
   </g>
   <g id="patch_64">
    <path d="M 687 826.980489 
Q 687 858.077174 687 888.055825 
" clip-path="url(#p9e81edc9bd)" style="fill: none; stroke: #000000; stroke-linecap: round"/>
    <path d="M 689 884.055825 
L 687 888.055825 
L 685 884.055825 
L 689 884.055825 
z
" clip-path="url(#p9e81edc9bd)" style="stroke: #000000; stroke-linecap: round"/>
   </g>
   <g id="patch_65">
    <path d="M 687 906.499647 
Q 687 937.596332 687 967.574983 
" clip-path="url(#p9e81edc9bd)" style="fill: none; stroke: #000000; stroke-linecap: round"/>
    <path d="M 689 963.574983 
L 687 967.574983 
L 685 963.574983 
L 689 963.574983 
z
" clip-path="url(#p9e81edc9bd)" style="stroke: #000000; stroke-linecap: round"/>
   </g>
   <g id="PathCollection_1">
    <defs>
     <path id="m7a390606bc" d="M 0 8.660254 
C 2.296726 8.660254 4.499694 7.747755 6.123724 6.123724 
C 7.747755 4.499694 8.660254 2.296726 8.660254 0 
C 8.660254 -2.296726 7.747755 -4.499694 6.123724 -6.123724 
C 4.499694 -7.747755 2.296726 -8.660254 0 -8.660254 
C -2.296726 -8.660254 -4.499694 -7.747755 -6.123724 -6.123724 
C -7.747755 -4.499694 -8.660254 -2.296726 -8.660254 0 
C -8.660254 2.296726 -7.747755 4.499694 -6.123724 6.123724 
C -4.499694 7.747755 -2.296726 8.660254 0 8.660254 
z
" style="stroke: #add8e6"/>
    </defs>
    <g clip-path="url(#p9e81edc9bd)">
     <use xlink:href="#m7a390606bc" x="102.644628" y="182.163787" style="fill: #add8e6; stroke: #add8e6"/>
     <use xlink:href="#m7a390606bc" x="637.190083" y="261.682945" style="fill: #add8e6; stroke: #add8e6"/>
     <use xlink:href="#m7a390606bc" x="148.809917" y="261.682945" style="fill: #add8e6; stroke: #add8e6"/>
     <use xlink:href="#m7a390606bc" x="625.041322" y="102.644628" style="fill: #add8e6; stroke: #add8e6"/>
     <use xlink:href="#m7a390606bc" x="785.404959" y="261.682945" style="fill: #add8e6; stroke: #add8e6"/>
     <use xlink:href="#m7a390606bc" x="396.644628" y="182.163787" style="fill: #add8e6; stroke: #add8e6"/>
     <use xlink:href="#m7a390606bc" x="857.082645" y="341.202104" style="fill: #add8e6; stroke: #add8e6"/>
     <use xlink:href="#m7a390606bc" x="540" y="261.682945" style="fill: #add8e6; stroke: #add8e6"/>
     <use xlink:href="#m7a390606bc" x="467.107438" y="341.202104" style="fill: #add8e6; stroke: #add8e6"/>
     <use xlink:href="#m7a390606bc" x="835.214876" y="500.240421" style="fill: #add8e6; stroke: #add8e6"/>
     <use xlink:href="#m7a390606bc" x="599.528926" y="659.278738" style="fill: #add8e6; stroke: #add8e6"/>
     <use xlink:href="#m7a390606bc" x="977.355372" y="420.721262" style="fill: #add8e6; stroke: #add8e6"/>
     <use xlink:href="#m7a390606bc" x="301.884298" y="341.202104" style="fill: #add8e6; stroke: #add8e6"/>
     <use xlink:href="#m7a390606bc" x="467.107438" y="420.721262" style="fill: #add8e6; stroke: #add8e6"/>
     <use xlink:href="#m7a390606bc" x="549.719008" y="500.240421" style="fill: #add8e6; stroke: #add8e6"/>
     <use xlink:href="#m7a390606bc" x="792.694215" y="579.759579" style="fill: #add8e6; stroke: #add8e6"/>
     <use xlink:href="#m7a390606bc" x="306.743802" y="579.759579" style="fill: #add8e6; stroke: #add8e6"/>
     <use xlink:href="#m7a390606bc" x="131.801653" y="659.278738" style="fill: #add8e6; stroke: #add8e6"/>
     <use xlink:href="#m7a390606bc" x="343.190083" y="659.278738" style="fill: #add8e6; stroke: #add8e6"/>
     <use xlink:href="#m7a390606bc" x="343.190083" y="738.797896" style="fill: #add8e6; stroke: #add8e6"/>
     <use xlink:href="#m7a390606bc" x="224.132231" y="420.721262" style="fill: #add8e6; stroke: #add8e6"/>
     <use xlink:href="#m7a390606bc" x="818.206612" y="659.278738" style="fill: #add8e6; stroke: #add8e6"/>
     <use xlink:href="#m7a390606bc" x="131.801653" y="818.317055" style="fill: #add8e6; stroke: #add8e6"/>
     <use xlink:href="#m7a390606bc" x="710.082645" y="341.202104" style="fill: #add8e6; stroke: #add8e6"/>
     <use xlink:href="#m7a390606bc" x="704.008264" y="738.797896" style="fill: #add8e6; stroke: #add8e6"/>
     <use xlink:href="#m7a390606bc" x="792.694215" y="818.317055" style="fill: #add8e6; stroke: #add8e6"/>
     <use xlink:href="#m7a390606bc" x="687" y="818.317055" style="fill: #add8e6; stroke: #add8e6"/>
     <use xlink:href="#m7a390606bc" x="687" y="897.836213" style="fill: #add8e6; stroke: #add8e6"/>
     <use xlink:href="#m7a390606bc" x="687" y="977.355372" style="fill: #add8e6; stroke: #add8e6"/>
     <use xlink:href="#m7a390606bc" x="237.495868" y="659.278738" style="fill: #add8e6; stroke: #add8e6"/>
     <use xlink:href="#m7a390606bc" x="448.884298" y="659.278738" style="fill: #add8e6; stroke: #add8e6"/>
     <use xlink:href="#m7a390606bc" x="868.016529" y="897.836213" style="fill: #add8e6; stroke: #add8e6"/>
    </g>
   </g>
  </g>
 </g>
 <defs>
  <clipPath id="p9e81edc9bd">
   <rect x="10.8" y="10.8" width="1058.4" height="1058.4"/>
  </clipPath>
 </defs>
</svg>
