<?xml version="1.0" encoding="utf-8" standalone="no"?>
<!DOCTYPE svg PUBLIC "-//W3C//DTD SVG 1.1//EN"
  "http://www.w3.org/Graphics/SVG/1.1/DTD/svg11.dtd">
<svg xmlns:xlink="http://www.w3.org/1999/xlink" width="1080pt" height="1080pt" viewBox="0 0 1080 1080" xmlns="http://www.w3.org/2000/svg" version="1.1">
 <metadata>
  <rdf:RDF xmlns:dc="http://purl.org/dc/elements/1.1/" xmlns:cc="http://creativecommons.org/ns#" xmlns:rdf="http://www.w3.org/1999/02/22-rdf-syntax-ns#">
   <cc:Work>
    <dc:type rdf:resource="http://purl.org/dc/dcmitype/StillImage"/>
    <dc:date>2022-04-26T21:00:46.928289</dc:date>
    <dc:format>image/svg+xml</dc:format>
    <dc:creator>
     <cc:Agent>
      <dc:title>Matplotlib v3.5.1, https://matplotlib.org/</dc:title>
     </cc:Agent>
    </dc:creator>
   </cc:Work>
  </rdf:RDF>
 </metadata>
 <defs>
  <style type="text/css">*{stroke-linejoin: round; stroke-linecap: butt}</style>
 </defs>
 <g id="figure_1">
  <g id="patch_1">
   <path d="M 0 1080 
L 1080 1080 
L 1080 0 
L 0 0 
z
" style="fill: #ffffff"/>
  </g>
  <g id="axes_1">
   <g id="patch_2">
    <path d="M 160.85073 208.011989 
Q 191.957942 297.026322 222.696317 384.985213 
" clip-path="url(#p6a09889c2e)" style="fill: none; stroke: #000000; stroke-linecap: round"/>
    <path d="M 223.264754 380.549351 
L 222.696317 384.985213 
L 219.488689 381.868946 
L 223.264754 380.549351 
z
" clip-path="url(#p6a09889c2e)" style="stroke: #000000; stroke-linecap: round"/>
   </g>
   <g id="patch_3">
    <path d="M 156.37745 208.345665 
Q 130.318228 345.623116 104.467518 481.80215 
" clip-path="url(#p6a09889c2e)" style="fill: none; stroke: #000000; stroke-linecap: round"/>
    <path d="M 107.178422 478.245325 
L 104.467518 481.80215 
L 103.248601 477.499332 
L 107.178422 478.245325 
z
" clip-path="url(#p6a09889c2e)" style="stroke: #000000; stroke-linecap: round"/>
   </g>
   <g id="patch_4">
    <path d="M 157.993074 208.492482 
Q 157.993074 248.429016 157.993074 287.247517 
" clip-path="url(#p6a09889c2e)" style="fill: none; stroke: #000000; stroke-linecap: round"/>
    <path d="M 159.993074 283.247517 
L 157.993074 287.247517 
L 155.993074 283.247517 
L 159.993074 283.247517 
z
" clip-path="url(#p6a09889c2e)" style="stroke: #000000; stroke-linecap: round"/>
   </g>
   <g id="patch_5">
    <path d="M 586.665106 110.572762 
Q 604.562013 151.241593 622.00859 190.887096 
" clip-path="url(#p6a09889c2e)" style="fill: none; stroke: #000000; stroke-linecap: round"/>
    <path d="M 622.228025 186.420346 
L 622.00859 190.887096 
L 618.566851 188.031499 
L 622.228025 186.420346 
z
" clip-path="url(#p6a09889c2e)" style="stroke: #000000; stroke-linecap: round"/>
   </g>
   <g id="patch_6">
    <path d="M 580.972636 111.017663 
Q 480.864391 491.403098 381.040697 870.707315 
" clip-path="url(#p6a09889c2e)" style="fill: none; stroke: #000000; stroke-linecap: round"/>
    <path d="M 383.992876 867.348053 
L 381.040697 870.707315 
L 380.124595 866.330015 
L 383.992876 867.348053 
z
" clip-path="url(#p6a09889c2e)" style="stroke: #000000; stroke-linecap: round"/>
   </g>
   <g id="patch_7">
    <path d="M 590.944197 106.475225 
Q 780.265684 199.834657 968.584431 292.69961 
" clip-path="url(#p6a09889c2e)" style="fill: none; stroke: #000000; stroke-linecap: round"/>
    <path d="M 965.881463 289.136751 
L 968.584431 292.69961 
L 964.112363 292.724269 
L 965.881463 289.136751 
z
" clip-path="url(#p6a09889c2e)" style="stroke: #000000; stroke-linecap: round"/>
   </g>
   <g id="patch_8">
    <path d="M 576.346657 107.974541 
Q 458.6391 199.835667 341.812937 291.008938 
" clip-path="url(#p6a09889c2e)" style="fill: none; stroke: #000000; stroke-linecap: round"/>
    <path d="M 346.19678 290.124675 
L 341.812937 291.008938 
L 343.735833 286.971306 
L 346.19678 290.124675 
z
" clip-path="url(#p6a09889c2e)" style="stroke: #000000; stroke-linecap: round"/>
   </g>
   <g id="patch_9">
    <path d="M 629.435008 207.762845 
Q 647.331915 248.431676 664.778492 288.077178 
" clip-path="url(#p6a09889c2e)" style="fill: none; stroke: #000000; stroke-linecap: round"/>
    <path d="M 664.997926 283.610429 
L 664.778492 288.077178 
L 661.336753 285.221581 
L 664.997926 283.610429 
z
" clip-path="url(#p6a09889c2e)" style="stroke: #000000; stroke-linecap: round"/>
   </g>
   <g id="patch_10">
    <path d="M 624.050688 208.283379 
Q 560.533367 491.404778 497.26079 773.43526 
" clip-path="url(#p6a09889c2e)" style="fill: none; stroke: #000000; stroke-linecap: round"/>
    <path d="M 500.087904 769.970086 
L 497.26079 773.43526 
L 496.184919 769.094465 
L 500.087904 769.970086 
z
" clip-path="url(#p6a09889c2e)" style="stroke: #000000; stroke-linecap: round"/>
   </g>
   <g id="patch_11">
    <path d="M 632.499774 205.502748 
Q 682.134593 248.430241 730.923773 290.626368 
" clip-path="url(#p6a09889c2e)" style="fill: none; stroke: #000000; stroke-linecap: round"/>
    <path d="M 729.206628 286.497033 
L 730.923773 290.626368 
L 726.590018 289.522483 
L 729.206628 286.497033 
z
" clip-path="url(#p6a09889c2e)" style="stroke: #000000; stroke-linecap: round"/>
   </g>
   <g id="patch_12">
    <path d="M 155.620733 305.356304 
Q 130.318127 394.217418 105.321704 482.00324 
" clip-path="url(#p6a09889c2e)" style="fill: none; stroke: #000000; stroke-linecap: round"/>
    <path d="M 108.340675 478.703874 
L 105.321704 482.00324 
L 104.493594 477.608444 
L 108.340675 478.703874 
z
" clip-path="url(#p6a09889c2e)" style="stroke: #000000; stroke-linecap: round"/>
   </g>
   <g id="patch_13">
    <path d="M 163.577843 303.642694 
Q 363.03801 540.001179 561.77712 775.505218 
" clip-path="url(#p6a09889c2e)" style="fill: none; stroke: #000000; stroke-linecap: round"/>
    <path d="M 560.725868 771.158395 
L 561.77712 775.505218 
L 557.66891 773.738125 
L 560.725868 771.158395 
z
" clip-path="url(#p6a09889c2e)" style="stroke: #000000; stroke-linecap: round"/>
   </g>
   <g id="patch_14">
    <path d="M 163.805588 303.440264 
Q 246.048528 394.214626 327.540794 484.160443 
" clip-path="url(#p6a09889c2e)" style="fill: none; stroke: #000000; stroke-linecap: round"/>
    <path d="M 326.337246 479.853301 
L 327.540794 484.160443 
L 323.372952 482.538996 
L 326.337246 479.853301 
z
" clip-path="url(#p6a09889c2e)" style="stroke: #000000; stroke-linecap: round"/>
   </g>
   <g id="patch_15">
    <path d="M 166.177786 299.864744 
Q 298.046943 345.621016 428.859844 391.010787 
" clip-path="url(#p6a09889c2e)" style="fill: none; stroke: #000000; stroke-linecap: round"/>
    <path d="M 425.736488 387.810061 
L 428.859844 391.010787 
L 424.42525 391.589037 
L 425.736488 387.810061 
z
" clip-path="url(#p6a09889c2e)" style="stroke: #000000; stroke-linecap: round"/>
   </g>
   <g id="patch_16">
    <path d="M 878.557418 208.065377 
Q 891.803322 248.430767 904.700632 287.733856 
" clip-path="url(#p6a09889c2e)" style="fill: none; stroke: #000000; stroke-linecap: round"/>
    <path d="M 905.353765 283.30967 
L 904.700632 287.733856 
L 901.553163 284.556838 
L 905.353765 283.30967 
z
" clip-path="url(#p6a09889c2e)" style="stroke: #000000; stroke-linecap: round"/>
   </g>
   <g id="patch_17">
    <path d="M 870.055643 206.267978 
Q 788.219843 297.025142 707.132748 386.951981 
" clip-path="url(#p6a09889c2e)" style="fill: none; stroke: #000000; stroke-linecap: round"/>
    <path d="M 711.296728 385.320642 
L 707.132748 386.951981 
L 708.326065 382.641993 
L 711.296728 385.320642 
z
" clip-path="url(#p6a09889c2e)" style="stroke: #000000; stroke-linecap: round"/>
   </g>
   <g id="patch_18">
    <path d="M 882.110375 205.823077 
Q 926.606775 248.430544 970.295651 290.264767 
" clip-path="url(#p6a09889c2e)" style="fill: none; stroke: #000000; stroke-linecap: round"/>
    <path d="M 968.789786 286.053785 
L 970.295651 290.264767 
L 966.023346 288.942871 
L 968.789786 286.053785 
z
" clip-path="url(#p6a09889c2e)" style="stroke: #000000; stroke-linecap: round"/>
   </g>
   <g id="patch_19">
    <path d="M 873.472105 208.158065 
Q 806.251064 442.808318 739.337924 676.383771 
" clip-path="url(#p6a09889c2e)" style="fill: none; stroke: #000000; stroke-linecap: round"/>
    <path d="M 742.362169 673.089239 
L 739.337924 676.383771 
L 738.516845 671.987656 
L 742.362169 673.089239 
z
" clip-path="url(#p6a09889c2e)" style="stroke: #000000; stroke-linecap: round"/>
   </g>
   <g id="patch_20">
    <path d="M 671.414782 305.25546 
Q 684.650237 345.620849 697.537346 384.923857 
" clip-path="url(#p6a09889c2e)" style="fill: none; stroke: #000000; stroke-linecap: round"/>
    <path d="M 698.191514 380.499824 
L 697.537346 384.923857 
L 694.390621 381.746103 
L 698.191514 380.499824 
z
" clip-path="url(#p6a09889c2e)" style="stroke: #000000; stroke-linecap: round"/>
   </g>
   <g id="patch_21">
    <path d="M 668.432163 305.681823 
Q 660.749056 540.00064 653.102589 773.202024 
" clip-path="url(#p6a09889c2e)" style="fill: none; stroke: #000000; stroke-linecap: round"/>
    <path d="M 655.2326 769.269715 
L 653.102589 773.202024 
L 651.234749 769.138629 
L 655.2326 769.269715 
z
" clip-path="url(#p6a09889c2e)" style="stroke: #000000; stroke-linecap: round"/>
   </g>
   <g id="patch_22">
    <path d="M 903.881692 304.77163 
Q 737.914961 637.190572 572.447645 968.609221 
" clip-path="url(#p6a09889c2e)" style="fill: none; stroke: #000000; stroke-linecap: round"/>
    <path d="M 576.023785 965.92385 
L 572.447645 968.609221 
L 572.445032 964.137086 
L 576.023785 965.92385 
z
" clip-path="url(#p6a09889c2e)" style="stroke: #000000; stroke-linecap: round"/>
   </g>
   <g id="patch_23">
    <path d="M 900.677939 302.02103 
Q 838.971995 345.618129 778.17917 388.570082 
" clip-path="url(#p6a09889c2e)" style="fill: none; stroke: #000000; stroke-linecap: round"/>
    <path d="M 782.600116 387.895375 
L 778.17917 388.570082 
L 780.291972 384.6285 
L 782.600116 387.895375 
z
" clip-path="url(#p6a09889c2e)" style="stroke: #000000; stroke-linecap: round"/>
   </g>
   <g id="patch_24">
    <path d="M 701.646314 402.805912 
Q 718.613871 539.997029 735.444197 676.078565 
" clip-path="url(#p6a09889c2e)" style="fill: none; stroke: #000000; stroke-linecap: round"/>
    <path d="M 736.938102 671.863325 
L 735.444197 676.078565 
L 732.968348 672.354297 
L 736.938102 671.863325 
z
" clip-path="url(#p6a09889c2e)" style="stroke: #000000; stroke-linecap: round"/>
   </g>
   <g id="patch_25">
    <path d="M 698.664059 402.663544 
Q 634.332414 685.784943 570.248497 967.816099 
" clip-path="url(#p6a09889c2e)" style="fill: none; stroke: #000000; stroke-linecap: round"/>
    <path d="M 573.085083 964.358675 
L 570.248497 967.816099 
L 569.18451 963.472376 
L 573.085083 964.358675 
z
" clip-path="url(#p6a09889c2e)" style="stroke: #000000; stroke-linecap: round"/>
   </g>
   <g id="patch_26">
    <path d="M 699.526531 402.813327 
Q 676.682682 588.597317 653.975278 773.27163 
" clip-path="url(#p6a09889c2e)" style="fill: none; stroke: #000000; stroke-linecap: round"/>
    <path d="M 656.448489 769.545609 
L 653.975278 773.27163 
L 652.478389 769.057449 
L 656.448489 769.545609 
z
" clip-path="url(#p6a09889c2e)" style="stroke: #000000; stroke-linecap: round"/>
   </g>
   <g id="patch_27">
    <path d="M 692.039325 395.603708 
Q 401.616113 442.809608 112.296453 489.836134 
" clip-path="url(#p6a09889c2e)" style="fill: none; stroke: #000000; stroke-linecap: round"/>
    <path d="M 116.56551 491.168482 
L 112.296453 489.836134 
L 115.923765 487.220297 
L 116.56551 491.168482 
z
" clip-path="url(#p6a09889c2e)" style="stroke: #000000; stroke-linecap: round"/>
   </g>
   <g id="patch_28">
    <path d="M 692.215315 396.43419 
Q 517.344192 442.809896 343.553746 488.899008 
" clip-path="url(#p6a09889c2e)" style="fill: none; stroke: #000000; stroke-linecap: round"/>
    <path d="M 347.932771 489.806829 
L 343.553746 488.899008 
L 346.907418 485.94048 
L 347.932771 489.806829 
z
" clip-path="url(#p6a09889c2e)" style="stroke: #000000; stroke-linecap: round"/>
   </g>
   <g id="patch_29">
    <path d="M 432.669474 787.852803 
Q 496.797563 831.570096 560.00186 874.657621 
" clip-path="url(#p6a09889c2e)" style="fill: none; stroke: #000000; stroke-linecap: round"/>
    <path d="M 557.823358 870.751968 
L 560.00186 874.657621 
L 555.570236 874.057031 
L 557.823358 870.751968 
z
" clip-path="url(#p6a09889c2e)" style="stroke: #000000; stroke-linecap: round"/>
   </g>
   <g id="patch_30">
    <path d="M 421.74674 790.772836 
Q 402.033547 831.569328 382.806785 871.359149 
" clip-path="url(#p6a09889c2e)" style="fill: none; stroke: #000000; stroke-linecap: round"/>
    <path d="M 386.34788 868.627731 
L 382.806785 871.359149 
L 382.746308 866.887422 
L 386.34788 868.627731 
z
" clip-path="url(#p6a09889c2e)" style="stroke: #000000; stroke-linecap: round"/>
   </g>
   <g id="patch_31">
    <path d="M 430.63766 789.960151 
Q 496.797556 880.164975 562.296225 969.468257 
" clip-path="url(#p6a09889c2e)" style="fill: none; stroke: #000000; stroke-linecap: round"/>
    <path d="M 561.543272 965.059962 
L 562.296225 969.468257 
L 558.317817 967.425642 
L 561.543272 965.059962 
z
" clip-path="url(#p6a09889c2e)" style="stroke: #000000; stroke-linecap: round"/>
   </g>
   <g id="patch_32">
    <path d="M 573.673576 499.772061 
Q 584.434059 539.999644 594.905636 579.147165 
" clip-path="url(#p6a09889c2e)" style="fill: none; stroke: #000000; stroke-linecap: round"/>
    <path d="M 595.804088 574.766208 
L 594.905636 579.147165 
L 591.939942 575.799829 
L 595.804088 574.766208 
z
" clip-path="url(#p6a09889c2e)" style="stroke: #000000; stroke-linecap: round"/>
   </g>
   <g id="patch_33">
    <path d="M 568.673661 499.611897 
Q 538.729075 588.595007 509.14108 676.518473 
" clip-path="url(#p6a09889c2e)" style="fill: none; stroke: #000000; stroke-linecap: round"/>
    <path d="M 512.312405 673.365269 
L 509.14108 676.518473 
L 508.521311 672.089491 
L 512.312405 673.365269 
z
" clip-path="url(#p6a09889c2e)" style="stroke: #000000; stroke-linecap: round"/>
   </g>
   <g id="patch_34">
    <path d="M 340.429239 302.936043 
Q 386.097827 345.618536 430.949593 387.537615 
" clip-path="url(#p6a09889c2e)" style="fill: none; stroke: #000000; stroke-linecap: round"/>
    <path d="M 429.392875 383.345165 
L 430.949593 387.537615 
L 426.661603 386.267519 
L 429.392875 383.345165 
z
" clip-path="url(#p6a09889c2e)" style="stroke: #000000; stroke-linecap: round"/>
   </g>
   <g id="patch_35">
    <path d="M 334.104435 305.682565 
Q 334.104435 394.214981 334.104435 481.629364 
" clip-path="url(#p6a09889c2e)" style="fill: none; stroke: #000000; stroke-linecap: round"/>
    <path d="M 336.104435 477.629364 
L 334.104435 481.629364 
L 332.104435 477.629364 
L 336.104435 477.629364 
z
" clip-path="url(#p6a09889c2e)" style="stroke: #000000; stroke-linecap: round"/>
   </g>
   <g id="patch_36">
    <path d="M 440.792763 402.445543 
Q 454.028218 442.810932 466.915327 482.113939 
" clip-path="url(#p6a09889c2e)" style="fill: none; stroke: #000000; stroke-linecap: round"/>
    <path d="M 467.569494 477.689907 
L 466.915327 482.113939 
L 463.768601 478.936186 
L 467.569494 477.689907 
z
" clip-path="url(#p6a09889c2e)" style="stroke: #000000; stroke-linecap: round"/>
   </g>
   <g id="patch_37">
    <path d="M 440.058185 402.645748 
Q 472.057542 539.9966 503.803218 676.258579 
" clip-path="url(#p6a09889c2e)" style="fill: none; stroke: #000000; stroke-linecap: round"/>
    <path d="M 504.843459 671.909108 
L 503.803218 676.258579 
L 500.947786 672.816704 
L 504.843459 671.909108 
z
" clip-path="url(#p6a09889c2e)" style="stroke: #000000; stroke-linecap: round"/>
   </g>
   <g id="patch_38">
    <path d="M 232.72796 399.562585 
Q 349.617184 491.403526 465.627274 582.553725 
" clip-path="url(#p6a09889c2e)" style="fill: none; stroke: #000000; stroke-linecap: round"/>
    <path d="M 463.717631 578.509808 
L 465.627274 582.553725 
L 461.246355 581.655089 
L 463.717631 578.509808 
z
" clip-path="url(#p6a09889c2e)" style="stroke: #000000; stroke-linecap: round"/>
   </g>
   <g id="patch_39">
    <path d="M 229.550848 402.076275 
Q 360.521287 685.785446 491.023123 968.479525 
" clip-path="url(#p6a09889c2e)" style="fill: none; stroke: #000000; stroke-linecap: round"/>
    <path d="M 491.162449 964.00956 
L 491.023123 968.479525 
L 487.530746 965.686086 
L 491.162449 964.00956 
z
" clip-path="url(#p6a09889c2e)" style="stroke: #000000; stroke-linecap: round"/>
   </g>
   <g id="patch_40">
    <path d="M 233.968777 397.419645 
Q 347.941192 442.809693 460.874916 487.786076 
" clip-path="url(#p6a09889c2e)" style="fill: none; stroke: #000000; stroke-linecap: round"/>
    <path d="M 457.898761 484.448037 
L 460.874916 487.786076 
L 456.418792 488.164176 
L 457.898761 484.448037 
z
" clip-path="url(#p6a09889c2e)" style="stroke: #000000; stroke-linecap: round"/>
   </g>
   <g id="patch_41">
    <path d="M 227.852605 402.659095 
Q 248.145738 491.406797 268.189654 579.064594 
" clip-path="url(#p6a09889c2e)" style="fill: none; stroke: #000000; stroke-linecap: round"/>
    <path d="M 269.247702 574.719421 
L 268.189654 579.064594 
L 265.348344 575.611052 
L 269.247702 574.719421 
z
" clip-path="url(#p6a09889c2e)" style="stroke: #000000; stroke-linecap: round"/>
   </g>
   <g id="patch_42">
    <path d="M 230.303412 401.682537 
Q 397.001057 685.784627 563.1329 968.92242 
" clip-path="url(#p6a09889c2e)" style="fill: none; stroke: #000000; stroke-linecap: round"/>
    <path d="M 562.833606 964.46031 
L 563.1329 968.92242 
L 559.383636 966.484589 
L 562.833606 964.46031 
z
" clip-path="url(#p6a09889c2e)" style="stroke: #000000; stroke-linecap: round"/>
   </g>
   <g id="patch_43">
    <path d="M 738.321938 208.492482 
Q 738.321938 248.429016 738.321938 287.247517 
" clip-path="url(#p6a09889c2e)" style="fill: none; stroke: #000000; stroke-linecap: round"/>
    <path d="M 740.321938 283.247517 
L 738.321938 287.247517 
L 736.321938 283.247517 
L 740.321938 283.247517 
z
" clip-path="url(#p6a09889c2e)" style="stroke: #000000; stroke-linecap: round"/>
   </g>
   <g id="patch_44">
    <path d="M 735.371342 207.976397 
Q 667.877017 394.215918 600.763629 579.404302 
" clip-path="url(#p6a09889c2e)" style="fill: none; stroke: #000000; stroke-linecap: round"/>
    <path d="M 604.006843 576.325087 
L 600.763629 579.404302 
L 600.246185 574.962203 
L 604.006843 576.325087 
z
" clip-path="url(#p6a09889c2e)" style="stroke: #000000; stroke-linecap: round"/>
   </g>
   <g id="patch_45">
    <path d="M 738.292059 208.491741 
Q 737.483323 442.806916 736.678446 676.004064 
" clip-path="url(#p6a09889c2e)" style="fill: none; stroke: #000000; stroke-linecap: round"/>
    <path d="M 738.69224 672.010991 
L 736.678446 676.004064 
L 734.692264 671.997185 
L 738.69224 672.010991 
z
" clip-path="url(#p6a09889c2e)" style="stroke: #000000; stroke-linecap: round"/>
   </g>
   <g id="patch_46">
    <path d="M 741.020701 305.25546 
Q 754.256156 345.620849 767.143265 384.923857 
" clip-path="url(#p6a09889c2e)" style="fill: none; stroke: #000000; stroke-linecap: round"/>
    <path d="M 767.797432 380.499824 
L 767.143265 384.923857 
L 763.996539 381.746103 
L 767.797432 380.499824 
z
" clip-path="url(#p6a09889c2e)" style="stroke: #000000; stroke-linecap: round"/>
   </g>
   <g id="patch_47">
    <path d="M 761.948283 396.882798 
Q 620.074007 442.810478 479.263419 488.39382 
" clip-path="url(#p6a09889c2e)" style="fill: none; stroke: #000000; stroke-linecap: round"/>
    <path d="M 483.684954 489.064661 
L 479.263419 488.39382 
L 482.453013 485.259096 
L 483.684954 489.064661 
z
" clip-path="url(#p6a09889c2e)" style="stroke: #000000; stroke-linecap: round"/>
   </g>
   <g id="patch_48">
    <path d="M 762.944087 398.959003 
Q 621.752958 491.40498 481.497198 583.238517 
" clip-path="url(#p6a09889c2e)" style="fill: none; stroke: #000000; stroke-linecap: round"/>
    <path d="M 485.939246 582.720623 
L 481.497198 583.238517 
L 483.748112 579.374143 
L 485.939246 582.720623 
z
" clip-path="url(#p6a09889c2e)" style="stroke: #000000; stroke-linecap: round"/>
   </g>
   <g id="patch_49">
    <path d="M 766.494054 402.049581 
Q 632.655141 685.785084 499.293206 968.509404 
" clip-path="url(#p6a09889c2e)" style="fill: none; stroke: #000000; stroke-linecap: round"/>
    <path d="M 502.808555 965.74493 
L 499.293206 968.509404 
L 499.190836 964.03844 
L 502.808555 965.74493 
z
" clip-path="url(#p6a09889c2e)" style="stroke: #000000; stroke-linecap: round"/>
   </g>
   <g id="patch_50">
    <path d="M 476.851152 496.657755 
Q 533.699491 540.001663 589.658742 582.667688 
" clip-path="url(#p6a09889c2e)" style="fill: none; stroke: #000000; stroke-linecap: round"/>
    <path d="M 587.690482 578.651975 
L 589.658742 582.667688 
L 585.265216 581.832868 
L 587.690482 578.651975 
z
" clip-path="url(#p6a09889c2e)" style="stroke: #000000; stroke-linecap: round"/>
   </g>
   <g id="patch_51">
    <path d="M 470.260592 500.06273 
Q 471.639089 540.001966 472.97902 578.823834 
" clip-path="url(#p6a09889c2e)" style="fill: none; stroke: #000000; stroke-linecap: round"/>
    <path d="M 474.839853 574.757226 
L 472.97902 578.823834 
L 470.842233 574.895203 
L 474.839853 574.757226 
z
" clip-path="url(#p6a09889c2e)" style="stroke: #000000; stroke-linecap: round"/>
   </g>
   <g id="patch_52">
    <path d="M 604.534064 593.55272 
Q 667.039467 637.19057 728.628143 680.188412 
" clip-path="url(#p6a09889c2e)" style="fill: none; stroke: #000000; stroke-linecap: round"/>
    <path d="M 726.493242 676.258755 
L 728.628143 680.188412 
L 724.203477 679.538538 
L 726.493242 676.258755 
z
" clip-path="url(#p6a09889c2e)" style="stroke: #000000; stroke-linecap: round"/>
   </g>
   <g id="patch_53">
    <path d="M 329.356557 498.644979 
Q 302.238038 539.997906 275.732629 580.415903 
" clip-path="url(#p6a09889c2e)" style="fill: none; stroke: #000000; stroke-linecap: round"/>
    <path d="M 279.598616 578.16776 
L 275.732629 580.415903 
L 276.253707 575.974228 
L 279.598616 578.16776 
z
" clip-path="url(#p6a09889c2e)" style="stroke: #000000; stroke-linecap: round"/>
   </g>
   <g id="patch_54">
    <path d="M 336.82792 499.624503 
Q 414.612572 734.380428 492.045573 968.075062 
" clip-path="url(#p6a09889c2e)" style="fill: none; stroke: #000000; stroke-linecap: round"/>
    <path d="M 492.685964 963.649014 
L 492.045573 968.075062 
L 488.888969 964.90712 
L 492.685964 963.649014 
z
" clip-path="url(#p6a09889c2e)" style="stroke: #000000; stroke-linecap: round"/>
   </g>
   <g id="patch_55">
    <path d="M 729.141934 690.111044 
Q 652.362965 734.380083 576.552565 778.090666 
" clip-path="url(#p6a09889c2e)" style="fill: none; stroke: #000000; stroke-linecap: round"/>
    <path d="M 581.016821 777.825305 
L 576.552565 778.090666 
L 579.01883 774.360044 
L 581.016821 777.825305 
z
" clip-path="url(#p6a09889c2e)" style="stroke: #000000; stroke-linecap: round"/>
   </g>
   <g id="patch_56">
    <path d="M 730.986115 692.342963 
Q 694.713434 734.380138 659.171152 775.570839 
" clip-path="url(#p6a09889c2e)" style="fill: none; stroke: #000000; stroke-linecap: round"/>
    <path d="M 663.298523 773.848978 
L 659.171152 775.570839 
L 660.270086 771.235825 
L 663.298523 773.848978 
z
" clip-path="url(#p6a09889c2e)" style="stroke: #000000; stroke-linecap: round"/>
   </g>
   <g id="patch_57">
    <path d="M 568.080956 791.632978 
Q 568.080956 831.569512 568.080956 870.388013 
" clip-path="url(#p6a09889c2e)" style="fill: none; stroke: #000000; stroke-linecap: round"/>
    <path d="M 570.080956 866.388013 
L 568.080956 870.388013 
L 566.080956 866.388013 
L 570.080956 866.388013 
z
" clip-path="url(#p6a09889c2e)" style="stroke: #000000; stroke-linecap: round"/>
   </g>
   <g id="patch_58">
    <path d="M 476.07807 596.80198 
Q 489.669105 637.188998 502.903549 676.516373 
" clip-path="url(#p6a09889c2e)" style="fill: none; stroke: #000000; stroke-linecap: round"/>
    <path d="M 503.523317 672.087391 
L 502.903549 676.516373 
L 499.732224 673.363169 
L 503.523317 672.087391 
z
" clip-path="url(#p6a09889c2e)" style="stroke: #000000; stroke-linecap: round"/>
   </g>
   <g id="patch_59">
    <path d="M 972.379643 304.114289 
Q 772.717221 588.596385 573.697083 872.163345 
" clip-path="url(#p6a09889c2e)" style="fill: none; stroke: #000000; stroke-linecap: round"/>
    <path d="M 577.632029 870.03821 
L 573.697083 872.163345 
L 574.357942 867.740307 
L 577.632029 870.03821 
z
" clip-path="url(#p6a09889c2e)" style="stroke: #000000; stroke-linecap: round"/>
   </g>
   <g id="patch_60">
    <path d="M 513.244641 690.567809 
Q 579.403375 734.38081 644.629948 777.576497 
" clip-path="url(#p6a09889c2e)" style="fill: none; stroke: #000000; stroke-linecap: round"/>
    <path d="M 642.399235 773.700427 
L 644.629948 777.576497 
L 640.190664 777.035425 
L 642.399235 773.700427 
z
" clip-path="url(#p6a09889c2e)" style="stroke: #000000; stroke-linecap: round"/>
   </g>
   <g id="patch_61">
    <path d="M 647.092825 789.503386 
Q 610.430961 831.570918 574.503656 872.795585 
" clip-path="url(#p6a09889c2e)" style="fill: none; stroke: #000000; stroke-linecap: round"/>
    <path d="M 578.639457 871.094072 
L 574.503656 872.795585 
L 575.623926 868.466036 
L 578.639457 871.094072 
z
" clip-path="url(#p6a09889c2e)" style="stroke: #000000; stroke-linecap: round"/>
   </g>
   <g id="patch_62">
    <path d="M 500.319589 789.90083 
Q 531.599872 831.569084 562.208936 872.34321 
" clip-path="url(#p6a09889c2e)" style="fill: none; stroke: #000000; stroke-linecap: round"/>
    <path d="M 561.40697 867.943568 
L 562.208936 872.34321 
L 558.208043 870.344997 
L 561.40697 867.943568 
z
" clip-path="url(#p6a09889c2e)" style="stroke: #000000; stroke-linecap: round"/>
   </g>
   <g id="patch_63">
    <path d="M 495.120536 791.632978 
Q 495.120536 880.165394 495.120536 967.579777 
" clip-path="url(#p6a09889c2e)" style="fill: none; stroke: #000000; stroke-linecap: round"/>
    <path d="M 497.120536 963.579777 
L 495.120536 967.579777 
L 493.120536 963.579777 
L 497.120536 963.579777 
z
" clip-path="url(#p6a09889c2e)" style="stroke: #000000; stroke-linecap: round"/>
   </g>
   <g id="patch_64">
    <path d="M 562.881903 887.090913 
Q 531.60162 928.759167 500.992556 969.533293 
" clip-path="url(#p6a09889c2e)" style="fill: none; stroke: #000000; stroke-linecap: round"/>
    <path d="M 504.993449 967.53508 
L 500.992556 969.533293 
L 501.794522 965.133651 
L 504.993449 967.53508 
z
" clip-path="url(#p6a09889c2e)" style="stroke: #000000; stroke-linecap: round"/>
   </g>
   <g id="patch_65">
    <path d="M 568.080956 888.823061 
Q 568.080956 928.759595 568.080956 967.578095 
" clip-path="url(#p6a09889c2e)" style="fill: none; stroke: #000000; stroke-linecap: round"/>
    <path d="M 570.080956 963.578095 
L 568.080956 967.578095 
L 566.080956 963.578095 
L 570.080956 963.578095 
z
" clip-path="url(#p6a09889c2e)" style="stroke: #000000; stroke-linecap: round"/>
   </g>
   <g id="PathCollection_1">
    <defs>
     <path id="m6cca113c79" d="M 0 8.660254 
C 2.296726 8.660254 4.499694 7.747755 6.123724 6.123724 
C 7.747755 4.499694 8.660254 2.296726 8.660254 0 
C 8.660254 -2.296726 7.747755 -4.499694 6.123724 -6.123724 
C 4.499694 -7.747755 2.296726 -8.660254 0 -8.660254 
C -2.296726 -8.660254 -4.499694 -7.747755 -6.123724 -6.123724 
C -7.747755 -4.499694 -8.660254 -2.296726 -8.660254 0 
C -8.660254 2.296726 -7.747755 4.499694 -6.123724 6.123724 
C -4.499694 7.747755 -2.296726 8.660254 0 8.660254 
z
" style="stroke: #add8e6"/>
    </defs>
    <g clip-path="url(#p6a09889c2e)">
     <use xlink:href="#m6cca113c79" x="157.993074" y="199.834711" style="fill: #add8e6; stroke: #add8e6"/>
     <use xlink:href="#m6cca113c79" x="583.176216" y="102.644628" style="fill: #add8e6; stroke: #add8e6"/>
     <use xlink:href="#m6cca113c79" x="625.946118" y="199.834711" style="fill: #add8e6; stroke: #add8e6"/>
     <use xlink:href="#m6cca113c79" x="157.993074" y="297.024793" style="fill: #add8e6; stroke: #add8e6"/>
     <use xlink:href="#m6cca113c79" x="875.856524" y="199.834711" style="fill: #add8e6; stroke: #add8e6"/>
     <use xlink:href="#m6cca113c79" x="668.71602" y="297.024793" style="fill: #add8e6; stroke: #add8e6"/>
     <use xlink:href="#m6cca113c79" x="907.749453" y="297.024793" style="fill: #add8e6; stroke: #add8e6"/>
     <use xlink:href="#m6cca113c79" x="700.58379" y="394.214876" style="fill: #add8e6; stroke: #add8e6"/>
     <use xlink:href="#m6cca113c79" x="425.514617" y="782.975207" style="fill: #add8e6; stroke: #add8e6"/>
     <use xlink:href="#m6cca113c79" x="571.435459" y="491.404959" style="fill: #add8e6; stroke: #add8e6"/>
     <use xlink:href="#m6cca113c79" x="334.104435" y="297.024793" style="fill: #add8e6; stroke: #add8e6"/>
     <use xlink:href="#m6cca113c79" x="438.094" y="394.214876" style="fill: #add8e6; stroke: #add8e6"/>
     <use xlink:href="#m6cca113c79" x="225.921742" y="394.214876" style="fill: #add8e6; stroke: #add8e6"/>
     <use xlink:href="#m6cca113c79" x="738.321938" y="199.834711" style="fill: #add8e6; stroke: #add8e6"/>
     <use xlink:href="#m6cca113c79" x="738.321938" y="297.024793" style="fill: #add8e6; stroke: #add8e6"/>
     <use xlink:href="#m6cca113c79" x="770.189708" y="394.214876" style="fill: #add8e6; stroke: #add8e6"/>
     <use xlink:href="#m6cca113c79" x="102.644628" y="491.404959" style="fill: #add8e6; stroke: #add8e6"/>
     <use xlink:href="#m6cca113c79" x="469.96177" y="491.404959" style="fill: #add8e6; stroke: #add8e6"/>
     <use xlink:href="#m6cca113c79" x="597.43285" y="588.595041" style="fill: #add8e6; stroke: #add8e6"/>
     <use xlink:href="#m6cca113c79" x="334.104435" y="491.404959" style="fill: #add8e6; stroke: #add8e6"/>
     <use xlink:href="#m6cca113c79" x="736.644687" y="685.785124" style="fill: #add8e6; stroke: #add8e6"/>
     <use xlink:href="#m6cca113c79" x="568.080956" y="782.975207" style="fill: #add8e6; stroke: #add8e6"/>
     <use xlink:href="#m6cca113c79" x="473.316272" y="588.595041" style="fill: #add8e6; stroke: #add8e6"/>
     <use xlink:href="#m6cca113c79" x="977.355372" y="297.024793" style="fill: #add8e6; stroke: #add8e6"/>
     <use xlink:href="#m6cca113c79" x="506.022667" y="685.785124" style="fill: #add8e6; stroke: #add8e6"/>
     <use xlink:href="#m6cca113c79" x="652.782135" y="782.975207" style="fill: #add8e6; stroke: #add8e6"/>
     <use xlink:href="#m6cca113c79" x="270.368895" y="588.595041" style="fill: #add8e6; stroke: #add8e6"/>
     <use xlink:href="#m6cca113c79" x="495.120536" y="782.975207" style="fill: #add8e6; stroke: #add8e6"/>
     <use xlink:href="#m6cca113c79" x="568.080956" y="880.165289" style="fill: #add8e6; stroke: #add8e6"/>
     <use xlink:href="#m6cca113c79" x="495.120536" y="977.355372" style="fill: #add8e6; stroke: #add8e6"/>
     <use xlink:href="#m6cca113c79" x="568.080956" y="977.355372" style="fill: #add8e6; stroke: #add8e6"/>
     <use xlink:href="#m6cca113c79" x="378.551588" y="880.165289" style="fill: #add8e6; stroke: #add8e6"/>
    </g>
   </g>
  </g>
 </g>
 <defs>
  <clipPath id="p6a09889c2e">
   <rect x="10.8" y="10.8" width="1058.4" height="1058.4"/>
  </clipPath>
 </defs>
</svg>
