<?xml version="1.0" encoding="utf-8" standalone="no"?>
<!DOCTYPE svg PUBLIC "-//W3C//DTD SVG 1.1//EN"
  "http://www.w3.org/Graphics/SVG/1.1/DTD/svg11.dtd">
<svg xmlns:xlink="http://www.w3.org/1999/xlink" width="1080pt" height="1080pt" viewBox="0 0 1080 1080" xmlns="http://www.w3.org/2000/svg" version="1.1">
 <metadata>
  <rdf:RDF xmlns:dc="http://purl.org/dc/elements/1.1/" xmlns:cc="http://creativecommons.org/ns#" xmlns:rdf="http://www.w3.org/1999/02/22-rdf-syntax-ns#">
   <cc:Work>
    <dc:type rdf:resource="http://purl.org/dc/dcmitype/StillImage"/>
    <dc:date>2022-04-26T21:58:55.619346</dc:date>
    <dc:format>image/svg+xml</dc:format>
    <dc:creator>
     <cc:Agent>
      <dc:title>Matplotlib v3.5.1, https://matplotlib.org/</dc:title>
     </cc:Agent>
    </dc:creator>
   </cc:Work>
  </rdf:RDF>
 </metadata>
 <defs>
  <style type="text/css">*{stroke-linejoin: round; stroke-linecap: butt}</style>
 </defs>
 <g id="figure_1">
  <g id="patch_1">
   <path d="M 0 1080 
L 1080 1080 
L 1080 0 
L 0 0 
z
" style="fill: #ffffff"/>
  </g>
  <g id="axes_1">
   <g id="patch_2">
    <path d="M 635.859199 546.626799 
Q 580.101542 612.892415 525.063711 678.302549 
" clip-path="url(#p8a0374903c)" style="fill: none; stroke: #000000; stroke-linecap: round"/>
    <path d="M 529.169372 676.529545 
L 525.063711 678.302549 
L 526.108705 673.954217 
L 529.169372 676.529545 
z
" clip-path="url(#p8a0374903c)" style="stroke: #000000; stroke-linecap: round"/>
   </g>
   <g id="patch_3">
    <path d="M 633.400178 543.224419 
Q 459.793501 612.892328 287.224428 682.143849 
" clip-path="url(#p8a0374903c)" style="fill: none; stroke: #000000; stroke-linecap: round"/>
    <path d="M 291.681528 682.510257 
L 287.224428 682.143849 
L 290.191814 678.798013 
L 291.681528 682.510257 
z
" clip-path="url(#p8a0374903c)" style="stroke: #000000; stroke-linecap: round"/>
   </g>
   <g id="patch_4">
    <path d="M 913.304842 548.599934 
Q 921.211708 612.895026 928.982108 676.080442 
" clip-path="url(#p8a0374903c)" style="fill: none; stroke: #000000; stroke-linecap: round"/>
    <path d="M 930.478921 671.866234 
L 928.982108 676.080442 
L 926.508829 672.354467 
L 930.478921 671.866234 
z
" clip-path="url(#p8a0374903c)" style="stroke: #000000; stroke-linecap: round"/>
   </g>
   <g id="patch_5">
    <path d="M 518.767673 694.447344 
Q 518.767673 758.679766 518.767673 821.794155 
" clip-path="url(#p8a0374903c)" style="fill: none; stroke: #000000; stroke-linecap: round"/>
    <path d="M 520.767673 817.794155 
L 518.767673 821.794155 
L 516.767673 817.794155 
L 520.767673 817.794155 
z
" clip-path="url(#p8a0374903c)" style="stroke: #000000; stroke-linecap: round"/>
   </g>
   <g id="patch_6">
    <path d="M 696.624938 256.427958 
Q 609.353812 467.10523 522.510562 676.749584 
" clip-path="url(#p8a0374903c)" style="fill: none; stroke: #000000; stroke-linecap: round"/>
    <path d="M 525.889123 673.819511 
L 522.510562 676.749584 
L 522.193641 672.288692 
L 525.889123 673.819511 
z
" clip-path="url(#p8a0374903c)" style="stroke: #000000; stroke-linecap: round"/>
   </g>
   <g id="patch_7">
    <path d="M 705.706216 254.887488 
Q 765.044877 321.320775 823.638748 386.920223 
" clip-path="url(#p8a0374903c)" style="fill: none; stroke: #000000; stroke-linecap: round"/>
    <path d="M 822.465721 382.604669 
L 823.638748 386.920223 
L 819.482489 385.269312 
L 822.465721 382.604669 
z
" clip-path="url(#p8a0374903c)" style="stroke: #000000; stroke-linecap: round"/>
   </g>
   <g id="patch_8">
    <path d="M 694.683177 255.310144 
Q 588.594819 394.21352 483.185077 532.22837 
" clip-path="url(#p8a0374903c)" style="fill: none; stroke: #000000; stroke-linecap: round"/>
    <path d="M 487.202417 530.263431 
L 483.185077 532.22837 
L 484.02353 527.835536 
L 487.202417 530.263431 
z
" clip-path="url(#p8a0374903c)" style="stroke: #000000; stroke-linecap: round"/>
   </g>
   <g id="patch_9">
    <path d="M 697.368573 256.70046 
Q 609.352389 540.001635 521.667917 822.235118 
" clip-path="url(#p8a0374903c)" style="fill: none; stroke: #000000; stroke-linecap: round"/>
    <path d="M 524.76463 819.008608 
L 521.667917 822.235118 
L 520.944737 817.821841 
L 524.76463 819.008608 
z
" clip-path="url(#p8a0374903c)" style="stroke: #000000; stroke-linecap: round"/>
   </g>
   <g id="patch_10">
    <path d="M 694.011058 254.74512 
Q 631.526852 321.322903 569.807756 387.085451 
" clip-path="url(#p8a0374903c)" style="fill: none; stroke: #000000; stroke-linecap: round"/>
    <path d="M 574.003431 385.537448 
L 569.807756 387.085451 
L 571.086759 382.80011 
L 574.003431 385.537448 
z
" clip-path="url(#p8a0374903c)" style="stroke: #000000; stroke-linecap: round"/>
   </g>
   <g id="patch_11">
    <path d="M 400.756581 546.604554 
Q 456.961128 612.891382 512.442623 678.325452 
" clip-path="url(#p8a0374903c)" style="fill: none; stroke: #000000; stroke-linecap: round"/>
    <path d="M 511.381211 673.981099 
L 512.442623 678.325452 
L 508.330293 676.567969 
L 511.381211 673.981099 
z
" clip-path="url(#p8a0374903c)" style="stroke: #000000; stroke-linecap: round"/>
   </g>
   <g id="patch_12">
    <path d="M 131.702635 110.028871 
Q 261.167361 321.322323 390.04797 531.662463 
" clip-path="url(#p8a0374903c)" style="fill: none; stroke: #000000; stroke-linecap: round"/>
    <path d="M 389.663502 527.206884 
L 390.04797 531.662463 
L 386.252826 529.29669 
L 389.663502 527.206884 
z
" clip-path="url(#p8a0374903c)" style="stroke: #000000; stroke-linecap: round"/>
   </g>
   <g id="patch_13">
    <path d="M 129.349324 111.03101 
Q 202.665252 394.218175 275.700965 676.322991 
" clip-path="url(#p8a0374903c)" style="fill: none; stroke: #000000; stroke-linecap: round"/>
    <path d="M 276.6346 671.949396 
L 275.700965 676.322991 
L 272.762271 672.951926 
L 276.6346 671.949396 
z
" clip-path="url(#p8a0374903c)" style="stroke: #000000; stroke-linecap: round"/>
   </g>
   <g id="patch_14">
    <path d="M 135.177463 105.962476 
Q 478.666698 248.429936 821.123206 390.469056 
" clip-path="url(#p8a0374903c)" style="fill: none; stroke: #000000; stroke-linecap: round"/>
    <path d="M 818.194646 387.089184 
L 821.123206 390.469056 
L 816.662172 390.783981 
L 818.194646 387.089184 
z
" clip-path="url(#p8a0374903c)" style="stroke: #000000; stroke-linecap: round"/>
   </g>
   <g id="patch_15">
    <path d="M 131.464362 110.170127 
Q 168.695622 175.53839 205.37355 239.935147 
" clip-path="url(#p8a0374903c)" style="fill: none; stroke: #000000; stroke-linecap: round"/>
    <path d="M 205.13177 235.469552 
L 205.37355 239.935147 
L 201.656005 237.449214 
L 205.13177 235.469552 
z
" clip-path="url(#p8a0374903c)" style="stroke: #000000; stroke-linecap: round"/>
   </g>
   <g id="patch_16">
    <path d="M 414.69491 402.788116 
Q 405.536022 467.10828 396.534747 530.321576 
" clip-path="url(#p8a0374903c)" style="fill: none; stroke: #000000; stroke-linecap: round"/>
    <path d="M 399.078667 526.643469 
L 396.534747 530.321576 
L 395.118613 526.079576 
L 399.078667 526.643469 
z
" clip-path="url(#p8a0374903c)" style="stroke: #000000; stroke-linecap: round"/>
   </g>
   <g id="patch_17">
    <path d="M 408.401169 398.514843 
Q 288.53259 467.106086 169.634406 535.142049 
" clip-path="url(#p8a0374903c)" style="fill: none; stroke: #000000; stroke-linecap: round"/>
    <path d="M 174.099508 534.891315 
L 169.634406 535.142049 
L 172.11288 531.419527 
L 174.099508 534.891315 
z
" clip-path="url(#p8a0374903c)" style="stroke: #000000; stroke-linecap: round"/>
   </g>
   <g id="patch_18">
    <path d="M 419.275503 402.200847 
Q 446.582596 467.107495 473.456124 530.983597 
" clip-path="url(#p8a0374903c)" style="fill: none; stroke: #000000; stroke-linecap: round"/>
    <path d="M 473.748453 526.521026 
L 473.456124 530.983597 
L 470.061464 528.072191 
L 473.748453 526.521026 
z
" clip-path="url(#p8a0374903c)" style="stroke: #000000; stroke-linecap: round"/>
   </g>
   <g id="patch_19">
    <path d="M 421.988832 400.387876 
Q 487.629733 467.108181 552.486537 533.031496 
" clip-path="url(#p8a0374903c)" style="fill: none; stroke: #000000; stroke-linecap: round"/>
    <path d="M 551.106968 528.777464 
L 552.486537 533.031496 
L 548.25557 531.582732 
L 551.106968 528.777464 
z
" clip-path="url(#p8a0374903c)" style="stroke: #000000; stroke-linecap: round"/>
   </g>
   <g id="patch_20">
    <path d="M 161.144755 548.658884 
Q 161.144755 758.678363 161.144755 967.579809 
" clip-path="url(#p8a0374903c)" style="fill: none; stroke: #000000; stroke-linecap: round"/>
    <path d="M 163.144755 963.579809 
L 161.144755 967.579809 
L 159.144755 963.579809 
L 163.144755 963.579809 
z
" clip-path="url(#p8a0374903c)" style="stroke: #000000; stroke-linecap: round"/>
   </g>
   <g id="patch_21">
    <path d="M 107.110209 401.633598 
Q 190.397043 539.998993 273.107292 677.4065 
" clip-path="url(#p8a0374903c)" style="fill: none; stroke: #000000; stroke-linecap: round"/>
    <path d="M 272.757959 672.948029 
L 273.107292 677.4065 
L 269.330915 675.010883 
L 272.757959 672.948029 
z
" clip-path="url(#p8a0374903c)" style="stroke: #000000; stroke-linecap: round"/>
   </g>
   <g id="patch_22">
    <path d="M 105.870633 402.254235 
Q 131.895926 467.110514 157.504849 530.929181 
" clip-path="url(#p8a0374903c)" style="fill: none; stroke: #000000; stroke-linecap: round"/>
    <path d="M 157.871338 526.472087 
L 157.504849 530.929181 
L 154.159068 527.961734 
L 157.871338 526.472087 
z
" clip-path="url(#p8a0374903c)" style="stroke: #000000; stroke-linecap: round"/>
   </g>
   <g id="patch_23">
    <path d="M 103.509151 402.832606 
Q 131.894923 685.787435 160.169096 967.629814 
" clip-path="url(#p8a0374903c)" style="fill: none; stroke: #000000; stroke-linecap: round"/>
    <path d="M 161.759835 963.450155 
L 160.169096 967.629814 
L 157.779812 963.849427 
L 161.759835 963.450155 
z
" clip-path="url(#p8a0374903c)" style="stroke: #000000; stroke-linecap: round"/>
   </g>
   <g id="patch_24">
    <path d="M 110.712785 397.354764 
Q 289.944435 467.106426 468.134172 536.452605 
" clip-path="url(#p8a0374903c)" style="fill: none; stroke: #000000; stroke-linecap: round"/>
    <path d="M 465.131856 533.138076 
L 468.134172 536.452605 
L 463.681159 536.86574 
L 465.131856 533.138076 
z
" clip-path="url(#p8a0374903c)" style="stroke: #000000; stroke-linecap: round"/>
   </g>
   <g id="patch_25">
    <path d="M 510.748769 834.839157 
Q 339.956998 904.46249 170.200541 973.663777 
" clip-path="url(#p8a0374903c)" style="fill: none; stroke: #000000; stroke-linecap: round"/>
    <path d="M 174.659576 974.005845 
L 170.200541 973.663777 
L 173.149617 970.30179 
L 174.659576 974.005845 
z
" clip-path="url(#p8a0374903c)" style="stroke: #000000; stroke-linecap: round"/>
   </g>
   <g id="patch_26">
    <path d="M 832.816971 257.091972 
Q 831.569736 321.324395 830.344206 384.438993 
" clip-path="url(#p8a0374903c)" style="fill: none; stroke: #000000; stroke-linecap: round"/>
    <path d="M 832.421484 380.478575 
L 830.344206 384.438993 
L 828.422238 380.40092 
L 832.421484 380.478575 
z
" clip-path="url(#p8a0374903c)" style="stroke: #000000; stroke-linecap: round"/>
   </g>
   <g id="patch_27">
    <path d="M 837.122676 256.039782 
Q 872.615869 321.321695 907.575025 385.621363 
" clip-path="url(#p8a0374903c)" style="fill: none; stroke: #000000; stroke-linecap: round"/>
    <path d="M 907.421487 381.151864 
L 907.575025 385.621363 
L 903.907303 383.062494 
L 907.421487 381.151864 
z
" clip-path="url(#p8a0374903c)" style="stroke: #000000; stroke-linecap: round"/>
   </g>
   <g id="patch_28">
    <path d="M 699.938122 111.306848 
Q 699.938122 175.539271 699.938122 238.653659 
" clip-path="url(#p8a0374903c)" style="fill: none; stroke: #000000; stroke-linecap: round"/>
    <path d="M 701.938122 234.653659 
L 699.938122 238.653659 
L 697.938122 234.653659 
L 701.938122 234.653659 
z
" clip-path="url(#p8a0374903c)" style="stroke: #000000; stroke-linecap: round"/>
   </g>
   <g id="patch_29">
    <path d="M 692.157065 106.442969 
Q 401.292415 248.429244 111.432481 389.925065 
" clip-path="url(#p8a0374903c)" style="fill: none; stroke: #000000; stroke-linecap: round"/>
    <path d="M 115.904414 389.967652 
L 111.432481 389.925065 
L 114.14971 386.373071 
L 115.904414 389.967652 
z
" clip-path="url(#p8a0374903c)" style="stroke: #000000; stroke-linecap: round"/>
   </g>
   <g id="patch_30">
    <path d="M 705.035601 109.645144 
Q 806.092221 248.42912 906.490722 386.309282 
" clip-path="url(#p8a0374903c)" style="fill: none; stroke: #000000; stroke-linecap: round"/>
    <path d="M 905.752956 381.89842 
L 906.490722 386.309282 
L 902.519373 384.252978 
L 905.752956 381.89842 
z
" clip-path="url(#p8a0374903c)" style="stroke: #000000; stroke-linecap: round"/>
   </g>
   <g id="patch_31">
    <path d="M 692.953745 107.758764 
Q 500.840773 248.428708 309.629865 388.438137 
" clip-path="url(#p8a0374903c)" style="fill: none; stroke: #000000; stroke-linecap: round"/>
    <path d="M 314.038754 387.688671 
L 309.629865 388.438137 
L 311.675626 384.461347 
L 314.038754 387.688671 
z
" clip-path="url(#p8a0374903c)" style="stroke: #000000; stroke-linecap: round"/>
   </g>
   <g id="patch_32">
    <path d="M 703.018725 110.739044 
Q 838.647107 467.108385 973.877811 822.432808 
" clip-path="url(#p8a0374903c)" style="fill: none; stroke: #000000; stroke-linecap: round"/>
    <path d="M 974.324238 817.98301 
L 973.877811 822.432808 
L 970.585828 819.405788 
L 974.324238 817.98301 
z
" clip-path="url(#p8a0374903c)" style="stroke: #000000; stroke-linecap: round"/>
   </g>
   <g id="patch_33">
    <path d="M 641.435164 402.877096 
Q 641.435164 467.109519 641.435164 530.223907 
" clip-path="url(#p8a0374903c)" style="fill: none; stroke: #000000; stroke-linecap: round"/>
    <path d="M 643.435164 526.223907 
L 641.435164 530.223907 
L 639.435164 526.223907 
L 643.435164 526.223907 
z
" clip-path="url(#p8a0374903c)" style="stroke: #000000; stroke-linecap: round"/>
   </g>
   <g id="patch_34">
    <path d="M 649.059192 398.319087 
Q 776.84009 467.106839 903.636537 535.364635 
" clip-path="url(#p8a0374903c)" style="fill: none; stroke: #000000; stroke-linecap: round"/>
    <path d="M 901.062467 531.707565 
L 903.636537 535.364635 
L 899.166438 535.229649 
L 901.062467 531.707565 
z
" clip-path="url(#p8a0374903c)" style="stroke: #000000; stroke-linecap: round"/>
   </g>
   <g id="patch_35">
    <path d="M 468.497424 256.522499 
Q 443.751053 321.324226 419.403542 385.081486 
" clip-path="url(#p8a0374903c)" style="fill: none; stroke: #000000; stroke-linecap: round"/>
    <path d="M 422.698943 382.058189 
L 419.403542 385.081486 
L 418.962145 380.631186 
L 422.698943 382.058189 
z
" clip-path="url(#p8a0374903c)" style="stroke: #000000; stroke-linecap: round"/>
   </g>
   <g id="patch_36">
    <path d="M 478.157737 254.068871 
Q 556.511519 321.322316 634.016924 387.847574 
" clip-path="url(#p8a0374903c)" style="fill: none; stroke: #000000; stroke-linecap: round"/>
    <path d="M 632.284301 383.724709 
L 634.016924 387.847574 
L 629.679058 386.759953 
L 632.284301 383.724709 
z
" clip-path="url(#p8a0374903c)" style="stroke: #000000; stroke-linecap: round"/>
   </g>
   <g id="patch_37">
    <path d="M 471.756067 257.091972 
Q 474.418724 394.21836 477.059676 530.226925 
" clip-path="url(#p8a0374903c)" style="fill: none; stroke: #000000; stroke-linecap: round"/>
    <path d="M 478.981643 526.188851 
L 477.059676 530.226925 
L 474.982397 526.266506 
L 478.981643 526.188851 
z
" clip-path="url(#p8a0374903c)" style="stroke: #000000; stroke-linecap: round"/>
   </g>
   <g id="patch_38">
    <path d="M 358.64579 256.941818 
Q 319.196905 467.108476 279.954276 676.17629 
" clip-path="url(#p8a0374903c)" style="fill: none; stroke: #000000; stroke-linecap: round"/>
    <path d="M 282.657872 672.613908 
L 279.954276 676.17629 
L 278.726528 671.875983 
L 282.657872 672.613908 
z
" clip-path="url(#p8a0374903c)" style="stroke: #000000; stroke-linecap: round"/>
   </g>
   <g id="patch_39">
    <path d="M 367.928073 252.41384 
Q 500.835842 321.320497 632.751046 389.712554 
" clip-path="url(#p8a0374903c)" style="fill: none; stroke: #000000; stroke-linecap: round"/>
    <path d="M 630.120481 386.095909 
L 632.751046 389.712554 
L 628.279391 389.64702 
L 630.120481 386.095909 
z
" clip-path="url(#p8a0374903c)" style="stroke: #000000; stroke-linecap: round"/>
   </g>
   <g id="patch_40">
    <path d="M 357.017369 256.469111 
Q 330.990817 321.32539 305.380651 385.144064 
" clip-path="url(#p8a0374903c)" style="fill: none; stroke: #000000; stroke-linecap: round"/>
    <path d="M 308.726482 382.176672 
L 305.380651 385.144064 
L 305.014237 380.686964 
L 308.726482 382.176672 
z
" clip-path="url(#p8a0374903c)" style="stroke: #000000; stroke-linecap: round"/>
   </g>
   <g id="patch_41">
    <path d="M 300.357631 402.761422 
Q 289.945746 467.106664 279.71245 530.348228 
" clip-path="url(#p8a0374903c)" style="fill: none; stroke: #000000; stroke-linecap: round"/>
    <path d="M 282.325711 526.719058 
L 279.71245 530.348228 
L 278.377071 526.080118 
L 282.325711 526.719058 
z
" clip-path="url(#p8a0374903c)" style="stroke: #000000; stroke-linecap: round"/>
   </g>
   <g id="patch_42">
    <path d="M 592.221839 254.197892 
Q 749.005524 394.215239 904.95531 533.487863 
" clip-path="url(#p8a0374903c)" style="fill: none; stroke: #000000; stroke-linecap: round"/>
    <path d="M 903.304062 529.331737 
L 904.95531 533.487863 
L 900.639661 532.315186 
L 903.304062 529.331737 
z
" clip-path="url(#p8a0374903c)" style="stroke: #000000; stroke-linecap: round"/>
   </g>
   <g id="patch_43">
    <path d="M 577.473404 250.931207 
Q 344.205146 321.321911 112.007251 391.389624 
" clip-path="url(#p8a0374903c)" style="fill: none; stroke: #000000; stroke-linecap: round"/>
    <path d="M 116.414482 392.148779 
L 112.007251 391.389624 
L 115.258913 388.319332 
L 116.414482 392.148779 
z
" clip-path="url(#p8a0374903c)" style="stroke: #000000; stroke-linecap: round"/>
   </g>
   <g id="patch_44">
    <path d="M 570.715952 398.363577 
Q 696.63282 467.105956 821.568369 535.312598 
" clip-path="url(#p8a0374903c)" style="fill: none; stroke: #000000; stroke-linecap: round"/>
    <path d="M 819.015849 531.640454 
L 821.568369 535.312598 
L 817.099142 535.151328 
L 819.015849 531.640454 
z
" clip-path="url(#p8a0374903c)" style="stroke: #000000; stroke-linecap: round"/>
   </g>
   <g id="patch_45">
    <path d="M 562.892654 402.868198 
Q 561.229565 467.104789 559.595413 530.223719 
" clip-path="url(#p8a0374903c)" style="fill: none; stroke: #000000; stroke-linecap: round"/>
    <path d="M 561.698268 526.276822 
L 559.595413 530.223719 
L 557.699608 526.173297 
L 561.698268 526.276822 
z
" clip-path="url(#p8a0374903c)" style="stroke: #000000; stroke-linecap: round"/>
   </g>
   <g id="patch_46">
    <path d="M 558.720867 401.678088 
Q 520.181811 467.10957 482.210167 531.577701 
" clip-path="url(#p8a0374903c)" style="fill: none; stroke: #000000; stroke-linecap: round"/>
    <path d="M 485.963495 529.146132 
L 482.210167 531.577701 
L 482.516909 527.116098 
L 485.963495 529.146132 
z
" clip-path="url(#p8a0374903c)" style="stroke: #000000; stroke-linecap: round"/>
   </g>
   <g id="patch_47">
    <path d="M 569.074025 400.504662 
Q 770.238374 612.895036 970.633897 824.473679 
" clip-path="url(#p8a0374903c)" style="fill: none; stroke: #000000; stroke-linecap: round"/>
    <path d="M 969.335329 820.194226 
L 970.633897 824.473679 
L 966.431193 822.944861 
L 969.335329 820.194226 
z
" clip-path="url(#p8a0374903c)" style="stroke: #000000; stroke-linecap: round"/>
   </g>
   <g id="patch_48">
    <path d="M 912.247242 402.877096 
Q 912.247242 467.109519 912.247242 530.223907 
" clip-path="url(#p8a0374903c)" style="fill: none; stroke: #000000; stroke-linecap: round"/>
    <path d="M 914.247242 526.223907 
L 912.247242 530.223907 
L 910.247242 526.223907 
L 914.247242 526.223907 
z
" clip-path="url(#p8a0374903c)" style="stroke: #000000; stroke-linecap: round"/>
   </g>
   <g id="patch_49">
    <path d="M 907.997042 401.76262 
Q 871.200659 467.107709 834.952855 531.478602 
" clip-path="url(#p8a0374903c)" style="fill: none; stroke: #000000; stroke-linecap: round"/>
    <path d="M 838.658209 528.974534 
L 834.952855 531.478602 
L 835.172813 527.011878 
L 838.658209 528.974534 
z
" clip-path="url(#p8a0374903c)" style="stroke: #000000; stroke-linecap: round"/>
   </g>
   <g id="patch_50">
    <path d="M 904.033286 396.9677 
Q 694.745683 467.10833 486.518163 536.893683 
" clip-path="url(#p8a0374903c)" style="fill: none; stroke: #000000; stroke-linecap: round"/>
    <path d="M 490.946373 537.518943 
L 486.518163 536.893683 
L 489.675297 533.72627 
L 490.946373 537.518943 
z
" clip-path="url(#p8a0374903c)" style="stroke: #000000; stroke-linecap: round"/>
   </g>
   <g id="patch_51">
    <path d="M 192.48762 398.07884 
Q 330.994857 467.108837 468.501449 535.640126 
" clip-path="url(#p8a0374903c)" style="fill: none; stroke: #000000; stroke-linecap: round"/>
    <path d="M 465.813546 532.065888 
L 468.501449 535.640126 
L 464.029317 535.645906 
L 465.813546 532.065888 
z
" clip-path="url(#p8a0374903c)" style="stroke: #000000; stroke-linecap: round"/>
   </g>
   <g id="patch_52">
    <path d="M 958.044105 256.976298 
Q 935.837141 394.214895 913.808766 530.349814 
" clip-path="url(#p8a0374903c)" style="fill: none; stroke: #000000; stroke-linecap: round"/>
    <path d="M 916.422026 526.720645 
L 913.808766 530.349814 
L 912.473386 526.081704 
L 916.422026 526.720645 
z
" clip-path="url(#p8a0374903c)" style="stroke: #000000; stroke-linecap: round"/>
   </g>
   <g id="patch_53">
    <path d="M 951.554399 252.039011 
Q 800.430659 321.322519 650.323238 390.14009 
" clip-path="url(#p8a0374903c)" style="fill: none; stroke: #000000; stroke-linecap: round"/>
    <path d="M 654.792822 390.29115 
L 650.323238 390.14009 
L 653.125836 386.655059 
L 654.792822 390.29115 
z
" clip-path="url(#p8a0374903c)" style="stroke: #000000; stroke-linecap: round"/>
   </g>
   <g id="patch_54">
    <path d="M 956.761952 256.664868 
Q 935.837946 321.319836 915.258186 384.911087 
" clip-path="url(#p8a0374903c)" style="fill: none; stroke: #000000; stroke-linecap: round"/>
    <path d="M 918.392634 381.721223 
L 915.258186 384.911087 
L 914.586964 380.48961 
L 918.392634 381.721223 
z
" clip-path="url(#p8a0374903c)" style="stroke: #000000; stroke-linecap: round"/>
   </g>
   <g id="patch_55">
    <path d="M 959.693088 257.083074 
Q 968.391162 539.998459 977.054879 821.796338 
" clip-path="url(#p8a0374903c)" style="fill: none; stroke: #000000; stroke-linecap: round"/>
    <path d="M 978.931014 817.736767 
L 977.054879 821.796338 
L 974.932903 817.859687 
L 978.931014 817.736767 
z
" clip-path="url(#p8a0374903c)" style="stroke: #000000; stroke-linecap: round"/>
   </g>
   <g id="patch_56">
    <path d="M 823.30375 399.506972 
Q 735.795311 467.107022 649.171654 534.023581 
" clip-path="url(#p8a0374903c)" style="fill: none; stroke: #000000; stroke-linecap: round"/>
    <path d="M 653.559813 533.160992 
L 649.171654 534.023581 
L 651.114479 529.9955 
L 653.559813 533.160992 
z
" clip-path="url(#p8a0374903c)" style="stroke: #000000; stroke-linecap: round"/>
   </g>
   <g id="patch_57">
    <path d="M 834.404581 401.76262 
Q 871.200965 467.107709 907.448769 531.478602 
" clip-path="url(#p8a0374903c)" style="fill: none; stroke: #000000; stroke-linecap: round"/>
    <path d="M 907.22881 527.011878 
L 907.448769 531.478602 
L 903.743415 528.974534 
L 907.22881 527.011878 
z
" clip-path="url(#p8a0374903c)" style="stroke: #000000; stroke-linecap: round"/>
   </g>
   <g id="patch_58">
    <path d="M 205.069421 255.399125 
Q 156.427178 321.323686 108.448737 386.348599 
" clip-path="url(#p8a0374903c)" style="fill: none; stroke: #000000; stroke-linecap: round"/>
    <path d="M 112.432968 384.317367 
L 108.448737 386.348599 
L 109.21429 381.942475 
L 112.432968 384.317367 
z
" clip-path="url(#p8a0374903c)" style="stroke: #000000; stroke-linecap: round"/>
   </g>
   <g id="patch_59">
    <path d="M 214.816404 255.763943 
Q 255.977258 321.32406 296.543626 385.937293 
" clip-path="url(#p8a0374903c)" style="fill: none; stroke: #000000; stroke-linecap: round"/>
    <path d="M 296.110568 381.486174 
L 296.543626 385.937293 
L 292.722896 383.613069 
L 296.110568 381.486174 
z
" clip-path="url(#p8a0374903c)" style="stroke: #000000; stroke-linecap: round"/>
   </g>
   <g id="patch_60">
    <path d="M 208.721285 256.958502 
Q 197.473527 321.320465 186.418237 384.581086 
" clip-path="url(#p8a0374903c)" style="fill: none; stroke: #000000; stroke-linecap: round"/>
    <path d="M 189.076975 380.9851 
L 186.418237 384.581086 
L 185.136691 380.296504 
L 189.076975 380.9851 
z
" clip-path="url(#p8a0374903c)" style="stroke: #000000; stroke-linecap: round"/>
   </g>
   <g id="patch_61">
    <path d="M 285.556134 544.486825 
Q 398.459257 612.892614 510.406164 680.71905 
" clip-path="url(#p8a0374903c)" style="fill: none; stroke: #000000; stroke-linecap: round"/>
    <path d="M 508.021477 676.935762 
L 510.406164 680.71905 
L 505.948722 680.356826 
L 508.021477 676.935762 
z
" clip-path="url(#p8a0374903c)" style="stroke: #000000; stroke-linecap: round"/>
   </g>
   <g id="patch_62">
    <path d="M 143.172832 252.756413 
Q 388.553877 394.216297 632.966317 535.117789 
" clip-path="url(#p8a0374903c)" style="fill: none; stroke: #000000; stroke-linecap: round"/>
    <path d="M 630.499809 531.387328 
L 632.966317 535.117789 
L 628.502044 534.852719 
L 630.499809 531.387328 
z
" clip-path="url(#p8a0374903c)" style="stroke: #000000; stroke-linecap: round"/>
   </g>
   <g id="patch_63">
    <path d="M 136.421446 257.05638 
Q 148.406041 394.212972 160.293315 530.255773 
" clip-path="url(#p8a0374903c)" style="fill: none; stroke: #000000; stroke-linecap: round"/>
    <path d="M 161.937534 526.096862 
L 160.293315 530.255773 
L 157.952717 526.445051 
L 161.937534 526.096862 
z
" clip-path="url(#p8a0374903c)" style="stroke: #000000; stroke-linecap: round"/>
   </g>
   <g id="patch_64">
    <path d="M 133.753881 256.87842 
Q 119.155754 321.324038 104.804625 384.679247 
" clip-path="url(#p8a0374903c)" style="fill: none; stroke: #000000; stroke-linecap: round"/>
    <path d="M 107.638894 381.219924 
L 104.804625 384.679247 
L 103.737728 380.336238 
L 107.638894 381.219924 
z
" clip-path="url(#p8a0374903c)" style="stroke: #000000; stroke-linecap: round"/>
   </g>
   <g id="patch_65">
    <path d="M 932.840662 694.020239 
Q 953.764668 758.675208 974.344427 822.266459 
" clip-path="url(#p8a0374903c)" style="fill: none; stroke: #000000; stroke-linecap: round"/>
    <path d="M 975.01565 817.844982 
L 974.344427 822.266459 
L 971.209979 819.076595 
L 975.01565 817.844982 
z
" clip-path="url(#p8a0374903c)" style="stroke: #000000; stroke-linecap: round"/>
   </g>
   <g id="PathCollection_1">
    <defs>
     <path id="meccc6b984f" d="M 0 8.660254 
C 2.296726 8.660254 4.499694 7.747755 6.123724 6.123724 
C 7.747755 4.499694 8.660254 2.296726 8.660254 0 
C 8.660254 -2.296726 7.747755 -4.499694 6.123724 -6.123724 
C 4.499694 -7.747755 2.296726 -8.660254 0 -8.660254 
C -2.296726 -8.660254 -4.499694 -7.747755 -6.123724 -6.123724 
C -7.747755 -4.499694 -8.660254 -2.296726 -8.660254 0 
C -8.660254 2.296726 -7.747755 4.499694 -6.123724 6.123724 
C -4.499694 7.747755 -2.296726 8.660254 0 8.660254 
z
" style="stroke: #add8e6"/>
    </defs>
    <g clip-path="url(#p8a0374903c)">
     <use xlink:href="#meccc6b984f" x="641.435164" y="540" style="fill: #add8e6; stroke: #add8e6"/>
     <use xlink:href="#meccc6b984f" x="912.247242" y="540" style="fill: #add8e6; stroke: #add8e6"/>
     <use xlink:href="#meccc6b984f" x="518.767673" y="685.785124" style="fill: #add8e6; stroke: #add8e6"/>
     <use xlink:href="#meccc6b984f" x="699.938122" y="248.429752" style="fill: #add8e6; stroke: #add8e6"/>
     <use xlink:href="#meccc6b984f" x="395.156585" y="540" style="fill: #add8e6; stroke: #add8e6"/>
     <use xlink:href="#meccc6b984f" x="127.178126" y="102.644628" style="fill: #add8e6; stroke: #add8e6"/>
     <use xlink:href="#meccc6b984f" x="415.915699" y="394.214876" style="fill: #add8e6; stroke: #add8e6"/>
     <use xlink:href="#meccc6b984f" x="278.15067" y="685.785124" style="fill: #add8e6; stroke: #add8e6"/>
     <use xlink:href="#meccc6b984f" x="161.144755" y="540" style="fill: #add8e6; stroke: #add8e6"/>
     <use xlink:href="#meccc6b984f" x="102.644628" y="394.214876" style="fill: #add8e6; stroke: #add8e6"/>
     <use xlink:href="#meccc6b984f" x="161.144755" y="977.355372" style="fill: #add8e6; stroke: #add8e6"/>
     <use xlink:href="#meccc6b984f" x="518.767673" y="831.570248" style="fill: #add8e6; stroke: #add8e6"/>
     <use xlink:href="#meccc6b984f" x="832.98517" y="248.429752" style="fill: #add8e6; stroke: #add8e6"/>
     <use xlink:href="#meccc6b984f" x="699.938122" y="102.644628" style="fill: #add8e6; stroke: #add8e6"/>
     <use xlink:href="#meccc6b984f" x="641.435164" y="394.214876" style="fill: #add8e6; stroke: #add8e6"/>
     <use xlink:href="#meccc6b984f" x="471.587868" y="248.429752" style="fill: #add8e6; stroke: #add8e6"/>
     <use xlink:href="#meccc6b984f" x="360.24353" y="248.429752" style="fill: #add8e6; stroke: #add8e6"/>
     <use xlink:href="#meccc6b984f" x="301.740572" y="394.214876" style="fill: #add8e6; stroke: #add8e6"/>
     <use xlink:href="#meccc6b984f" x="585.762995" y="248.429752" style="fill: #add8e6; stroke: #add8e6"/>
     <use xlink:href="#meccc6b984f" x="830.154382" y="540" style="fill: #add8e6; stroke: #add8e6"/>
     <use xlink:href="#meccc6b984f" x="559.342304" y="540" style="fill: #add8e6; stroke: #add8e6"/>
     <use xlink:href="#meccc6b984f" x="563.116689" y="394.214876" style="fill: #add8e6; stroke: #add8e6"/>
     <use xlink:href="#meccc6b984f" x="477.249445" y="540" style="fill: #add8e6; stroke: #add8e6"/>
     <use xlink:href="#meccc6b984f" x="912.247242" y="394.214876" style="fill: #add8e6; stroke: #add8e6"/>
     <use xlink:href="#meccc6b984f" x="184.734657" y="394.214876" style="fill: #add8e6; stroke: #add8e6"/>
     <use xlink:href="#meccc6b984f" x="959.427046" y="248.429752" style="fill: #add8e6; stroke: #add8e6"/>
     <use xlink:href="#meccc6b984f" x="977.355372" y="831.570248" style="fill: #add8e6; stroke: #add8e6"/>
     <use xlink:href="#meccc6b984f" x="830.154382" y="394.214876" style="fill: #add8e6; stroke: #add8e6"/>
     <use xlink:href="#meccc6b984f" x="210.211751" y="248.429752" style="fill: #add8e6; stroke: #add8e6"/>
     <use xlink:href="#meccc6b984f" x="278.15067" y="540" style="fill: #add8e6; stroke: #add8e6"/>
     <use xlink:href="#meccc6b984f" x="135.66766" y="248.429752" style="fill: #add8e6; stroke: #add8e6"/>
     <use xlink:href="#meccc6b984f" x="930.175567" y="685.785124" style="fill: #add8e6; stroke: #add8e6"/>
    </g>
   </g>
  </g>
 </g>
 <defs>
  <clipPath id="p8a0374903c">
   <rect x="10.8" y="10.8" width="1058.4" height="1058.4"/>
  </clipPath>
 </defs>
</svg>
