<?xml version="1.0" encoding="utf-8" standalone="no"?>
<!DOCTYPE svg PUBLIC "-//W3C//DTD SVG 1.1//EN"
  "http://www.w3.org/Graphics/SVG/1.1/DTD/svg11.dtd">
<svg xmlns:xlink="http://www.w3.org/1999/xlink" width="1080pt" height="1080pt" viewBox="0 0 1080 1080" xmlns="http://www.w3.org/2000/svg" version="1.1">
 <metadata>
  <rdf:RDF xmlns:dc="http://purl.org/dc/elements/1.1/" xmlns:cc="http://creativecommons.org/ns#" xmlns:rdf="http://www.w3.org/1999/02/22-rdf-syntax-ns#">
   <cc:Work>
    <dc:type rdf:resource="http://purl.org/dc/dcmitype/StillImage"/>
    <dc:date>2022-04-26T20:59:37.200058</dc:date>
    <dc:format>image/svg+xml</dc:format>
    <dc:creator>
     <cc:Agent>
      <dc:title>Matplotlib v3.5.1, https://matplotlib.org/</dc:title>
     </cc:Agent>
    </dc:creator>
   </cc:Work>
  </rdf:RDF>
 </metadata>
 <defs>
  <style type="text/css">*{stroke-linejoin: round; stroke-linecap: butt}</style>
 </defs>
 <g id="figure_1">
  <g id="patch_1">
   <path d="M 0 1080 
L 1080 1080 
L 1080 0 
L 0 0 
z
" style="fill: #ffffff"/>
  </g>
  <g id="axes_1">
   <g id="patch_2">
    <path d="M 205.631886 360.932476 
Q 219.944356 415.040594 233.970921 468.067853 
" clip-path="url(#p77838c2f24)" style="fill: none; stroke: #000000; stroke-linecap: round"/>
    <path d="M 234.881537 463.689408 
L 233.970921 468.067853 
L 231.014535 464.712293 
L 234.881537 463.689408 
z
" clip-path="url(#p77838c2f24)" style="stroke: #000000; stroke-linecap: round"/>
   </g>
   <g id="patch_3">
    <path d="M 197.983609 359.300325 
Q 153.03306 415.039006 108.78436 469.907394 
" clip-path="url(#p77838c2f24)" style="fill: none; stroke: #000000; stroke-linecap: round"/>
    <path d="M 112.852196 468.049247 
L 108.78436 469.907394 
L 109.738544 465.538237 
L 112.852196 468.049247 
z
" clip-path="url(#p77838c2f24)" style="stroke: #000000; stroke-linecap: round"/>
   </g>
   <g id="patch_4">
    <path d="M 201.153755 360.917222 
Q 186.488354 415.039537 172.115359 468.082732 
" clip-path="url(#p77838c2f24)" style="fill: none; stroke: #000000; stroke-linecap: round"/>
    <path d="M 175.091891 464.74503 
L 172.115359 468.082732 
L 171.231117 463.698885 
L 175.091891 464.74503 
z
" clip-path="url(#p77838c2f24)" style="stroke: #000000; stroke-linecap: round"/>
   </g>
   <g id="patch_5">
    <path d="M 206.962369 360.467237 
Q 259.449033 477.523826 311.478264 593.560241 
" clip-path="url(#p77838c2f24)" style="fill: none; stroke: #000000; stroke-linecap: round"/>
    <path d="M 311.666645 589.092074 
L 311.478264 593.560241 
L 308.01676 590.728636 
L 311.666645 589.092074 
z
" clip-path="url(#p77838c2f24)" style="stroke: #000000; stroke-linecap: round"/>
   </g>
   <g id="patch_6">
    <path d="M 230.577884 483.864312 
Q 178.426918 539.999033 127.036922 595.314654 
" clip-path="url(#p77838c2f24)" style="fill: none; stroke: #000000; stroke-linecap: round"/>
    <path d="M 131.224702 593.745418 
L 127.036922 595.314654 
L 128.294201 591.022888 
L 131.224702 593.745418 
z
" clip-path="url(#p77838c2f24)" style="stroke: #000000; stroke-linecap: round"/>
   </g>
   <g id="patch_7">
    <path d="M 241.098195 484.838645 
Q 275.973696 539.998876 310.251716 594.214111 
" clip-path="url(#p77838c2f24)" style="fill: none; stroke: #000000; stroke-linecap: round"/>
    <path d="M 309.804562 589.764386 
L 310.251716 594.214111 
L 306.423643 591.901999 
L 309.804562 589.764386 
z
" clip-path="url(#p77838c2f24)" style="stroke: #000000; stroke-linecap: round"/>
   </g>
   <g id="patch_8">
    <path d="M 238.885984 485.837766 
Q 272.749175 602.477645 306.300647 718.043825 
" clip-path="url(#p77838c2f24)" style="fill: none; stroke: #000000; stroke-linecap: round"/>
    <path d="M 307.106098 713.644819 
L 306.300647 718.043825 
L 303.264713 714.76006 
L 307.106098 713.644819 
z
" clip-path="url(#p77838c2f24)" style="stroke: #000000; stroke-linecap: round"/>
   </g>
   <g id="patch_9">
    <path d="M 234.967851 486.046551 
Q 203.417909 664.957805 172.062131 842.768013 
" clip-path="url(#p77838c2f24)" style="fill: none; stroke: #000000; stroke-linecap: round"/>
    <path d="M 174.726398 839.176123 
L 172.062131 842.768013 
L 170.787179 838.481465 
L 174.726398 839.176123 
z
" clip-path="url(#p77838c2f24)" style="stroke: #000000; stroke-linecap: round"/>
   </g>
   <g id="patch_10">
    <path d="M 244.151232 481.515236 
Q 356.591459 539.999246 468.039801 597.967343 
" clip-path="url(#p77838c2f24)" style="fill: none; stroke: #000000; stroke-linecap: round"/>
    <path d="M 465.414021 594.347221 
L 468.039801 597.967343 
L 463.568235 597.895893 
L 465.414021 594.347221 
z
" clip-path="url(#p77838c2f24)" style="stroke: #000000; stroke-linecap: round"/>
   </g>
   <g id="patch_11">
    <path d="M 235.199843 486.089452 
Q 227.199837 540.002535 219.363936 592.809693 
" clip-path="url(#p77838c2f24)" style="fill: none; stroke: #000000; stroke-linecap: round"/>
    <path d="M 221.929394 589.146576 
L 219.363936 592.809693 
L 217.972718 588.559456 
L 221.929394 589.146576 
z
" clip-path="url(#p77838c2f24)" style="stroke: #000000; stroke-linecap: round"/>
   </g>
   <g id="patch_12">
    <path d="M 106.555553 485.242869 
Q 165.92881 602.476688 224.796925 718.713094 
" clip-path="url(#p77838c2f24)" style="fill: none; stroke: #000000; stroke-linecap: round"/>
    <path d="M 224.773903 714.241018 
L 224.796925 718.713094 
L 221.20545 716.048266 
L 224.773903 714.241018 
z
" clip-path="url(#p77838c2f24)" style="stroke: #000000; stroke-linecap: round"/>
   </g>
   <g id="patch_13">
    <path d="M 103.861926 486.097079 
Q 111.512596 539.999526 119.006152 592.795032 
" clip-path="url(#p77838c2f24)" style="fill: none; stroke: #000000; stroke-linecap: round"/>
    <path d="M 120.424197 588.553671 
L 119.006152 592.795032 
L 116.46389 589.115779 
L 120.424197 588.553671 
z
" clip-path="url(#p77838c2f24)" style="stroke: #000000; stroke-linecap: round"/>
   </g>
   <g id="patch_14">
    <path d="M 110.276458 481.609141 
Q 452.528298 664.958342 793.794614 847.779582 
" clip-path="url(#p77838c2f24)" style="fill: none; stroke: #000000; stroke-linecap: round"/>
    <path d="M 791.213137 844.127736 
L 793.794614 847.779582 
L 789.324251 847.653656 
L 791.213137 844.127736 
z
" clip-path="url(#p77838c2f24)" style="stroke: #000000; stroke-linecap: round"/>
   </g>
   <g id="patch_15">
    <path d="M 104.183756 486.040831 
Q 136.504217 664.957673 168.625929 842.774289 
" clip-path="url(#p77838c2f24)" style="fill: none; stroke: #000000; stroke-linecap: round"/>
    <path d="M 169.883002 838.482463 
L 168.625929 842.774289 
L 165.946712 839.193535 
L 169.883002 838.482463 
z
" clip-path="url(#p77838c2f24)" style="stroke: #000000; stroke-linecap: round"/>
   </g>
   <g id="patch_16">
    <path d="M 571.181189 735.533942 
Q 550.479675 789.919273 530.175896 843.259709 
" clip-path="url(#p77838c2f24)" style="fill: none; stroke: #000000; stroke-linecap: round"/>
    <path d="M 533.468041 840.232865 
L 530.175896 843.259709 
L 529.729708 838.809887 
L 533.468041 840.232865 
z
" clip-path="url(#p77838c2f24)" style="stroke: #000000; stroke-linecap: round"/>
   </g>
   <g id="patch_17">
    <path d="M 581.855575 731.596569 
Q 688.336497 789.916508 793.83683 847.699377 
" clip-path="url(#p77838c2f24)" style="fill: none; stroke: #000000; stroke-linecap: round"/>
    <path d="M 791.289312 844.023761 
L 793.83683 847.699377 
L 789.367827 847.532021 
L 791.289312 844.023761 
z
" clip-path="url(#p77838c2f24)" style="stroke: #000000; stroke-linecap: round"/>
   </g>
   <g id="patch_18">
    <path d="M 972.496193 109.817702 
Q 935.029987 165.124959 898.190828 219.506574 
" clip-path="url(#p77838c2f24)" style="fill: none; stroke: #000000; stroke-linecap: round"/>
    <path d="M 902.090058 217.316596 
L 898.190828 219.506574 
L 898.778383 215.073203 
L 902.090058 217.316596 
z
" clip-path="url(#p77838c2f24)" style="stroke: #000000; stroke-linecap: round"/>
   </g>
   <g id="patch_19">
    <path d="M 976.650218 111.273481 
Q 962.037961 290.081361 947.516767 467.774921 
" clip-path="url(#p77838c2f24)" style="fill: none; stroke: #000000; stroke-linecap: round"/>
    <path d="M 949.835918 463.951109 
L 947.516767 467.774921 
L 945.849208 463.625313 
L 949.835918 463.951109 
z
" clip-path="url(#p77838c2f24)" style="stroke: #000000; stroke-linecap: round"/>
   </g>
   <g id="patch_20">
    <path d="M 424.745521 236.034813 
Q 367.879527 477.520542 311.269802 717.918003 
" clip-path="url(#p77838c2f24)" style="fill: none; stroke: #000000; stroke-linecap: round"/>
    <path d="M 314.133411 714.482928 
L 311.269802 717.918003 
L 310.239908 713.566071 
L 314.133411 714.482928 
z
" clip-path="url(#p77838c2f24)" style="stroke: #000000; stroke-linecap: round"/>
   </g>
   <g id="patch_21">
    <path d="M 426.731005 236.264573 
Q 426.731005 539.998925 426.731005 842.615242 
" clip-path="url(#p77838c2f24)" style="fill: none; stroke: #000000; stroke-linecap: round"/>
    <path d="M 428.731005 838.615242 
L 426.731005 842.615242 
L 424.731005 838.615242 
L 428.731005 838.615242 
z
" clip-path="url(#p77838c2f24)" style="stroke: #000000; stroke-linecap: round"/>
   </g>
   <g id="patch_22">
    <path d="M 426.731005 236.260759 
Q 426.731005 602.478436 426.731005 967.578079 
" clip-path="url(#p77838c2f24)" style="fill: none; stroke: #000000; stroke-linecap: round"/>
    <path d="M 428.731005 963.578079 
L 426.731005 967.578079 
L 424.731005 963.578079 
L 428.731005 963.578079 
z
" clip-path="url(#p77838c2f24)" style="stroke: #000000; stroke-linecap: round"/>
   </g>
   <g id="patch_23">
    <path d="M 434.305227 231.796179 
Q 539.594157 290.081122 643.904925 347.824583 
" clip-path="url(#p77838c2f24)" style="fill: none; stroke: #000000; stroke-linecap: round"/>
    <path d="M 641.373984 344.137533 
L 643.904925 347.824583 
L 639.436721 347.637106 
L 641.373984 344.137533 
z
" clip-path="url(#p77838c2f24)" style="stroke: #000000; stroke-linecap: round"/>
   </g>
   <g id="patch_24">
    <path d="M 431.649175 234.727758 
Q 685.516295 602.479194 938.748255 969.310537 
" clip-path="url(#p77838c2f24)" style="fill: none; stroke: #000000; stroke-linecap: round"/>
    <path d="M 938.121746 964.882503 
L 938.748255 969.310537 
L 934.829922 967.154923 
L 938.121746 964.882503 
z
" clip-path="url(#p77838c2f24)" style="stroke: #000000; stroke-linecap: round"/>
   </g>
   <g id="patch_25">
    <path d="M 850.501097 110.786314 
Q 870.131993 165.12183 889.382988 218.405835 
" clip-path="url(#p77838c2f24)" style="fill: none; stroke: #000000; stroke-linecap: round"/>
    <path d="M 889.904814 213.964247 
L 889.382988 218.405835 
L 886.142813 215.323421 
L 889.904814 213.964247 
z
" clip-path="url(#p77838c2f24)" style="stroke: #000000; stroke-linecap: round"/>
   </g>
   <g id="patch_26">
    <path d="M 846.987895 111.289688 
Q 831.032556 352.565543 815.15099 592.725801 
" clip-path="url(#p77838c2f24)" style="fill: none; stroke: #000000; stroke-linecap: round"/>
    <path d="M 817.410571 588.866488 
L 815.15099 592.725801 
L 813.419289 588.602549 
L 817.410571 588.866488 
z
" clip-path="url(#p77838c2f24)" style="stroke: #000000; stroke-linecap: round"/>
   </g>
   <g id="patch_27">
    <path d="M 911.480968 111.198166 
Q 902.783024 165.125419 894.263107 217.948903 
" clip-path="url(#p77838c2f24)" style="fill: none; stroke: #000000; stroke-linecap: round"/>
    <path d="M 896.874519 214.318403 
L 894.263107 217.948903 
L 892.925554 213.681473 
L 896.874519 214.318403 
z
" clip-path="url(#p77838c2f24)" style="stroke: #000000; stroke-linecap: round"/>
   </g>
   <g id="patch_28">
    <path d="M 913.639434 111.267761 
Q 929.790328 290.081228 945.840647 467.781193 
" clip-path="url(#p77838c2f24)" style="fill: none; stroke: #000000; stroke-linecap: round"/>
    <path d="M 947.472713 463.617498 
L 945.840647 467.781193 
L 943.48893 463.977323 
L 947.472713 463.617498 
z
" clip-path="url(#p77838c2f24)" style="stroke: #000000; stroke-linecap: round"/>
   </g>
   <g id="patch_29">
    <path d="M 891.466652 236.17877 
Q 847.559232 540.002434 803.811725 842.719559 
" clip-path="url(#p77838c2f24)" style="fill: none; stroke: #000000; stroke-linecap: round"/>
    <path d="M 806.363283 839.046746 
L 803.811725 842.719559 
L 802.40441 838.474625 
L 806.363283 839.046746 
z
" clip-path="url(#p77838c2f24)" style="stroke: #000000; stroke-linecap: round"/>
   </g>
   <g id="patch_30">
    <path d="M 887.018082 234.133815 
Q 838.288562 290.082523 790.293346 345.188142 
" clip-path="url(#p77838c2f24)" style="fill: none; stroke: #000000; stroke-linecap: round"/>
    <path d="M 794.428632 343.485377 
L 790.293346 345.188142 
L 791.412306 340.858254 
L 794.428632 343.485377 
z
" clip-path="url(#p77838c2f24)" style="stroke: #000000; stroke-linecap: round"/>
   </g>
   <g id="patch_31">
    <path d="M 886.126476 233.237658 
Q 600.865109 477.522254 316.452947 721.07963 
" clip-path="url(#p77838c2f24)" style="fill: none; stroke: #000000; stroke-linecap: round"/>
    <path d="M 320.79205 719.996952 
L 316.452947 721.07963 
L 318.190267 716.958741 
L 320.79205 719.996952 
z
" clip-path="url(#p77838c2f24)" style="stroke: #000000; stroke-linecap: round"/>
   </g>
   <g id="patch_32">
    <path d="M 223.030602 609.476994 
Q 263.479662 664.960217 303.270086 719.540003 
" clip-path="url(#p77838c2f24)" style="fill: none; stroke: #000000; stroke-linecap: round"/>
    <path d="M 302.529799 715.129563 
L 303.270086 719.540003 
L 299.297562 717.485968 
L 302.529799 715.129563 
z
" clip-path="url(#p77838c2f24)" style="stroke: #000000; stroke-linecap: round"/>
   </g>
   <g id="patch_33">
    <path d="M 657.191545 359.818953 
Q 693.17437 415.04012 728.546818 469.32457 
" clip-path="url(#p77838c2f24)" style="fill: none; stroke: #000000; stroke-linecap: round"/>
    <path d="M 728.038717 464.881392 
L 728.546818 469.32457 
L 724.687415 467.065144 
L 728.038717 464.881392 
z
" clip-path="url(#p77838c2f24)" style="stroke: #000000; stroke-linecap: round"/>
   </g>
   <g id="patch_34">
    <path d="M 653.607222 361.145075 
Q 677.454605 540.000448 701.154225 717.747594 
" clip-path="url(#p77838c2f24)" style="fill: none; stroke: #000000; stroke-linecap: round"/>
    <path d="M 702.608026 713.518355 
L 701.154225 717.747594 
L 698.643114 714.04701 
L 702.608026 713.518355 
z
" clip-path="url(#p77838c2f24)" style="stroke: #000000; stroke-linecap: round"/>
   </g>
   <g id="patch_35">
    <path d="M 653.153423 361.19465 
Q 677.454428 664.957204 701.666274 967.605284 
" clip-path="url(#p77838c2f24)" style="fill: none; stroke: #000000; stroke-linecap: round"/>
    <path d="M 703.340924 963.458533 
L 701.666274 967.605284 
L 699.353663 963.777513 
L 703.340924 963.458533 
z
" clip-path="url(#p77838c2f24)" style="stroke: #000000; stroke-linecap: round"/>
   </g>
   <g id="patch_36">
    <path d="M 943.610084 485.600379 
Q 874.567736 664.956199 805.92704 843.268623 
" clip-path="url(#p77838c2f24)" style="fill: none; stroke: #000000; stroke-linecap: round"/>
    <path d="M 809.230516 840.25415 
L 805.92704 843.268623 
L 805.497548 838.817158 
L 809.230516 840.25415 
z
" clip-path="url(#p77838c2f24)" style="stroke: #000000; stroke-linecap: round"/>
   </g>
   <g id="patch_37">
    <path d="M 939.254174 481.904206 
Q 840.304576 539.999614 742.319118 597.528955 
" clip-path="url(#p77838c2f24)" style="fill: none; stroke: #000000; stroke-linecap: round"/>
    <path d="M 746.781145 597.228438 
L 742.319118 597.528955 
L 744.755921 593.779023 
L 746.781145 597.228438 
z
" clip-path="url(#p77838c2f24)" style="stroke: #000000; stroke-linecap: round"/>
   </g>
   <g id="patch_38">
    <path d="M 946.678436 486.180975 
Q 945.511063 727.438095 944.3491 967.577195 
" clip-path="url(#p77838c2f24)" style="fill: none; stroke: #000000; stroke-linecap: round"/>
    <path d="M 946.368431 963.586919 
L 944.3491 967.577195 
L 942.368478 963.567564 
L 946.368431 963.586919 
z
" clip-path="url(#p77838c2f24)" style="stroke: #000000; stroke-linecap: round"/>
   </g>
   <g id="patch_39">
    <path d="M 784.925075 361.161282 
Q 799.188563 477.521317 813.31602 592.771624 
" clip-path="url(#p77838c2f24)" style="fill: none; stroke: #000000; stroke-linecap: round"/>
    <path d="M 814.814482 588.558002 
L 813.31602 592.771624 
L 810.844199 589.044682 
L 814.814482 588.558002 
z
" clip-path="url(#p77838c2f24)" style="stroke: #000000; stroke-linecap: round"/>
   </g>
   <g id="patch_40">
    <path d="M 780.653953 360.60452 
Q 758.878464 415.043242 737.518203 468.443894 
" clip-path="url(#p77838c2f24)" style="fill: none; stroke: #000000; stroke-linecap: round"/>
    <path d="M 740.860719 465.472769 
L 737.518203 468.443894 
L 737.146813 463.987206 
L 740.860719 465.472769 
z
" clip-path="url(#p77838c2f24)" style="stroke: #000000; stroke-linecap: round"/>
   </g>
   <g id="patch_41">
    <path d="M 782.172463 361.054506 
Q 758.879108 477.521285 735.805016 592.891741 
" clip-path="url(#p77838c2f24)" style="fill: none; stroke: #000000; stroke-linecap: round"/>
    <path d="M 738.550642 589.36165 
L 735.805016 592.891741 
L 734.628319 588.577186 
L 738.550642 589.36165 
z
" clip-path="url(#p77838c2f24)" style="stroke: #000000; stroke-linecap: round"/>
   </g>
   <g id="patch_42">
    <path d="M 779.909539 360.261311 
Q 655.284857 602.478563 531.171686 843.701654 
" clip-path="url(#p77838c2f24)" style="fill: none; stroke: #000000; stroke-linecap: round"/>
    <path d="M 534.780135 841.059856 
L 531.171686 843.701654 
L 531.223317 839.229816 
L 534.780135 841.059856 
z
" clip-path="url(#p77838c2f24)" style="stroke: #000000; stroke-linecap: round"/>
   </g>
   <g id="patch_43">
    <path d="M 738.584174 484.800511 
Q 774.196857 540.00017 809.203424 594.260349 
" clip-path="url(#p77838c2f24)" style="fill: none; stroke: #000000; stroke-linecap: round"/>
    <path d="M 808.71551 589.814908 
L 809.203424 594.260349 
L 805.354323 591.983416 
L 808.71551 589.814908 
z
" clip-path="url(#p77838c2f24)" style="stroke: #000000; stroke-linecap: round"/>
   </g>
   <g id="patch_44">
    <path d="M 733.887497 486.180975 
Q 733.887497 539.998426 733.887497 592.697843 
" clip-path="url(#p77838c2f24)" style="fill: none; stroke: #000000; stroke-linecap: round"/>
    <path d="M 735.887497 588.697843 
L 733.887497 592.697843 
L 731.887497 588.697843 
L 735.887497 588.697843 
z
" clip-path="url(#p77838c2f24)" style="stroke: #000000; stroke-linecap: round"/>
   </g>
   <g id="patch_45">
    <path d="M 475.570064 611.06243 
Q 451.722681 789.917803 428.023061 967.664949 
" clip-path="url(#p77838c2f24)" style="fill: none; stroke: #000000; stroke-linecap: round"/>
    <path d="M 430.534172 963.964365 
L 428.023061 967.664949 
L 426.569261 963.43571 
L 430.534172 963.964365 
z
" clip-path="url(#p77838c2f24)" style="stroke: #000000; stroke-linecap: round"/>
   </g>
   <g id="patch_46">
    <path d="M 483.585181 607.751414 
Q 639.563345 727.43763 794.654514 846.443229 
" clip-path="url(#p77838c2f24)" style="fill: none; stroke: #000000; stroke-linecap: round"/>
    <path d="M 792.698622 842.421477 
L 794.654514 846.443229 
L 790.263577 845.594891 
L 792.698622 842.421477 
z
" clip-path="url(#p77838c2f24)" style="stroke: #000000; stroke-linecap: round"/>
   </g>
   <g id="patch_47">
    <path d="M 476.714476 611.139652 
Q 476.714476 664.957104 476.714476 717.656521 
" clip-path="url(#p77838c2f24)" style="fill: none; stroke: #000000; stroke-linecap: round"/>
    <path d="M 478.714476 713.656521 
L 476.714476 717.656521 
L 474.714476 713.656521 
L 478.714476 713.656521 
z
" clip-path="url(#p77838c2f24)" style="stroke: #000000; stroke-linecap: round"/>
   </g>
   <g id="patch_48">
    <path d="M 726.098061 606.264174 
Q 605.300985 664.958679 485.509518 723.164564 
" clip-path="url(#p77838c2f24)" style="fill: none; stroke: #000000; stroke-linecap: round"/>
    <path d="M 489.981366 723.215316 
L 485.509518 723.164564 
L 488.233228 719.617537 
L 489.981366 723.215316 
z
" clip-path="url(#p77838c2f24)" style="stroke: #000000; stroke-linecap: round"/>
   </g>
   <g id="patch_49">
    <path d="M 728.396868 609.1805 
Q 580.308509 789.918261 432.928738 969.79121 
" clip-path="url(#p77838c2f24)" style="fill: none; stroke: #000000; stroke-linecap: round"/>
    <path d="M 437.010887 967.964722 
L 432.928738 969.79121 
L 433.916838 965.429598 
L 437.010887 967.964722 
z
" clip-path="url(#p77838c2f24)" style="stroke: #000000; stroke-linecap: round"/>
   </g>
   <g id="patch_50">
    <path d="M 310.557328 609.606651 
Q 272.34527 664.960567 234.768372 719.394391 
" clip-path="url(#p77838c2f24)" style="fill: none; stroke: #000000; stroke-linecap: round"/>
    <path d="M 238.686705 717.238777 
L 234.768372 719.394391 
L 235.394881 714.966356 
L 238.686705 717.238777 
z
" clip-path="url(#p77838c2f24)" style="stroke: #000000; stroke-linecap: round"/>
   </g>
   <g id="patch_51">
    <path d="M 323.862284 604.63107 
Q 558.944518 664.958465 792.943808 725.007952 
" clip-path="url(#p77838c2f24)" style="fill: none; stroke: #000000; stroke-linecap: round"/>
    <path d="M 789.566487 722.07645 
L 792.943808 725.007952 
L 788.572214 725.950907 
L 789.566487 722.07645 
z
" clip-path="url(#p77838c2f24)" style="stroke: #000000; stroke-linecap: round"/>
   </g>
   <g id="patch_52">
    <path d="M 479.931491 735.480553 
Q 501.706979 789.919275 523.067241 843.319927 
" clip-path="url(#p77838c2f24)" style="fill: none; stroke: #000000; stroke-linecap: round"/>
    <path d="M 523.438631 838.863239 
L 523.067241 843.319927 
L 519.724724 840.348802 
L 523.438631 838.863239 
z
" clip-path="url(#p77838c2f24)" style="stroke: #000000; stroke-linecap: round"/>
   </g>
   <g id="patch_53">
    <path d="M 475.015972 735.930539 
Q 451.722616 852.397318 428.648525 967.767774 
" clip-path="url(#p77838c2f24)" style="fill: none; stroke: #000000; stroke-linecap: round"/>
    <path d="M 431.394151 964.237683 
L 428.648525 967.767774 
L 427.471828 963.453219 
L 431.394151 964.237683 
z
" clip-path="url(#p77838c2f24)" style="stroke: #000000; stroke-linecap: round"/>
   </g>
   <g id="patch_54">
    <path d="M 473.497461 735.480553 
Q 451.721973 789.919275 430.361712 843.319927 
" clip-path="url(#p77838c2f24)" style="fill: none; stroke: #000000; stroke-linecap: round"/>
    <path d="M 433.704228 840.348802 
L 430.361712 843.319927 
L 429.990321 838.863239 
L 433.704228 840.348802 
z
" clip-path="url(#p77838c2f24)" style="stroke: #000000; stroke-linecap: round"/>
   </g>
   <g id="patch_55">
    <path d="M 813.671594 611.101518 
Q 808.459341 664.961468 803.354781 717.708583 
" clip-path="url(#p77838c2f24)" style="fill: none; stroke: #000000; stroke-linecap: round"/>
    <path d="M 805.730778 713.919832 
L 803.354781 717.708583 
L 801.749378 713.534535 
L 805.730778 713.919832 
z
" clip-path="url(#p77838c2f24)" style="stroke: #000000; stroke-linecap: round"/>
   </g>
   <g id="patch_56">
    <path d="M 817.339142 610.66202 
Q 879.403816 789.917135 941.102692 968.115751 
" clip-path="url(#p77838c2f24)" style="fill: none; stroke: #000000; stroke-linecap: round"/>
    <path d="M 941.683894 963.681543 
L 941.102692 968.115751 
L 937.904046 964.990264 
L 941.683894 963.681543 
z
" clip-path="url(#p77838c2f24)" style="stroke: #000000; stroke-linecap: round"/>
   </g>
   <g id="patch_57">
    <path d="M 707.855259 734.199239 
Q 752.428916 789.91631 796.304143 844.760344 
" clip-path="url(#p77838c2f24)" style="fill: none; stroke: #000000; stroke-linecap: round"/>
    <path d="M 795.3671 840.387478 
L 796.304143 844.760344 
L 792.243625 842.886259 
L 795.3671 840.387478 
z
" clip-path="url(#p77838c2f24)" style="stroke: #000000; stroke-linecap: round"/>
   </g>
   <g id="patch_58">
    <path d="M 702.446281 736.09833 
Q 702.446281 852.395813 702.446281 967.575262 
" clip-path="url(#p77838c2f24)" style="fill: none; stroke: #000000; stroke-linecap: round"/>
    <path d="M 704.446281 963.575262 
L 702.446281 967.575262 
L 700.446281 963.575262 
L 704.446281 963.575262 
z
" clip-path="url(#p77838c2f24)" style="stroke: #000000; stroke-linecap: round"/>
   </g>
   <g id="patch_59">
    <path d="M 802.413223 736.09833 
Q 802.413223 789.915781 802.413223 842.615199 
" clip-path="url(#p77838c2f24)" style="fill: none; stroke: #000000; stroke-linecap: round"/>
    <path d="M 804.413223 838.615199 
L 802.413223 842.615199 
L 800.413223 838.615199 
L 804.413223 838.615199 
z
" clip-path="url(#p77838c2f24)" style="stroke: #000000; stroke-linecap: round"/>
   </g>
   <g id="patch_60">
    <path d="M 797.004245 859.157917 
Q 752.430588 914.874988 708.555361 969.719021 
" clip-path="url(#p77838c2f24)" style="fill: none; stroke: #000000; stroke-linecap: round"/>
    <path d="M 712.615879 967.844936 
L 708.555361 969.719021 
L 709.492404 965.346156 
L 712.615879 967.844936 
z
" clip-path="url(#p77838c2f24)" style="stroke: #000000; stroke-linecap: round"/>
   </g>
   <g id="patch_61">
    <path d="M 808.910531 858.118755 
Q 873.357521 914.876047 936.96547 970.894412 
" clip-path="url(#p77838c2f24)" style="fill: none; stroke: #000000; stroke-linecap: round"/>
    <path d="M 935.285464 966.749828 
L 936.96547 970.894412 
L 932.641799 969.751667 
L 935.285464 966.749828 
z
" clip-path="url(#p77838c2f24)" style="stroke: #000000; stroke-linecap: round"/>
   </g>
   <g id="patch_62">
    <path d="M 225.524885 735.274628 
Q 199.788661 789.920035 174.528806 843.553973 
" clip-path="url(#p77838c2f24)" style="fill: none; stroke: #000000; stroke-linecap: round"/>
    <path d="M 178.042491 840.787383 
L 174.528806 843.553973 
L 174.423746 839.083071 
L 178.042491 840.787383 
z
" clip-path="url(#p77838c2f24)" style="stroke: #000000; stroke-linecap: round"/>
   </g>
   <g id="patch_63">
    <path d="M 234.583333 734.229746 
Q 327.972977 852.396235 420.669379 969.68556 
" clip-path="url(#p77838c2f24)" style="fill: none; stroke: #000000; stroke-linecap: round"/>
    <path d="M 419.758279 965.307216 
L 420.669379 969.68556 
L 416.620044 967.787434 
L 419.758279 965.307216 
z
" clip-path="url(#p77838c2f24)" style="stroke: #000000; stroke-linecap: round"/>
   </g>
   <g id="patch_64">
    <path d="M 166.386854 485.578452 
Q 144.96959 539.999368 123.961761 593.379917 
" clip-path="url(#p77838c2f24)" style="fill: none; stroke: #000000; stroke-linecap: round"/>
    <path d="M 127.287664 590.390207 
L 123.961761 593.379917 
L 123.565534 588.925369 
L 127.287664 590.390207 
z
" clip-path="url(#p77838c2f24)" style="stroke: #000000; stroke-linecap: round"/>
   </g>
   <g id="patch_65">
    <path d="M 521.288969 859.157917 
Q 476.715312 914.874988 432.840085 969.719021 
" clip-path="url(#p77838c2f24)" style="fill: none; stroke: #000000; stroke-linecap: round"/>
    <path d="M 436.900603 967.844936 
L 432.840085 969.719021 
L 433.777128 965.346156 
L 436.900603 967.844936 
z
" clip-path="url(#p77838c2f24)" style="stroke: #000000; stroke-linecap: round"/>
   </g>
   <g id="PathCollection_1">
    <defs>
     <path id="m091562a20a" d="M 0 8.660254 
C 2.296726 8.660254 4.499694 7.747755 6.123724 6.123724 
C 7.747755 4.499694 8.660254 2.296726 8.660254 0 
C 8.660254 -2.296726 7.747755 -4.499694 6.123724 -6.123724 
C 4.499694 -7.747755 2.296726 -8.660254 0 -8.660254 
C -2.296726 -8.660254 -4.499694 -7.747755 -6.123724 -6.123724 
C -7.747755 -4.499694 -8.660254 -2.296726 -8.660254 0 
C -8.660254 2.296726 -7.747755 4.499694 -6.123724 6.123724 
C -4.499694 7.747755 -2.296726 8.660254 0 8.660254 
z
" style="stroke: #add8e6"/>
    </defs>
    <g clip-path="url(#p77838c2f24)">
     <use xlink:href="#m091562a20a" x="203.417755" y="352.561983" style="fill: #add8e6; stroke: #add8e6"/>
     <use xlink:href="#m091562a20a" x="236.471341" y="477.520661" style="fill: #add8e6; stroke: #add8e6"/>
     <use xlink:href="#m091562a20a" x="102.644628" y="477.520661" style="fill: #add8e6; stroke: #add8e6"/>
     <use xlink:href="#m091562a20a" x="574.262863" y="727.438017" style="fill: #add8e6; stroke: #add8e6"/>
     <use xlink:href="#m091562a20a" x="977.355372" y="102.644628" style="fill: #add8e6; stroke: #add8e6"/>
     <use xlink:href="#m091562a20a" x="426.731005" y="227.603306" style="fill: #add8e6; stroke: #add8e6"/>
     <use xlink:href="#m091562a20a" x="847.559584" y="102.644628" style="fill: #add8e6; stroke: #add8e6"/>
     <use xlink:href="#m091562a20a" x="912.860571" y="102.644628" style="fill: #add8e6; stroke: #add8e6"/>
     <use xlink:href="#m091562a20a" x="892.705945" y="227.603306" style="fill: #add8e6; stroke: #add8e6"/>
     <use xlink:href="#m091562a20a" x="217.929086" y="602.479339" style="fill: #add8e6; stroke: #add8e6"/>
     <use xlink:href="#m091562a20a" x="309.027993" y="727.438017" style="fill: #add8e6; stroke: #add8e6"/>
     <use xlink:href="#m091562a20a" x="652.46281" y="352.561983" style="fill: #add8e6; stroke: #add8e6"/>
     <use xlink:href="#m091562a20a" x="946.720341" y="477.520661" style="fill: #add8e6; stroke: #add8e6"/>
     <use xlink:href="#m091562a20a" x="783.870968" y="352.561983" style="fill: #add8e6; stroke: #add8e6"/>
     <use xlink:href="#m091562a20a" x="733.887497" y="477.520661" style="fill: #add8e6; stroke: #add8e6"/>
     <use xlink:href="#m091562a20a" x="476.714476" y="602.479339" style="fill: #add8e6; stroke: #add8e6"/>
     <use xlink:href="#m091562a20a" x="733.887497" y="602.479339" style="fill: #add8e6; stroke: #add8e6"/>
     <use xlink:href="#m091562a20a" x="315.477473" y="602.479339" style="fill: #add8e6; stroke: #add8e6"/>
     <use xlink:href="#m091562a20a" x="476.714476" y="727.438017" style="fill: #add8e6; stroke: #add8e6"/>
     <use xlink:href="#m091562a20a" x="814.505998" y="602.479339" style="fill: #add8e6; stroke: #add8e6"/>
     <use xlink:href="#m091562a20a" x="702.446281" y="727.438017" style="fill: #add8e6; stroke: #add8e6"/>
     <use xlink:href="#m091562a20a" x="802.413223" y="727.438017" style="fill: #add8e6; stroke: #add8e6"/>
     <use xlink:href="#m091562a20a" x="802.413223" y="852.396694" style="fill: #add8e6; stroke: #add8e6"/>
     <use xlink:href="#m091562a20a" x="944.301786" y="977.355372" style="fill: #add8e6; stroke: #add8e6"/>
     <use xlink:href="#m091562a20a" x="702.446281" y="977.355372" style="fill: #add8e6; stroke: #add8e6"/>
     <use xlink:href="#m091562a20a" x="229.215676" y="727.438017" style="fill: #add8e6; stroke: #add8e6"/>
     <use xlink:href="#m091562a20a" x="170.36417" y="852.396694" style="fill: #add8e6; stroke: #add8e6"/>
     <use xlink:href="#m091562a20a" x="169.557985" y="477.520661" style="fill: #add8e6; stroke: #add8e6"/>
     <use xlink:href="#m091562a20a" x="426.731005" y="852.396694" style="fill: #add8e6; stroke: #add8e6"/>
     <use xlink:href="#m091562a20a" x="526.697947" y="852.396694" style="fill: #add8e6; stroke: #add8e6"/>
     <use xlink:href="#m091562a20a" x="426.731005" y="977.355372" style="fill: #add8e6; stroke: #add8e6"/>
     <use xlink:href="#m091562a20a" x="120.380698" y="602.479339" style="fill: #add8e6; stroke: #add8e6"/>
    </g>
   </g>
  </g>
 </g>
 <defs>
  <clipPath id="p77838c2f24">
   <rect x="10.8" y="10.8" width="1058.4" height="1058.4"/>
  </clipPath>
 </defs>
</svg>
