<?xml version="1.0" encoding="utf-8" standalone="no"?>
<!DOCTYPE svg PUBLIC "-//W3C//DTD SVG 1.1//EN"
  "http://www.w3.org/Graphics/SVG/1.1/DTD/svg11.dtd">
<svg xmlns:xlink="http://www.w3.org/1999/xlink" width="1080pt" height="1080pt" viewBox="0 0 1080 1080" xmlns="http://www.w3.org/2000/svg" version="1.1">
 <metadata>
  <rdf:RDF xmlns:dc="http://purl.org/dc/elements/1.1/" xmlns:cc="http://creativecommons.org/ns#" xmlns:rdf="http://www.w3.org/1999/02/22-rdf-syntax-ns#">
   <cc:Work>
    <dc:type rdf:resource="http://purl.org/dc/dcmitype/StillImage"/>
    <dc:date>2022-07-26T12:20:22.482580</dc:date>
    <dc:format>image/svg+xml</dc:format>
    <dc:creator>
     <cc:Agent>
      <dc:title>Matplotlib v3.5.1, https://matplotlib.org/</dc:title>
     </cc:Agent>
    </dc:creator>
   </cc:Work>
  </rdf:RDF>
 </metadata>
 <defs>
  <style type="text/css">*{stroke-linejoin: round; stroke-linecap: butt}</style>
 </defs>
 <g id="figure_1">
  <g id="patch_1">
   <path d="M 0 1080 
L 1080 1080 
L 1080 0 
L 0 0 
z
" style="fill: #ffffff"/>
  </g>
  <g id="axes_1">
   <g id="patch_2">
    <path d="M 658.515874 513.782846 
Q 562.043966 674.569999 466.14728 834.398444 
" clip-path="url(#pfc1f664101)" style="fill: none; stroke: #000000; stroke-linecap: round"/>
    <path d="M 469.920245 831.997458 
L 466.14728 834.398444 
L 466.49027 829.939481 
L 469.920245 831.997458 
z
" clip-path="url(#pfc1f664101)" style="stroke: #000000; stroke-linecap: round"/>
   </g>
   <g id="patch_3">
    <path d="M 663.180172 515.014879 
Q 667.031481 674.56975 670.855811 833.006912 
" clip-path="url(#pfc1f664101)" style="fill: none; stroke: #000000; stroke-linecap: round"/>
    <path d="M 672.758706 828.959815 
L 670.855811 833.006912 
L 668.75987 829.056339 
L 672.758706 828.959815 
z
" clip-path="url(#pfc1f664101)" style="stroke: #000000; stroke-linecap: round"/>
   </g>
   <g id="patch_4">
    <path d="M 660.893972 514.762826 
Q 638.029797 607.283341 615.433849 698.718474 
" clip-path="url(#pfc1f664101)" style="fill: none; stroke: #000000; stroke-linecap: round"/>
    <path d="M 618.335073 695.315108 
L 615.433849 698.718474 
L 614.451891 694.355475 
L 618.335073 695.315108 
z
" clip-path="url(#pfc1f664101)" style="stroke: #000000; stroke-linecap: round"/>
   </g>
   <g id="patch_5">
    <path d="M 669.598553 511.928123 
Q 702.993038 539.998961 735.531685 567.350396 
" clip-path="url(#pfc1f664101)" style="fill: none; stroke: #000000; stroke-linecap: round"/>
    <path d="M 733.756652 563.245611 
L 735.531685 567.350396 
L 731.182837 566.307551 
L 733.756652 563.245611 
z
" clip-path="url(#pfc1f664101)" style="stroke: #000000; stroke-linecap: round"/>
   </g>
   <g id="patch_6">
    <path d="M 744.200878 582.223319 
Q 766.219394 741.858195 788.085145 900.385523 
" clip-path="url(#pfc1f664101)" style="fill: none; stroke: #000000; stroke-linecap: round"/>
    <path d="M 789.51984 896.149765 
L 788.085145 900.385523 
L 785.557355 896.696312 
L 789.51984 896.149765 
z
" clip-path="url(#pfc1f664101)" style="stroke: #000000; stroke-linecap: round"/>
   </g>
   <g id="patch_7">
    <path d="M 749.341127 579.558534 
Q 778.979835 607.285178 807.802077 634.248027 
" clip-path="url(#pfc1f664101)" style="fill: none; stroke: #000000; stroke-linecap: round"/>
    <path d="M 806.247314 630.054853 
L 807.802077 634.248027 
L 803.514679 632.975933 
L 806.247314 630.054853 
z
" clip-path="url(#pfc1f664101)" style="stroke: #000000; stroke-linecap: round"/>
   </g>
   <g id="patch_8">
    <path d="M 751.284793 576.22075 
Q 850.905714 607.285462 949.45929 638.017345 
" clip-path="url(#pfc1f664101)" style="fill: none; stroke: #000000; stroke-linecap: round"/>
    <path d="M 946.236025 634.917255 
L 949.45929 638.017345 
L 945.045259 638.735903 
L 946.236025 634.917255 
z
" clip-path="url(#pfc1f664101)" style="stroke: #000000; stroke-linecap: round"/>
   </g>
   <g id="patch_9">
    <path d="M 839.933347 312.645207 
Q 897.889587 472.715457 955.465203 631.734458 
" clip-path="url(#pfc1f664101)" style="fill: none; stroke: #000000; stroke-linecap: round"/>
    <path d="M 955.983976 627.292513 
L 955.465203 631.734458 
L 952.22291 628.654273 
L 955.983976 627.292513 
z
" clip-path="url(#pfc1f664101)" style="stroke: #000000; stroke-linecap: round"/>
   </g>
   <g id="patch_10">
    <path d="M 687.17857 240.612843 
Q 758.097323 270.857726 827.98766 300.664018 
" clip-path="url(#pfc1f664101)" style="fill: none; stroke: #000000; stroke-linecap: round"/>
    <path d="M 825.092864 297.255183 
L 827.98766 300.664018 
L 823.523715 300.934553 
L 825.092864 297.255183 
z
" clip-path="url(#pfc1f664101)" style="stroke: #000000; stroke-linecap: round"/>
   </g>
   <g id="patch_11">
    <path d="M 681.380178 245.597445 
Q 687.912386 270.855416 694.164658 295.030966 
" clip-path="url(#pfc1f664101)" style="fill: none; stroke: #000000; stroke-linecap: round"/>
    <path d="M 695.099425 290.657613 
L 694.164658 295.030966 
L 691.226836 291.659141 
L 695.099425 290.657613 
z
" clip-path="url(#pfc1f664101)" style="stroke: #000000; stroke-linecap: round"/>
   </g>
   <g id="patch_12">
    <path d="M 675.44605 245.017362 
Q 630.487385 338.146395 586.014783 430.268581 
" clip-path="url(#pfc1f664101)" style="fill: none; stroke: #000000; stroke-linecap: round"/>
    <path d="M 589.554878 427.535867 
L 586.014783 430.268581 
L 585.952669 425.796876 
L 589.554878 427.535867 
z
" clip-path="url(#pfc1f664101)" style="stroke: #000000; stroke-linecap: round"/>
   </g>
   <g id="patch_13">
    <path d="M 673.016644 243.265308 
Q 506.940281 405.428059 341.663856 566.809721 
" clip-path="url(#pfc1f664101)" style="fill: none; stroke: #000000; stroke-linecap: round"/>
    <path d="M 345.923056 565.44619 
L 341.663856 566.809721 
L 343.128551 562.584243 
L 345.923056 565.44619 
z
" clip-path="url(#pfc1f664101)" style="stroke: #000000; stroke-linecap: round"/>
   </g>
   <g id="patch_14">
    <path d="M 336.697098 582.057508 
Q 342.786088 607.283425 348.612743 631.422522 
" clip-path="url(#pfc1f664101)" style="fill: none; stroke: #000000; stroke-linecap: round"/>
    <path d="M 349.618349 627.064913 
L 348.612743 631.422522 
L 345.73002 628.003471 
L 349.618349 627.064913 
z
" clip-path="url(#pfc1f664101)" style="stroke: #000000; stroke-linecap: round"/>
   </g>
   <g id="patch_15">
    <path d="M 326.349634 576.054426 
Q 218.656441 607.285108 112.037042 638.204393 
" clip-path="url(#pfc1f664101)" style="fill: none; stroke: #000000; stroke-linecap: round"/>
    <path d="M 116.435805 639.011166 
L 112.037042 638.204393 
L 115.321718 635.169446 
L 116.435805 639.011166 
z
" clip-path="url(#pfc1f664101)" style="stroke: #000000; stroke-linecap: round"/>
   </g>
   <g id="patch_16">
    <path d="M 110.190264 645.177137 
Q 281.879246 741.855816 452.594029 837.98592 
" clip-path="url(#pfc1f664101)" style="fill: none; stroke: #000000; stroke-linecap: round"/>
    <path d="M 450.089948 834.280575 
L 452.594029 837.98592 
L 448.127305 837.765978 
L 450.089948 834.280575 
z
" clip-path="url(#pfc1f664101)" style="stroke: #000000; stroke-linecap: round"/>
   </g>
   <g id="patch_17">
    <path d="M 110.797514 643.847055 
Q 196.612119 674.570355 281.374116 704.916802 
" clip-path="url(#pfc1f664101)" style="fill: none; stroke: #000000; stroke-linecap: round"/>
    <path d="M 278.282332 701.685569 
L 281.374116 704.916802 
L 276.934059 705.45149 
L 278.282332 701.685569 
z
" clip-path="url(#pfc1f664101)" style="stroke: #000000; stroke-linecap: round"/>
   </g>
   <g id="patch_18">
    <path d="M 429.2334 783.133546 
Q 443.13422 809.141633 456.508025 834.163691 
" clip-path="url(#pfc1f664101)" style="fill: none; stroke: #000000; stroke-linecap: round"/>
    <path d="M 456.386386 829.693209 
L 456.508025 834.163691 
L 452.858656 831.578712 
L 456.386386 829.693209 
z
" clip-path="url(#pfc1f664101)" style="stroke: #000000; stroke-linecap: round"/>
   </g>
   <g id="patch_19">
    <path d="M 433.502733 777.783441 
Q 548.119093 809.140872 661.657051 840.203267 
" clip-path="url(#pfc1f664101)" style="fill: none; stroke: #000000; stroke-linecap: round"/>
    <path d="M 658.326614 837.218608 
L 661.657051 840.203267 
L 657.271061 841.076821 
L 658.326614 837.218608 
z
" clip-path="url(#pfc1f664101)" style="stroke: #000000; stroke-linecap: round"/>
   </g>
   <g id="patch_20">
    <path d="M 678.621001 847.065804 
Q 730.255833 876.426903 780.918769 905.235355 
" clip-path="url(#pfc1f664101)" style="fill: none; stroke: #000000; stroke-linecap: round"/>
    <path d="M 778.43022 901.519561 
L 780.918769 905.235355 
L 776.453005 904.996718 
L 778.43022 901.519561 
z
" clip-path="url(#pfc1f664101)" style="stroke: #000000; stroke-linecap: round"/>
   </g>
   <g id="patch_21">
    <path d="M 796.461006 915.110999 
Q 836.402976 943.711536 875.435925 971.661166 
" clip-path="url(#pfc1f664101)" style="fill: none; stroke: #000000; stroke-linecap: round"/>
    <path d="M 873.348088 967.706304 
L 875.435925 971.661166 
L 871.019333 970.958518 
L 873.348088 967.706304 
z
" clip-path="url(#pfc1f664101)" style="stroke: #000000; stroke-linecap: round"/>
   </g>
   <g id="patch_22">
    <path d="M 893.192188 579.558534 
Q 922.830897 607.285178 951.653139 634.248027 
" clip-path="url(#pfc1f664101)" style="fill: none; stroke: #000000; stroke-linecap: round"/>
    <path d="M 950.098376 630.054853 
L 951.653139 634.248027 
L 947.365741 632.975933 
L 950.098376 630.054853 
z
" clip-path="url(#pfc1f664101)" style="stroke: #000000; stroke-linecap: round"/>
   </g>
   <g id="patch_23">
    <path d="M 884.458842 581.961512 
Q 838.144605 741.85654 792.141424 900.677677 
" clip-path="url(#pfc1f664101)" style="fill: none; stroke: #000000; stroke-linecap: round"/>
    <path d="M 795.175332 897.392041 
L 792.141424 900.677677 
L 791.33326 896.279169 
L 795.175332 897.392041 
z
" clip-path="url(#pfc1f664101)" style="stroke: #000000; stroke-linecap: round"/>
   </g>
   <g id="patch_24">
    <path d="M 787.913137 243.944467 
Q 809.721834 270.857434 830.826637 296.901763 
" clip-path="url(#pfc1f664101)" style="fill: none; stroke: #000000; stroke-linecap: round"/>
    <path d="M 829.862177 292.534863 
L 830.826637 296.901763 
L 826.754441 295.053191 
L 829.862177 292.534863 
z
" clip-path="url(#pfc1f664101)" style="stroke: #000000; stroke-linecap: round"/>
   </g>
   <g id="patch_25">
    <path d="M 785.02773 245.488102 
Q 834.664885 405.430681 883.970656 564.305466 
" clip-path="url(#pfc1f664101)" style="fill: none; stroke: #000000; stroke-linecap: round"/>
    <path d="M 884.695193 559.892412 
L 883.970656 564.305466 
L 880.874935 561.078004 
L 884.695193 559.892412 
z
" clip-path="url(#pfc1f664101)" style="stroke: #000000; stroke-linecap: round"/>
   </g>
   <g id="patch_26">
    <path d="M 775.646206 242.556376 
Q 739.539184 270.856586 704.312117 298.467101 
" clip-path="url(#pfc1f664101)" style="fill: none; stroke: #000000; stroke-linecap: round"/>
    <path d="M 708.694102 297.573677 
L 704.312117 298.467101 
L 706.226569 294.425459 
L 708.694102 297.573677 
z
" clip-path="url(#pfc1f664101)" style="stroke: #000000; stroke-linecap: round"/>
   </g>
   <g id="patch_27">
    <path d="M 688.839331 308.32231 
Q 628.168409 338.143729 568.500865 367.47196 
" clip-path="url(#pfc1f664101)" style="fill: none; stroke: #000000; stroke-linecap: round"/>
    <path d="M 572.972898 367.502375 
L 568.500865 367.47196 
L 571.208417 363.912583 
L 572.972898 367.502375 
z
" clip-path="url(#pfc1f664101)" style="stroke: #000000; stroke-linecap: round"/>
   </g>
   <g id="patch_28">
    <path d="M 690.105169 310.220668 
Q 581.76469 405.429346 474.264038 499.899992 
" clip-path="url(#pfc1f664101)" style="fill: none; stroke: #000000; stroke-linecap: round"/>
    <path d="M 478.588924 498.761855 
L 474.264038 499.899992 
L 475.94846 495.757201 
L 478.588924 498.761855 
z
" clip-path="url(#pfc1f664101)" style="stroke: #000000; stroke-linecap: round"/>
   </g>
   <g id="patch_29">
    <path d="M 459.195338 510.285412 
Q 400.789885 540.000585 343.38091 569.208777 
" clip-path="url(#pfc1f664101)" style="fill: none; stroke: #000000; stroke-linecap: round"/>
    <path d="M 347.852936 569.177496 
L 343.38091 569.208777 
L 346.039101 565.612387 
L 347.852936 569.177496 
z
" clip-path="url(#pfc1f664101)" style="stroke: #000000; stroke-linecap: round"/>
   </g>
   <g id="patch_30">
    <path d="M 461.220042 512.877815 
Q 378.751074 607.283457 297.01765 700.847091 
" clip-path="url(#pfc1f664101)" style="fill: none; stroke: #000000; stroke-linecap: round"/>
    <path d="M 301.155438 699.150415 
L 297.01765 700.847091 
L 298.142982 696.518855 
L 301.155438 699.150415 
z
" clip-path="url(#pfc1f664101)" style="stroke: #000000; stroke-linecap: round"/>
   </g>
   <g id="patch_31">
    <path d="M 298.332018 712.088349 
Q 357.870262 741.857589 416.408506 771.126828 
" clip-path="url(#pfc1f664101)" style="fill: none; stroke: #000000; stroke-linecap: round"/>
    <path d="M 413.72523 767.549115 
L 416.408506 771.126828 
L 411.93637 771.126821 
L 413.72523 767.549115 
z
" clip-path="url(#pfc1f664101)" style="stroke: #000000; stroke-linecap: round"/>
   </g>
   <g id="patch_32">
    <path d="M 425.152908 716.874798 
Q 425.152908 741.855584 425.152908 765.718335 
" clip-path="url(#pfc1f664101)" style="fill: none; stroke: #000000; stroke-linecap: round"/>
    <path d="M 427.152908 761.718335 
L 425.152908 765.718335 
L 423.152908 761.718335 
L 427.152908 761.718335 
z
" clip-path="url(#pfc1f664101)" style="stroke: #000000; stroke-linecap: round"/>
   </g>
   <g id="patch_33">
    <path d="M 433.305644 711.132497 
Q 519.118659 741.855797 603.87907 772.202238 
" clip-path="url(#pfc1f664101)" style="fill: none; stroke: #000000; stroke-linecap: round"/>
    <path d="M 600.787304 768.970986 
L 603.87907 772.202238 
L 599.439009 772.736899 
L 600.787304 768.970986 
z
" clip-path="url(#pfc1f664101)" style="stroke: #000000; stroke-linecap: round"/>
   </g>
   <g id="patch_34">
    <path d="M 618.743008 782.059623 
Q 642.091332 809.143788 664.70965 835.381141 
" clip-path="url(#pfc1f664101)" style="fill: none; stroke: #000000; stroke-linecap: round"/>
    <path d="M 663.61272 831.045619 
L 664.70965 835.381141 
L 660.583075 833.657372 
L 663.61272 831.045619 
z
" clip-path="url(#pfc1f664101)" style="stroke: #000000; stroke-linecap: round"/>
   </g>
   <g id="patch_35">
    <path d="M 620.026769 780.681286 
Q 748.238422 876.427709 875.554267 971.505156 
" clip-path="url(#pfc1f664101)" style="fill: none; stroke: #000000; stroke-linecap: round"/>
    <path d="M 873.546026 967.509287 
L 875.554267 971.505156 
L 871.152627 970.714227 
L 873.546026 967.509287 
z
" clip-path="url(#pfc1f664101)" style="stroke: #000000; stroke-linecap: round"/>
   </g>
   <g id="patch_36">
    <path d="M 926.208211 513.597528 
Q 908.91181 539.997403 892.22812 565.462084 
" clip-path="url(#pfc1f664101)" style="fill: none; stroke: #000000; stroke-linecap: round"/>
    <path d="M 896.093143 563.212285 
L 892.22812 565.462084 
L 892.747294 561.020186 
L 896.093143 563.212285 
z
" clip-path="url(#pfc1f664101)" style="stroke: #000000; stroke-linecap: round"/>
   </g>
   <g id="patch_37">
    <path d="M 930.081976 514.970731 
Q 907.170215 741.853948 884.370787 967.624788 
" clip-path="url(#pfc1f664101)" style="fill: none; stroke: #000000; stroke-linecap: round"/>
    <path d="M 886.762562 963.845977 
L 884.370787 967.624788 
L 882.782803 963.444082 
L 886.762562 963.845977 
z
" clip-path="url(#pfc1f664101)" style="stroke: #000000; stroke-linecap: round"/>
   </g>
   <g id="patch_38">
    <path d="M 812.228243 177.679559 
Q 799.280206 203.575736 786.832167 228.471913 
" clip-path="url(#pfc1f664101)" style="fill: none; stroke: #000000; stroke-linecap: round"/>
    <path d="M 790.409871 225.788625 
L 786.832167 228.471913 
L 786.83216 223.999777 
L 790.409871 225.788625 
z
" clip-path="url(#pfc1f664101)" style="stroke: #000000; stroke-linecap: round"/>
   </g>
   <g id="patch_39">
    <path d="M 818.900765 178.125658 
Q 873.52727 338.143331 927.792571 497.102926 
" clip-path="url(#pfc1f664101)" style="fill: none; stroke: #000000; stroke-linecap: round"/>
    <path d="M 928.393035 492.671284 
L 927.792571 497.102926 
L 924.607536 493.96357 
L 928.393035 492.671284 
z
" clip-path="url(#pfc1f664101)" style="stroke: #000000; stroke-linecap: round"/>
   </g>
   <g id="patch_40">
    <path d="M 809.299927 175.286334 
Q 687.914252 270.857337 567.407017 365.736714 
" clip-path="url(#pfc1f664101)" style="fill: none; stroke: #000000; stroke-linecap: round"/>
    <path d="M 571.787032 364.833683 
L 567.407017 365.736714 
L 569.312601 361.690883 
L 571.787032 364.833683 
z
" clip-path="url(#pfc1f664101)" style="stroke: #000000; stroke-linecap: round"/>
   </g>
   <g id="patch_41">
    <path d="M 562.417929 380.012271 
Q 570.743502 405.427278 578.721023 429.779806 
" clip-path="url(#pfc1f664101)" style="fill: none; stroke: #000000; stroke-linecap: round"/>
    <path d="M 579.376413 425.355955 
L 578.721023 429.779806 
L 575.575176 426.601183 
L 579.376413 425.355955 
z
" clip-path="url(#pfc1f664101)" style="stroke: #000000; stroke-linecap: round"/>
   </g>
   <g id="patch_42">
    <path d="M 552.095302 375.882906 
Q 497.079633 405.428475 443.048946 434.445071 
" clip-path="url(#pfc1f664101)" style="fill: none; stroke: #000000; stroke-linecap: round"/>
    <path d="M 447.519176 434.314546 
L 443.048946 434.445071 
L 445.626664 430.790571 
L 447.519176 434.314546 
z
" clip-path="url(#pfc1f664101)" style="stroke: #000000; stroke-linecap: round"/>
   </g>
   <g id="patch_43">
    <path d="M 438.198531 446.870608 
Q 450.673961 472.712672 462.663328 497.547888 
" clip-path="url(#pfc1f664101)" style="fill: none; stroke: #000000; stroke-linecap: round"/>
    <path d="M 462.725442 493.076184 
L 462.663328 497.547888 
L 459.123232 494.815175 
L 462.725442 493.076184 
z
" clip-path="url(#pfc1f664101)" style="stroke: #000000; stroke-linecap: round"/>
   </g>
   <g id="patch_44">
    <path d="M 431.121165 447.076973 
Q 392.669599 540.001962 354.645513 631.893867 
" clip-path="url(#pfc1f664101)" style="fill: none; stroke: #000000; stroke-linecap: round"/>
    <path d="M 358.02295 628.962499 
L 354.645513 631.893867 
L 354.326881 627.433097 
L 358.02295 628.962499 
z
" clip-path="url(#pfc1f664101)" style="stroke: #000000; stroke-linecap: round"/>
   </g>
   <g id="patch_45">
    <path d="M 196.677511 380.11032 
Q 242.43824 539.99784 287.891333 698.810484 
" clip-path="url(#pfc1f664101)" style="fill: none; stroke: #000000; stroke-linecap: round"/>
    <path d="M 288.713499 694.414572 
L 287.891333 698.810484 
L 284.867903 695.515203 
L 288.713499 694.414572 
z
" clip-path="url(#pfc1f664101)" style="stroke: #000000; stroke-linecap: round"/>
   </g>
   <g id="patch_46">
    <path d="M 199.196867 378.929621 
Q 309.724353 540.000468 419.619252 700.149449 
" clip-path="url(#pfc1f664101)" style="fill: none; stroke: #000000; stroke-linecap: round"/>
    <path d="M 419.00512 695.719682 
L 419.619252 700.149449 
L 415.706958 697.982894 
L 419.00512 695.719682 
z
" clip-path="url(#pfc1f664101)" style="stroke: #000000; stroke-linecap: round"/>
   </g>
   <g id="patch_47">
    <path d="M 202.631261 374.122125 
Q 314.36406 405.429024 425.020286 436.434274 
" clip-path="url(#pfc1f664101)" style="fill: none; stroke: #000000; stroke-linecap: round"/>
    <path d="M 421.708231 433.429229 
L 425.020286 436.434274 
L 420.629017 437.280891 
L 421.708231 433.429229 
z
" clip-path="url(#pfc1f664101)" style="stroke: #000000; stroke-linecap: round"/>
   </g>
   <g id="patch_48">
    <path d="M 508.922285 649.33371 
Q 486.058111 741.854225 463.462162 833.289357 
" clip-path="url(#pfc1f664101)" style="fill: none; stroke: #000000; stroke-linecap: round"/>
    <path d="M 466.363387 829.885992 
L 463.462162 833.289357 
L 462.480204 828.926359 
L 466.363387 829.885992 
z
" clip-path="url(#pfc1f664101)" style="stroke: #000000; stroke-linecap: round"/>
   </g>
   <g id="patch_49">
    <path d="M 504.185331 646.269027 
Q 468.07831 674.569237 432.851242 702.179752 
" clip-path="url(#pfc1f664101)" style="fill: none; stroke: #000000; stroke-linecap: round"/>
    <path d="M 437.233227 701.286328 
L 432.851242 702.179752 
L 434.765694 698.138109 
L 437.233227 701.286328 
z
" clip-path="url(#pfc1f664101)" style="stroke: #000000; stroke-linecap: round"/>
   </g>
   <g id="patch_50">
    <path d="M 518.230525 645.694078 
Q 562.044784 674.571773 604.925532 702.834196 
" clip-path="url(#pfc1f664101)" style="fill: none; stroke: #000000; stroke-linecap: round"/>
    <path d="M 602.686333 698.963022 
L 604.925532 702.834196 
L 600.485073 702.302851 
L 602.686333 698.963022 
z
" clip-path="url(#pfc1f664101)" style="stroke: #000000; stroke-linecap: round"/>
   </g>
   <g id="patch_51">
    <path d="M 613.08736 716.874798 
Q 613.08736 741.855584 613.08736 765.718335 
" clip-path="url(#pfc1f664101)" style="fill: none; stroke: #000000; stroke-linecap: round"/>
    <path d="M 615.08736 761.718335 
L 613.08736 765.718335 
L 611.08736 761.718335 
L 615.08736 761.718335 
z
" clip-path="url(#pfc1f664101)" style="stroke: #000000; stroke-linecap: round"/>
   </g>
   <g id="patch_52">
    <path d="M 816.669785 649.416358 
Q 849.165921 809.143765 881.439162 967.775581 
" clip-path="url(#pfc1f664101)" style="fill: none; stroke: #000000; stroke-linecap: round"/>
    <path d="M 882.601559 963.457151 
L 881.439162 967.775581 
L 878.681857 964.254605 
L 882.601559 963.457151 
z
" clip-path="url(#pfc1f664101)" style="stroke: #000000; stroke-linecap: round"/>
   </g>
   <g id="patch_53">
    <path d="M 806.728334 643.666357 
Q 714.016395 674.570459 622.365115 705.121007 
" clip-path="url(#pfc1f664101)" style="fill: none; stroke: #000000; stroke-linecap: round"/>
    <path d="M 626.792305 705.753458 
L 622.365115 705.121007 
L 625.527389 701.958726 
L 626.792305 705.753458 
z
" clip-path="url(#pfc1f664101)" style="stroke: #000000; stroke-linecap: round"/>
   </g>
   <g id="patch_54">
    <path d="M 976.562625 447.69299 
Q 968.07481 539.998344 959.689371 631.190362 
" clip-path="url(#pfc1f664101)" style="fill: none; stroke: #000000; stroke-linecap: round"/>
    <path d="M 962.047238 627.390301 
L 959.689371 631.190362 
L 958.064043 627.024031 
L 962.047238 627.390301 
z
" clip-path="url(#pfc1f664101)" style="stroke: #000000; stroke-linecap: round"/>
   </g>
   <g id="patch_55">
    <path d="M 972.44142 446.197096 
Q 954.154233 472.713622 936.50179 498.309767 
" clip-path="url(#pfc1f664101)" style="fill: none; stroke: #000000; stroke-linecap: round"/>
    <path d="M 940.419143 496.152374 
L 936.50179 498.309767 
L 937.126288 493.881449 
L 940.419143 496.152374 
z
" clip-path="url(#pfc1f664101)" style="stroke: #000000; stroke-linecap: round"/>
   </g>
   <g id="patch_56">
    <path d="M 971.925596 445.820299 
Q 896.149387 539.999677 821.074046 633.307973 
" clip-path="url(#pfc1f664101)" style="fill: none; stroke: #000000; stroke-linecap: round"/>
    <path d="M 825.139786 631.445245 
L 821.074046 633.307973 
L 822.023308 628.937744 
L 825.139786 631.445245 
z
" clip-path="url(#pfc1f664101)" style="stroke: #000000; stroke-linecap: round"/>
   </g>
   <g id="patch_57">
    <path d="M 897.062846 110.914651 
Q 868.307581 203.570876 839.883698 295.159306 
" clip-path="url(#pfc1f664101)" style="fill: none; stroke: #000000; stroke-linecap: round"/>
    <path d="M 842.97942 291.931844 
L 839.883698 295.159306 
L 839.159162 290.746252 
L 842.97942 291.931844 
z
" clip-path="url(#pfc1f664101)" style="stroke: #000000; stroke-linecap: round"/>
   </g>
   <g id="patch_58">
    <path d="M 892.887226 108.075841 
Q 857.868235 136.285696 823.719917 163.794173 
" clip-path="url(#pfc1f664101)" style="fill: none; stroke: #000000; stroke-linecap: round"/>
    <path d="M 828.08959 162.842354 
L 823.719917 163.794173 
L 825.580265 159.727344 
L 828.08959 162.842354 
z
" clip-path="url(#pfc1f664101)" style="stroke: #000000; stroke-linecap: round"/>
   </g>
   <g id="patch_59">
    <path d="M 901.578593 111.081489 
Q 938.491965 270.85642 975.153662 429.542011 
" clip-path="url(#pfc1f664101)" style="fill: none; stroke: #000000; stroke-linecap: round"/>
    <path d="M 976.201916 425.194464 
L 975.153662 429.542011 
L 972.304577 426.094881 
L 976.201916 425.194464 
z
" clip-path="url(#pfc1f664101)" style="stroke: #000000; stroke-linecap: round"/>
   </g>
   <g id="patch_60">
    <path d="M 893.680592 108.940831 
Q 740.696241 270.859219 588.479722 431.964935 
" clip-path="url(#pfc1f664101)" style="fill: none; stroke: #000000; stroke-linecap: round"/>
    <path d="M 592.68055 430.430972 
L 588.479722 431.964935 
L 589.773048 427.683895 
L 592.68055 430.430972 
z
" clip-path="url(#pfc1f664101)" style="stroke: #000000; stroke-linecap: round"/>
   </g>
   <g id="patch_61">
    <path d="M 575.244601 444.773071 
Q 466.336419 539.999699 358.269904 634.490395 
" clip-path="url(#pfc1f664101)" style="fill: none; stroke: #000000; stroke-linecap: round"/>
    <path d="M 362.597619 633.363062 
L 358.269904 634.490395 
L 359.964666 630.351823 
L 362.597619 633.363062 
z
" clip-path="url(#pfc1f664101)" style="stroke: #000000; stroke-linecap: round"/>
   </g>
   <g id="patch_62">
    <path d="M 226.050151 312.609272 
Q 165.871223 472.714578 106.085661 631.773337 
" clip-path="url(#pfc1f664101)" style="fill: none; stroke: #000000; stroke-linecap: round"/>
    <path d="M 109.365135 628.732769 
L 106.085661 631.773337 
L 105.620891 627.325417 
L 109.365135 628.732769 
z
" clip-path="url(#pfc1f664101)" style="stroke: #000000; stroke-linecap: round"/>
   </g>
   <g id="patch_63">
    <path d="M 225.11923 312.192948 
Q 211.696723 338.143232 198.787865 363.100457 
" clip-path="url(#pfc1f664101)" style="fill: none; stroke: #000000; stroke-linecap: round"/>
    <path d="M 202.401987 360.466427 
L 198.787865 363.100457 
L 198.849114 358.628741 
L 202.401987 360.466427 
z
" clip-path="url(#pfc1f664101)" style="stroke: #000000; stroke-linecap: round"/>
   </g>
   <g id="patch_64">
    <path d="M 234.661794 311.141099 
Q 370.048764 472.714669 504.717665 633.431281 
" clip-path="url(#pfc1f664101)" style="fill: none; stroke: #000000; stroke-linecap: round"/>
    <path d="M 503.681597 629.080814 
L 504.717665 633.431281 
L 500.615651 631.649856 
L 503.681597 629.080814 
z
" clip-path="url(#pfc1f664101)" style="stroke: #000000; stroke-linecap: round"/>
   </g>
   <g id="patch_65">
    <path d="M 232.046602 312.645207 
Q 290.002841 472.715457 347.578457 631.734458 
" clip-path="url(#pfc1f664101)" style="fill: none; stroke: #000000; stroke-linecap: round"/>
    <path d="M 348.09723 627.292513 
L 347.578457 631.734458 
L 344.336165 628.654273 
L 348.09723 627.292513 
z
" clip-path="url(#pfc1f664101)" style="stroke: #000000; stroke-linecap: round"/>
   </g>
   <g id="PathCollection_1">
    <defs>
     <path id="C0_0_bba3e98fa1" d="M 0 8.660254 
C 2.296726 8.660254 4.499694 7.747755 6.123724 6.123724 
C 7.747755 4.499694 8.660254 2.296726 8.660254 -0 
C 8.660254 -2.296726 7.747755 -4.499694 6.123724 -6.123724 
C 4.499694 -7.747755 2.296726 -8.660254 0 -8.660254 
C -2.296726 -8.660254 -4.499694 -7.747755 -6.123724 -6.123724 
C -7.747755 -4.499694 -8.660254 -2.296726 -8.660254 0 
C -8.660254 2.296726 -7.747755 4.499694 -6.123724 6.123724 
C -4.499694 7.747755 -2.296726 8.660254 0 8.660254 
z
"/>
    </defs>
    <g clip-path="url(#pfc1f664101)">
     <use xlink:href="#C0_0_bba3e98fa1" x="461.115674" y="842.784488" style="fill: #d5e7f1; stroke: #d5e7f1"/>
    </g>
    <g clip-path="url(#pfc1f664101)">
     <use xlink:href="#C0_0_bba3e98fa1" x="662.971196" y="506.357279" style="fill: #b1d5e7; stroke: #b1d5e7"/>
    </g>
    <g clip-path="url(#pfc1f664101)">
     <use xlink:href="#C0_0_bba3e98fa1" x="743.017352" y="573.642721" style="fill: #d2e6f0; stroke: #d2e6f0"/>
    </g>
    <g clip-path="url(#pfc1f664101)">
     <use xlink:href="#C0_0_bba3e98fa1" x="958.793945" y="640.928163" style="fill: #edf2f5; stroke: #edf2f5"/>
    </g>
    <g clip-path="url(#pfc1f664101)">
     <use xlink:href="#C0_0_bba3e98fa1" x="836.984578" y="304.500954" style="fill: #d8e9f1; stroke: #d8e9f1"/>
    </g>
    <g clip-path="url(#pfc1f664101)">
     <use xlink:href="#C0_0_bba3e98fa1" x="679.212445" y="237.215512" style="fill: #87beda; stroke: #87beda"/>
    </g>
    <g clip-path="url(#pfc1f664101)">
     <use xlink:href="#C0_0_bba3e98fa1" x="334.66595" y="573.642721" style="fill: #acd2e5; stroke: #acd2e5"/>
    </g>
    <g clip-path="url(#pfc1f664101)">
     <use xlink:href="#C0_0_bba3e98fa1" x="102.644628" y="640.928163" style="fill: #b6d7e8; stroke: #b6d7e8"/>
    </g>
    <g clip-path="url(#pfc1f664101)">
     <use xlink:href="#C0_0_bba3e98fa1" x="425.152908" y="775.499046" style="fill: #cfe4ef; stroke: #cfe4ef"/>
    </g>
    <g clip-path="url(#pfc1f664101)">
     <use xlink:href="#C0_0_bba3e98fa1" x="671.091821" y="842.784488" style="fill: #eaf1f5; stroke: #eaf1f5"/>
    </g>
    <g clip-path="url(#pfc1f664101)">
     <use xlink:href="#C0_0_bba3e98fa1" x="789.42092" y="910.06993" style="fill: #f0f4f6; stroke: #f0f4f6"/>
    </g>
    <g clip-path="url(#pfc1f664101)">
     <use xlink:href="#C0_0_bba3e98fa1" x="886.868414" y="573.642721" style="fill: #dbeaf2; stroke: #dbeaf2"/>
    </g>
    <g clip-path="url(#pfc1f664101)">
     <use xlink:href="#C0_0_bba3e98fa1" x="782.460385" y="237.215512" style="fill: #81bad8; stroke: #81bad8"/>
    </g>
    <g clip-path="url(#pfc1f664101)">
     <use xlink:href="#C0_0_bba3e98fa1" x="696.613783" y="304.500954" style="fill: #8dc2dc; stroke: #8dc2dc"/>
    </g>
    <g clip-path="url(#pfc1f664101)">
     <use xlink:href="#C0_0_bba3e98fa1" x="466.91612" y="506.357279" style="fill: #a7d0e4; stroke: #a7d0e4"/>
    </g>
    <g clip-path="url(#pfc1f664101)">
     <use xlink:href="#C0_0_bba3e98fa1" x="290.58256" y="708.213605" style="fill: #bbdaea; stroke: #bbdaea"/>
    </g>
    <g clip-path="url(#pfc1f664101)">
     <use xlink:href="#C0_0_bba3e98fa1" x="425.152908" y="708.213605" style="fill: #cae1ee; stroke: #cae1ee"/>
    </g>
    <g clip-path="url(#pfc1f664101)">
     <use xlink:href="#C0_0_bba3e98fa1" x="613.08736" y="775.499046" style="fill: #e7f0f4; stroke: #e7f0f4"/>
    </g>
    <g clip-path="url(#pfc1f664101)">
     <use xlink:href="#C0_0_bba3e98fa1" x="883.388146" y="977.355372" style="fill: #f3f5f6; stroke: #f3f5f6"/>
    </g>
    <g clip-path="url(#pfc1f664101)">
     <use xlink:href="#C0_0_bba3e98fa1" x="930.951804" y="506.357279" style="fill: #c0dceb; stroke: #c0dceb"/>
    </g>
    <g clip-path="url(#pfc1f664101)">
     <use xlink:href="#C0_0_bba3e98fa1" x="816.102972" y="169.93007" style="fill: #7bb6d6; stroke: #7bb6d6"/>
    </g>
    <g clip-path="url(#pfc1f664101)">
     <use xlink:href="#C0_0_bba3e98fa1" x="559.723257" y="371.786395" style="fill: #93c6de; stroke: #93c6de"/>
    </g>
    <g clip-path="url(#pfc1f664101)">
     <use xlink:href="#C0_0_bba3e98fa1" x="434.433622" y="439.071837" style="fill: #a2cde3; stroke: #a2cde3"/>
    </g>
    <g clip-path="url(#pfc1f664101)">
     <use xlink:href="#C0_0_bba3e98fa1" x="194.295156" y="371.786395" style="fill: #98c8e0; stroke: #98c8e0"/>
    </g>
    <g clip-path="url(#pfc1f664101)">
     <use xlink:href="#C0_0_bba3e98fa1" x="510.99951" y="640.928163" style="fill: #c5dfec; stroke: #c5dfec"/>
    </g>
    <g clip-path="url(#pfc1f664101)">
     <use xlink:href="#C0_0_bba3e98fa1" x="613.08736" y="708.213605" style="fill: #e4eef4; stroke: #e4eef4"/>
    </g>
    <g clip-path="url(#pfc1f664101)">
     <use xlink:href="#C0_0_bba3e98fa1" x="814.942883" y="640.928163" style="fill: #deebf2; stroke: #deebf2"/>
    </g>
    <g clip-path="url(#pfc1f664101)">
     <use xlink:href="#C0_0_bba3e98fa1" x="977.355372" y="439.071837" style="fill: #75b2d4; stroke: #75b2d4"/>
    </g>
    <g clip-path="url(#pfc1f664101)">
     <use xlink:href="#C0_0_bba3e98fa1" x="899.629395" y="102.644628" style="fill: #68abd0; stroke: #68abd0"/>
    </g>
    <g clip-path="url(#pfc1f664101)">
     <use xlink:href="#C0_0_bba3e98fa1" x="581.764952" y="439.071837" style="fill: #9dcbe1; stroke: #9dcbe1"/>
    </g>
    <g clip-path="url(#pfc1f664101)">
     <use xlink:href="#C0_0_bba3e98fa1" x="350.907199" y="640.928163" style="fill: #e1edf3; stroke: #e1edf3"/>
    </g>
    <g clip-path="url(#pfc1f664101)">
     <use xlink:href="#C0_0_bba3e98fa1" x="229.097832" y="304.500954" style="fill: #6eaed2; stroke: #6eaed2"/>
    </g>
   </g>
  </g>
 </g>
 <defs>
  <clipPath id="pfc1f664101">
   <rect x="10.8" y="10.8" width="1058.4" height="1058.4"/>
  </clipPath>
 </defs>
</svg>
