<?xml version="1.0" encoding="utf-8" standalone="no"?>
<!DOCTYPE svg PUBLIC "-//W3C//DTD SVG 1.1//EN"
  "http://www.w3.org/Graphics/SVG/1.1/DTD/svg11.dtd">
<svg xmlns:xlink="http://www.w3.org/1999/xlink" width="1080pt" height="1080pt" viewBox="0 0 1080 1080" xmlns="http://www.w3.org/2000/svg" version="1.1">
 <metadata>
  <rdf:RDF xmlns:dc="http://purl.org/dc/elements/1.1/" xmlns:cc="http://creativecommons.org/ns#" xmlns:rdf="http://www.w3.org/1999/02/22-rdf-syntax-ns#">
   <cc:Work>
    <dc:type rdf:resource="http://purl.org/dc/dcmitype/StillImage"/>
    <dc:date>2022-04-26T20:56:57.876918</dc:date>
    <dc:format>image/svg+xml</dc:format>
    <dc:creator>
     <cc:Agent>
      <dc:title>Matplotlib v3.5.1, https://matplotlib.org/</dc:title>
     </cc:Agent>
    </dc:creator>
   </cc:Work>
  </rdf:RDF>
 </metadata>
 <defs>
  <style type="text/css">*{stroke-linejoin: round; stroke-linecap: butt}</style>
 </defs>
 <g id="figure_1">
  <g id="patch_1">
   <path d="M 0 1080 
L 1080 1080 
L 1080 0 
L 0 0 
z
" style="fill: #ffffff"/>
  </g>
  <g id="axes_1">
   <g id="patch_2">
    <path d="M 226.603455 111.2363 
Q 241.656259 227.603695 256.565634 342.862294 
" clip-path="url(#pa63bbdd3aa)" style="fill: none; stroke: #000000; stroke-linecap: round"/>
    <path d="M 258.035961 338.638771 
L 256.565634 342.862294 
L 254.069012 339.15192 
L 258.035961 338.638771 
z
" clip-path="url(#pa63bbdd3aa)" style="stroke: #000000; stroke-linecap: round"/>
   </g>
   <g id="patch_3">
    <path d="M 224.516667 111.2506 
Q 204.247666 290.083623 184.104577 467.805724 
" clip-path="url(#pa63bbdd3aa)" style="fill: none; stroke: #000000; stroke-linecap: round"/>
    <path d="M 186.54233 464.05641 
L 184.104577 467.805724 
L 182.567778 463.605933 
L 186.54233 464.05641 
z
" clip-path="url(#pa63bbdd3aa)" style="stroke: #000000; stroke-linecap: round"/>
   </g>
   <g id="patch_4">
    <path d="M 233.223989 106.54768 
Q 349.263178 165.123966 464.30429 223.196425 
" clip-path="url(#pa63bbdd3aa)" style="fill: none; stroke: #000000; stroke-linecap: round"/>
    <path d="M 461.634733 219.608464 
L 464.30429 223.196425 
L 459.832187 223.179294 
L 461.634733 219.608464 
z
" clip-path="url(#pa63bbdd3aa)" style="stroke: #000000; stroke-linecap: round"/>
   </g>
   <g id="patch_5">
    <path d="M 226.112391 111.283491 
Q 256.89666 539.99971 287.600854 967.600767 
" clip-path="url(#pa63bbdd3aa)" style="fill: none; stroke: #000000; stroke-linecap: round"/>
    <path d="M 289.309233 963.467797 
L 287.600854 967.600767 
L 285.319505 963.754282 
L 289.309233 963.467797 
z
" clip-path="url(#pa63bbdd3aa)" style="stroke: #000000; stroke-linecap: round"/>
   </g>
   <g id="patch_6">
    <path d="M 259.695131 361.016372 
Q 285.530142 477.519969 311.123106 592.932048 
" clip-path="url(#pa63bbdd3aa)" style="fill: none; stroke: #000000; stroke-linecap: round"/>
    <path d="M 312.209699 588.593924 
L 311.123106 592.932048 
L 308.304563 589.459899 
L 312.209699 588.593924 
z
" clip-path="url(#pa63bbdd3aa)" style="stroke: #000000; stroke-linecap: round"/>
   </g>
   <g id="patch_7">
    <path d="M 262.785694 359.657835 
Q 388.980645 539.999814 514.534597 719.425759 
" clip-path="url(#pa63bbdd3aa)" style="fill: none; stroke: #000000; stroke-linecap: round"/>
    <path d="M 513.879943 715.001798 
L 514.534597 719.425759 
L 510.602636 717.295106 
L 513.879943 715.001798 
z
" clip-path="url(#pa63bbdd3aa)" style="stroke: #000000; stroke-linecap: round"/>
   </g>
   <g id="patch_8">
    <path d="M 262.27036 359.994371 
Q 295.230126 415.043573 327.615562 469.133534 
" clip-path="url(#pa63bbdd3aa)" style="fill: none; stroke: #000000; stroke-linecap: round"/>
    <path d="M 327.276721 464.674253 
L 327.615562 469.133534 
L 323.844833 466.729037 
L 327.276721 464.674253 
z
" clip-path="url(#pa63bbdd3aa)" style="stroke: #000000; stroke-linecap: round"/>
   </g>
   <g id="patch_9">
    <path d="M 191.278956 480.070897 
Q 385.747539 539.999874 579.147671 599.59959 
" clip-path="url(#pa63bbdd3aa)" style="fill: none; stroke: #000000; stroke-linecap: round"/>
    <path d="M 575.914068 596.510283 
L 579.147671 599.59959 
L 574.736064 600.332888 
L 575.914068 596.510283 
z
" clip-path="url(#pa63bbdd3aa)" style="stroke: #000000; stroke-linecap: round"/>
   </g>
   <g id="patch_10">
    <path d="M 185.764823 485.730989 
Q 225.030942 602.481429 263.940656 718.172163 
" clip-path="url(#pa63bbdd3aa)" style="fill: none; stroke: #000000; stroke-linecap: round"/>
    <path d="M 264.561198 713.743289 
L 263.940656 718.172163 
L 260.769882 715.018404 
L 264.561198 713.743289 
z
" clip-path="url(#pa63bbdd3aa)" style="stroke: #000000; stroke-linecap: round"/>
   </g>
   <g id="patch_11">
    <path d="M 189.207848 483.559237 
Q 311.391402 602.477866 432.773754 720.616702 
" clip-path="url(#pa63bbdd3aa)" style="fill: none; stroke: #000000; stroke-linecap: round"/>
    <path d="M 431.302223 716.393599 
L 432.773754 720.616702 
L 428.512353 719.260065 
L 431.302223 716.393599 
z
" clip-path="url(#pa63bbdd3aa)" style="stroke: #000000; stroke-linecap: round"/>
   </g>
   <g id="patch_12">
    <path d="M 468.877063 235.203484 
Q 438.857638 290.084556 409.374747 343.984745 
" clip-path="url(#pa63bbdd3aa)" style="fill: none; stroke: #000000; stroke-linecap: round"/>
    <path d="M 413.048966 341.435212 
L 409.374747 343.984745 
L 409.539652 339.51565 
L 413.048966 341.435212 
z
" clip-path="url(#pa63bbdd3aa)" style="stroke: #000000; stroke-linecap: round"/>
   </g>
   <g id="patch_13">
    <path d="M 477.349585 235.111962 
Q 616.664226 477.520717 755.421772 718.960121 
" clip-path="url(#pa63bbdd3aa)" style="fill: none; stroke: #000000; stroke-linecap: round"/>
    <path d="M 755.162674 714.495497 
L 755.421772 718.960121 
L 751.694614 716.488624 
L 755.162674 714.495497 
z
" clip-path="url(#pa63bbdd3aa)" style="stroke: #000000; stroke-linecap: round"/>
   </g>
   <g id="patch_14">
    <path d="M 499.256644 357.620507 
Q 419.46181 415.041257 340.574469 471.808971 
" clip-path="url(#pa63bbdd3aa)" style="fill: none; stroke: #000000; stroke-linecap: round"/>
    <path d="M 344.989402 471.09597 
L 340.574469 471.808971 
L 342.653028 467.849224 
L 344.989402 471.09597 
z
" clip-path="url(#pa63bbdd3aa)" style="stroke: #000000; stroke-linecap: round"/>
   </g>
   <g id="patch_15">
    <path d="M 504.470666 361.031625 
Q 452.713545 602.47987 401.190763 842.834915 
" clip-path="url(#pa63bbdd3aa)" style="fill: none; stroke: #000000; stroke-linecap: round"/>
    <path d="M 403.984736 839.342965 
L 401.190763 842.834915 
L 400.073587 838.504567 
L 403.984736 839.342965 
z
" clip-path="url(#pa63bbdd3aa)" style="stroke: #000000; stroke-linecap: round"/>
   </g>
   <g id="patch_16">
    <path d="M 507.303252 361.161282 
Q 513.675685 415.042478 519.916805 467.813379 
" clip-path="url(#pa63bbdd3aa)" style="fill: none; stroke: #000000; stroke-linecap: round"/>
    <path d="M 521.433164 463.606164 
L 519.916805 467.813379 
L 517.460848 464.075963 
L 521.433164 463.606164 
z
" clip-path="url(#pa63bbdd3aa)" style="stroke: #000000; stroke-linecap: round"/>
   </g>
   <g id="patch_17">
    <path d="M 513.998822 356.499356 
Q 628.670363 415.040569 742.346126 473.073424 
" clip-path="url(#pa63bbdd3aa)" style="fill: none; stroke: #000000; stroke-linecap: round"/>
    <path d="M 739.692898 469.473371 
L 742.346126 473.073424 
L 737.874146 473.035974 
L 739.692898 469.473371 
z
" clip-path="url(#pa63bbdd3aa)" style="stroke: #000000; stroke-linecap: round"/>
   </g>
   <g id="patch_18">
    <path d="M 330.438728 485.898781 
Q 299.847003 602.479718 269.539052 717.979235 
" clip-path="url(#pa63bbdd3aa)" style="fill: none; stroke: #000000; stroke-linecap: round"/>
    <path d="M 272.488816 714.617852 
L 269.539052 717.979235 
L 268.619805 713.602594 
L 272.488816 714.617852 
z
" clip-path="url(#pa63bbdd3aa)" style="stroke: #000000; stroke-linecap: round"/>
   </g>
   <g id="patch_19">
    <path d="M 393.395807 858.873816 
Q 343.720624 914.876672 294.787344 970.043119 
" clip-path="url(#pa63bbdd3aa)" style="fill: none; stroke: #000000; stroke-linecap: round"/>
    <path d="M 298.937872 968.377852 
L 294.787344 970.043119 
L 295.945447 965.723536 
L 298.937872 968.377852 
z
" clip-path="url(#pa63bbdd3aa)" style="stroke: #000000; stroke-linecap: round"/>
   </g>
   <g id="patch_20">
    <path d="M 520.173393 486.135214 
Q 514.599348 539.998695 509.140387 592.750081 
" clip-path="url(#pa63bbdd3aa)" style="fill: none; stroke: #000000; stroke-linecap: round"/>
    <path d="M 511.541503 588.977199 
L 509.140387 592.750081 
L 507.562751 588.565459 
L 511.541503 588.977199 
z
" clip-path="url(#pa63bbdd3aa)" style="stroke: #000000; stroke-linecap: round"/>
   </g>
   <g id="patch_21">
    <path d="M 751.377243 486.173348 
Q 755.675732 602.478189 759.932929 717.665758 
" clip-path="url(#pa63bbdd3aa)" style="fill: none; stroke: #000000; stroke-linecap: round"/>
    <path d="M 761.78383 713.59462 
L 759.932929 717.665758 
L 757.786559 713.742355 
L 761.78383 713.59462 
z
" clip-path="url(#pa63bbdd3aa)" style="stroke: #000000; stroke-linecap: round"/>
   </g>
   <g id="patch_22">
    <path d="M 755.126672 485.166601 
Q 784.310035 540.001212 812.968129 593.848862 
" clip-path="url(#pa63bbdd3aa)" style="fill: none; stroke: #000000; stroke-linecap: round"/>
    <path d="M 812.854404 589.378172 
L 812.968129 593.848862 
L 809.323342 591.257428 
L 812.854404 589.378172 
z
" clip-path="url(#pa63bbdd3aa)" style="stroke: #000000; stroke-linecap: round"/>
   </g>
   <g id="patch_23">
    <path d="M 744.188819 482.800364 
Q 669.774746 540.000142 596.247093 596.518557 
" clip-path="url(#pa63bbdd3aa)" style="fill: none; stroke: #000000; stroke-linecap: round"/>
    <path d="M 600.637312 595.666512 
L 596.247093 596.518557 
L 598.199589 592.495155 
L 600.637312 595.666512 
z
" clip-path="url(#pa63bbdd3aa)" style="stroke: #000000; stroke-linecap: round"/>
   </g>
   <g id="patch_24">
    <path d="M 626.008508 107.977719 
Q 552.932833 165.122775 480.737877 221.579112 
" clip-path="url(#pa63bbdd3aa)" style="fill: none; stroke: #000000; stroke-linecap: round"/>
    <path d="M 485.12085 220.690549 
L 480.737877 221.579112 
L 482.65681 217.539595 
L 485.12085 220.690549 
z
" clip-path="url(#pa63bbdd3aa)" style="stroke: #000000; stroke-linecap: round"/>
   </g>
   <g id="patch_25">
    <path d="M 638.687331 109.01974 
Q 805.089994 290.080623 970.736112 470.318318 
" clip-path="url(#pa63bbdd3aa)" style="fill: none; stroke: #000000; stroke-linecap: round"/>
    <path d="M 969.501977 466.01984 
L 970.736112 470.318318 
L 966.556849 468.726538 
L 969.501977 466.01984 
z
" clip-path="url(#pa63bbdd3aa)" style="stroke: #000000; stroke-linecap: round"/>
   </g>
   <g id="patch_26">
    <path d="M 635.988067 110.710046 
Q 681.78296 227.604288 727.170028 343.457531 
" clip-path="url(#pa63bbdd3aa)" style="fill: none; stroke: #000000; stroke-linecap: round"/>
    <path d="M 727.573143 339.003601 
L 727.170028 343.457531 
L 723.848753 340.462681 
L 727.573143 339.003601 
z
" clip-path="url(#pa63bbdd3aa)" style="stroke: #000000; stroke-linecap: round"/>
   </g>
   <g id="patch_27">
    <path d="M 632.105464 111.273481 
Q 617.126134 290.081361 602.240139 467.775109 
" clip-path="url(#pa63bbdd3aa)" style="fill: none; stroke: #000000; stroke-linecap: round"/>
    <path d="M 604.567081 463.956034 
L 602.240139 467.775109 
L 600.581044 463.62211 
L 604.567081 463.956034 
z
" clip-path="url(#pa63bbdd3aa)" style="stroke: #000000; stroke-linecap: round"/>
   </g>
   <g id="patch_28">
    <path d="M 969.754437 481.6754 
Q 748.746852 602.480124 528.720306 722.748602 
" clip-path="url(#pa63bbdd3aa)" style="fill: none; stroke: #000000; stroke-linecap: round"/>
    <path d="M 533.189449 722.58501 
L 528.720306 722.748602 
L 531.270919 719.075132 
L 533.189449 722.58501 
z
" clip-path="url(#pa63bbdd3aa)" style="stroke: #000000; stroke-linecap: round"/>
   </g>
   <g id="patch_29">
    <path d="M 974.406482 485.662347 
Q 954.726354 539.997863 935.426968 593.282172 
" clip-path="url(#pa63bbdd3aa)" style="fill: none; stroke: #000000; stroke-linecap: round"/>
    <path d="M 938.669611 590.202356 
L 935.426968 593.282172 
L 934.908701 588.840168 
L 938.669611 590.202356 
z
" clip-path="url(#pa63bbdd3aa)" style="stroke: #000000; stroke-linecap: round"/>
   </g>
   <g id="patch_30">
    <path d="M 970.535549 482.853752 
Q 897.459874 539.998809 825.264918 596.455145 
" clip-path="url(#pa63bbdd3aa)" style="fill: none; stroke: #000000; stroke-linecap: round"/>
    <path d="M 829.647891 595.566582 
L 825.264918 596.455145 
L 827.183851 592.415628 
L 829.647891 595.566582 
z
" clip-path="url(#pa63bbdd3aa)" style="stroke: #000000; stroke-linecap: round"/>
   </g>
   <g id="patch_31">
    <path d="M 722.472438 355.156073 
Q 531.687485 415.041175 341.969249 474.591446 
" clip-path="url(#pa63bbdd3aa)" style="fill: none; stroke: #000000; stroke-linecap: round"/>
    <path d="M 346.384621 475.301726 
L 341.969249 474.591446 
L 345.186696 471.485317 
L 346.384621 475.301726 
z
" clip-path="url(#pa63bbdd3aa)" style="stroke: #000000; stroke-linecap: round"/>
   </g>
   <g id="patch_32">
    <path d="M 737.027019 358.512851 
Q 796.778927 415.041379 855.718662 470.801548 
" clip-path="url(#pa63bbdd3aa)" style="fill: none; stroke: #000000; stroke-linecap: round"/>
    <path d="M 854.187428 466.599725 
L 855.718662 470.801548 
L 851.438463 469.505442 
L 854.187428 466.599725 
z
" clip-path="url(#pa63bbdd3aa)" style="stroke: #000000; stroke-linecap: round"/>
   </g>
   <g id="patch_33">
    <path d="M 729.782515 361.168909 
Q 716.881743 477.521584 704.10418 592.763035 
" clip-path="url(#pa63bbdd3aa)" style="fill: none; stroke: #000000; stroke-linecap: round"/>
    <path d="M 706.532803 589.0078 
L 704.10418 592.763035 
L 702.557166 588.566996 
L 706.532803 589.0078 
z
" clip-path="url(#pa63bbdd3aa)" style="stroke: #000000; stroke-linecap: round"/>
   </g>
   <g id="patch_34">
    <path d="M 593.477745 480.966101 
Q 457.333616 539.999292 322.215243 598.587708 
" clip-path="url(#pa63bbdd3aa)" style="fill: none; stroke: #000000; stroke-linecap: round"/>
    <path d="M 326.680737 598.831356 
L 322.215243 598.587708 
L 325.089458 595.161502 
L 326.680737 598.831356 
z
" clip-path="url(#pa63bbdd3aa)" style="stroke: #000000; stroke-linecap: round"/>
   </g>
   <g id="patch_35">
    <path d="M 600.532247 486.135214 
Q 594.958202 539.998695 589.499241 592.750081 
" clip-path="url(#pa63bbdd3aa)" style="fill: none; stroke: #000000; stroke-linecap: round"/>
    <path d="M 591.900357 588.977199 
L 589.499241 592.750081 
L 587.921605 588.565459 
L 591.900357 588.977199 
z
" clip-path="url(#pa63bbdd3aa)" style="stroke: #000000; stroke-linecap: round"/>
   </g>
   <g id="patch_36">
    <path d="M 856.287699 483.204588 
Q 575.560789 727.438289 295.677371 970.938148 
" clip-path="url(#pa63bbdd3aa)" style="fill: none; stroke: #000000; stroke-linecap: round"/>
    <path d="M 300.007871 969.821561 
L 295.677371 970.938148 
L 297.382401 966.803796 
L 300.007871 969.821561 
z
" clip-path="url(#pa63bbdd3aa)" style="stroke: #000000; stroke-linecap: round"/>
   </g>
   <g id="patch_37">
    <path d="M 859.872024 485.662347 
Q 840.191895 539.997863 820.89251 593.282172 
" clip-path="url(#pa63bbdd3aa)" style="fill: none; stroke: #000000; stroke-linecap: round"/>
    <path d="M 824.135153 590.202356 
L 820.89251 593.282172 
L 820.374243 588.840168 
L 824.135153 590.202356 
z
" clip-path="url(#pa63bbdd3aa)" style="stroke: #000000; stroke-linecap: round"/>
   </g>
   <g id="patch_38">
    <path d="M 695.206175 606.191719 
Q 571.405361 664.958321 448.614565 723.245481 
" clip-path="url(#pa63bbdd3aa)" style="fill: none; stroke: #000000; stroke-linecap: round"/>
    <path d="M 453.085766 723.336952 
L 448.614565 723.245481 
L 451.370462 719.723403 
L 453.085766 723.336952 
z
" clip-path="url(#pa63bbdd3aa)" style="stroke: #000000; stroke-linecap: round"/>
   </g>
   <g id="patch_39">
    <path d="M 704.012986 611.086264 
Q 717.343783 727.43894 730.547318 842.680848 
" clip-path="url(#pa63bbdd3aa)" style="fill: none; stroke: #000000; stroke-linecap: round"/>
    <path d="M 732.079008 838.47919 
L 730.547318 842.680848 
L 728.105006 838.934501 
L 732.079008 838.47919 
z
" clip-path="url(#pa63bbdd3aa)" style="stroke: #000000; stroke-linecap: round"/>
   </g>
   <g id="patch_40">
    <path d="M 758.360317 735.877151 
Q 745.977178 789.917854 733.843759 842.868768 
" clip-path="url(#pa63bbdd3aa)" style="fill: none; stroke: #000000; stroke-linecap: round"/>
    <path d="M 736.686656 839.416532 
L 733.843759 842.868768 
L 732.787708 838.523109 
L 736.686656 839.416532 
z
" clip-path="url(#pa63bbdd3aa)" style="stroke: #000000; stroke-linecap: round"/>
   </g>
   <g id="patch_41">
    <path d="M 672.918529 484.467789 
Q 538.614645 664.958486 404.978192 844.552225 
" clip-path="url(#pa63bbdd3aa)" style="fill: none; stroke: #000000; stroke-linecap: round"/>
    <path d="M 408.970595 842.537103 
L 404.978192 844.552225 
L 405.761536 840.149229 
L 408.970595 842.537103 
z
" clip-path="url(#pa63bbdd3aa)" style="stroke: #000000; stroke-linecap: round"/>
   </g>
   <g id="patch_42">
    <path d="M 679.782833 486.013184 
Q 690.557531 540.000692 701.11341 592.891788 
" clip-path="url(#pa63bbdd3aa)" style="fill: none; stroke: #000000; stroke-linecap: round"/>
    <path d="M 702.291859 588.577712 
L 701.11341 592.891788 
L 698.369218 589.360583 
L 702.291859 588.577712 
z
" clip-path="url(#pa63bbdd3aa)" style="stroke: #000000; stroke-linecap: round"/>
   </g>
   <g id="patch_43">
    <path d="M 673.043247 484.556451 
Q 633.29006 540.000145 594.188349 594.535226 
" clip-path="url(#pa63bbdd3aa)" style="fill: none; stroke: #000000; stroke-linecap: round"/>
    <path d="M 598.14452 592.449869 
L 594.188349 594.535226 
L 594.893766 590.119075 
L 598.14452 592.449869 
z
" clip-path="url(#pa63bbdd3aa)" style="stroke: #000000; stroke-linecap: round"/>
   </g>
   <g id="patch_44">
    <path d="M 670.156991 481.004235 
Q 535.842678 540.000365 402.552004 598.546871 
" clip-path="url(#pa63bbdd3aa)" style="fill: none; stroke: #000000; stroke-linecap: round"/>
    <path d="M 407.0186 598.769394 
L 402.552004 598.546871 
L 405.40998 595.107108 
L 407.0186 598.769394 
z
" clip-path="url(#pa63bbdd3aa)" style="stroke: #000000; stroke-linecap: round"/>
   </g>
   <g id="patch_45">
    <path d="M 387.437664 608.563676 
Q 330.328668 664.958065 274.015203 720.566878 
" clip-path="url(#pa63bbdd3aa)" style="fill: none; stroke: #000000; stroke-linecap: round"/>
    <path d="M 278.266663 719.179403 
L 274.015203 720.566878 
L 275.456099 716.333225 
L 278.266663 719.179403 
z
" clip-path="url(#pa63bbdd3aa)" style="stroke: #000000; stroke-linecap: round"/>
   </g>
   <g id="patch_46">
    <path d="M 410.584213 358.898008 
Q 462.872703 415.039958 514.3992 470.363759 
" clip-path="url(#pa63bbdd3aa)" style="fill: none; stroke: #000000; stroke-linecap: round"/>
    <path d="M 513.136561 466.073568 
L 514.3992 470.363759 
L 510.209463 468.799756 
L 513.136561 466.073568 
z
" clip-path="url(#pa63bbdd3aa)" style="stroke: #000000; stroke-linecap: round"/>
   </g>
   <g id="patch_47">
    <path d="M 404.299328 361.21467 
Q 399.14114 477.519511 394.03249 592.707416 
" clip-path="url(#pa63bbdd3aa)" style="fill: none; stroke: #000000; stroke-linecap: round"/>
    <path d="M 396.207754 588.799958 
L 394.03249 592.707416 
L 392.211682 588.62273 
L 396.207754 588.799958 
z
" clip-path="url(#pa63bbdd3aa)" style="stroke: #000000; stroke-linecap: round"/>
   </g>
   <g id="patch_48">
    <path d="M 396.677696 355.873953 
Q 253.660956 415.042521 111.677325 473.783674 
" clip-path="url(#pa63bbdd3aa)" style="fill: none; stroke: #000000; stroke-linecap: round"/>
    <path d="M 116.138076 474.102587 
L 111.677325 473.783674 
L 114.608906 470.406421 
L 116.138076 474.102587 
z
" clip-path="url(#pa63bbdd3aa)" style="stroke: #000000; stroke-linecap: round"/>
   </g>
   <g id="patch_49">
    <path d="M 452.614239 480.271102 
Q 630.982297 540.000434 808.290182 599.37475 
" clip-path="url(#pa63bbdd3aa)" style="fill: none; stroke: #000000; stroke-linecap: round"/>
    <path d="M 805.132266 596.208117 
L 808.290182 599.37475 
L 803.862125 600.001103 
L 805.132266 596.208117 
z
" clip-path="url(#pa63bbdd3aa)" style="stroke: #000000; stroke-linecap: round"/>
   </g>
   <g id="patch_50">
    <path d="M 441.140307 485.540318 
Q 419.001175 539.99683 397.283111 593.417628 
" clip-path="url(#pa63bbdd3aa)" style="fill: none; stroke: #000000; stroke-linecap: round"/>
    <path d="M 400.642304 590.465372 
L 397.283111 593.417628 
L 396.936822 588.95892 
L 400.642304 590.465372 
z
" clip-path="url(#pa63bbdd3aa)" style="stroke: #000000; stroke-linecap: round"/>
   </g>
   <g id="patch_51">
    <path d="M 444.240636 486.180975 
Q 442.091528 602.478458 439.963076 717.658097 
" clip-path="url(#pa63bbdd3aa)" style="fill: none; stroke: #000000; stroke-linecap: round"/>
    <path d="M 442.03664 713.695733 
L 439.963076 717.658097 
L 438.037322 713.621828 
L 442.03664 713.695733 
z
" clip-path="url(#pa63bbdd3aa)" style="stroke: #000000; stroke-linecap: round"/>
   </g>
   <g id="patch_52">
    <path d="M 438.130446 483.494409 
Q 378.821131 539.99936 320.321291 595.733111 
" clip-path="url(#pa63bbdd3aa)" style="fill: none; stroke: #000000; stroke-linecap: round"/>
    <path d="M 324.596923 594.422014 
L 320.321291 595.733111 
L 321.837793 591.525948 
L 324.596923 594.422014 
z
" clip-path="url(#pa63bbdd3aa)" style="stroke: #000000; stroke-linecap: round"/>
   </g>
   <g id="patch_53">
    <path d="M 105.660246 485.639467 
Q 195.472369 727.436426 284.895201 968.185315 
" clip-path="url(#pa63bbdd3aa)" style="fill: none; stroke: #000000; stroke-linecap: round"/>
    <path d="M 285.377275 963.739238 
L 284.895201 968.185315 
L 281.627584 965.132009 
L 285.377275 963.739238 
z
" clip-path="url(#pa63bbdd3aa)" style="stroke: #000000; stroke-linecap: round"/>
   </g>
   <g id="patch_54">
    <path d="M 110.090155 481.938527 
Q 207.940761 539.999006 304.829855 597.488963 
" clip-path="url(#pa63bbdd3aa)" style="fill: none; stroke: #000000; stroke-linecap: round"/>
    <path d="M 302.410425 593.727799 
L 304.829855 597.488963 
L 300.369266 597.167809 
L 302.410425 593.727799 
z
" clip-path="url(#pa63bbdd3aa)" style="stroke: #000000; stroke-linecap: round"/>
   </g>
   <g id="patch_55">
    <path d="M 110.085493 481.955211 
Q 417.153887 664.95947 723.261872 847.391353 
" clip-path="url(#pa63bbdd3aa)" style="fill: none; stroke: #000000; stroke-linecap: round"/>
    <path d="M 720.849708 843.625524 
L 723.261872 847.391353 
L 718.801911 847.061586 
L 720.849708 843.625524 
z
" clip-path="url(#pa63bbdd3aa)" style="stroke: #000000; stroke-linecap: round"/>
   </g>
   <g id="patch_56">
    <path d="M 514.116676 733.659638 
Q 459.64029 789.918239 405.941649 845.373652 
" clip-path="url(#pa63bbdd3aa)" style="fill: none; stroke: #000000; stroke-linecap: round"/>
    <path d="M 410.160982 843.891347 
L 405.941649 845.373652 
L 407.287405 841.108802 
L 410.160982 843.891347 
z
" clip-path="url(#pa63bbdd3aa)" style="stroke: #000000; stroke-linecap: round"/>
   </g>
   <g id="patch_57">
    <path d="M 817.862927 355.846305 
Q 673.469602 415.041318 530.110757 473.812238 
" clip-path="url(#pa63bbdd3aa)" style="fill: none; stroke: #000000; stroke-linecap: round"/>
    <path d="M 534.570458 474.145494 
L 530.110757 473.812238 
L 533.053182 470.44443 
L 534.570458 474.145494 
z
" clip-path="url(#pa63bbdd3aa)" style="stroke: #000000; stroke-linecap: round"/>
   </g>
   <g id="patch_58">
    <path d="M 818.308833 356.773924 
Q 713.650581 415.040452 609.969179 472.763138 
" clip-path="url(#pa63bbdd3aa)" style="fill: none; stroke: #000000; stroke-linecap: round"/>
    <path d="M 614.436917 472.564868 
L 609.969179 472.763138 
L 612.491206 469.069985 
L 614.436917 472.564868 
z
" clip-path="url(#pa63bbdd3aa)" style="stroke: #000000; stroke-linecap: round"/>
   </g>
   <g id="patch_59">
    <path d="M 828.328926 360.863834 
Q 844.347048 415.03941 860.048166 468.142834 
" clip-path="url(#pa63bbdd3aa)" style="fill: none; stroke: #000000; stroke-linecap: round"/>
    <path d="M 860.831942 463.739915 
L 860.048166 468.142834 
L 856.996097 464.874062 
L 860.831942 463.739915 
z
" clip-path="url(#pa63bbdd3aa)" style="stroke: #000000; stroke-linecap: round"/>
   </g>
   <g id="patch_60">
    <path d="M 829.26343 360.535879 
Q 878.985768 477.522349 928.270775 593.479868 
" clip-path="url(#pa63bbdd3aa)" style="fill: none; stroke: #000000; stroke-linecap: round"/>
    <path d="M 928.546774 589.016257 
L 928.270775 593.479868 
L 924.865486 590.580902 
L 928.546774 589.016257 
z
" clip-path="url(#pa63bbdd3aa)" style="stroke: #000000; stroke-linecap: round"/>
   </g>
   <g id="patch_61">
    <path d="M 926.679361 609.232934 
Q 831.879345 727.436509 737.778826 844.7679 
" clip-path="url(#pa63bbdd3aa)" style="fill: none; stroke: #000000; stroke-linecap: round"/>
    <path d="M 741.841631 842.898779 
L 737.778826 844.7679 
L 738.721212 840.396184 
L 741.841631 842.898779 
z
" clip-path="url(#pa63bbdd3aa)" style="stroke: #000000; stroke-linecap: round"/>
   </g>
   <g id="patch_62">
    <path d="M 923.584415 604.078599 
Q 599.577024 664.958559 276.668438 725.632057 
" clip-path="url(#pa63bbdd3aa)" style="fill: none; stroke: #000000; stroke-linecap: round"/>
    <path d="M 280.968975 726.858999 
L 276.668438 725.632057 
L 280.230314 722.927793 
L 280.968975 726.858999 
z
" clip-path="url(#pa63bbdd3aa)" style="stroke: #000000; stroke-linecap: round"/>
   </g>
   <g id="patch_63">
    <path d="M 515.894297 606.325189 
Q 634.213919 664.958722 751.531765 723.095823 
" clip-path="url(#pa63bbdd3aa)" style="fill: none; stroke: #000000; stroke-linecap: round"/>
    <path d="M 748.835747 719.527702 
L 751.531765 723.095823 
L 747.059657 723.111765 
L 748.835747 719.527702 
z
" clip-path="url(#pa63bbdd3aa)" style="stroke: #000000; stroke-linecap: round"/>
   </g>
   <g id="patch_64">
    <path d="M 503.976333 610.079517 
Q 473.956908 664.960589 444.474017 718.860778 
" clip-path="url(#pa63bbdd3aa)" style="fill: none; stroke: #000000; stroke-linecap: round"/>
    <path d="M 448.148235 716.311245 
L 444.474017 718.860778 
L 444.638921 714.391683 
L 448.148235 716.311245 
z
" clip-path="url(#pa63bbdd3aa)" style="stroke: #000000; stroke-linecap: round"/>
   </g>
   <g id="patch_65">
    <path d="M 508.962088 611.101518 
Q 514.137307 664.957918 519.205584 717.70141 
" clip-path="url(#pa63bbdd3aa)" style="fill: none; stroke: #000000; stroke-linecap: round"/>
    <path d="M 520.813804 713.528447 
L 519.205584 717.70141 
L 516.832145 713.911056 
L 520.813804 713.528447 
z
" clip-path="url(#pa63bbdd3aa)" style="stroke: #000000; stroke-linecap: round"/>
   </g>
   <g id="PathCollection_1">
    <defs>
     <path id="m17d0c768e7" d="M 0 8.660254 
C 2.296726 8.660254 4.499694 7.747755 6.123724 6.123724 
C 7.747755 4.499694 8.660254 2.296726 8.660254 0 
C 8.660254 -2.296726 7.747755 -4.499694 6.123724 -6.123724 
C 4.499694 -7.747755 2.296726 -8.660254 0 -8.660254 
C -2.296726 -8.660254 -4.499694 -7.747755 -6.123724 -6.123724 
C -7.747755 -4.499694 -8.660254 -2.296726 -8.660254 0 
C -8.660254 2.296726 -7.747755 4.499694 -6.123724 6.123724 
C -4.499694 7.747755 -2.296726 8.660254 0 8.660254 
z
" style="stroke: #add8e6"/>
    </defs>
    <g clip-path="url(#pa63bbdd3aa)">
     <use xlink:href="#m17d0c768e7" x="225.492072" y="102.644628" style="fill: #add8e6; stroke: #add8e6"/>
     <use xlink:href="#m17d0c768e7" x="257.820346" y="352.561983" style="fill: #add8e6; stroke: #add8e6"/>
     <use xlink:href="#m17d0c768e7" x="183.003482" y="477.520661" style="fill: #add8e6; stroke: #add8e6"/>
     <use xlink:href="#m17d0c768e7" x="473.034288" y="227.603306" style="fill: #add8e6; stroke: #add8e6"/>
     <use xlink:href="#m17d0c768e7" x="288.301291" y="977.355372" style="fill: #add8e6; stroke: #add8e6"/>
     <use xlink:href="#m17d0c768e7" x="506.286228" y="352.561983" style="fill: #add8e6; stroke: #add8e6"/>
     <use xlink:href="#m17d0c768e7" x="332.63721" y="477.520661" style="fill: #add8e6; stroke: #add8e6"/>
     <use xlink:href="#m17d0c768e7" x="399.141089" y="852.396694" style="fill: #add8e6; stroke: #add8e6"/>
     <use xlink:href="#m17d0c768e7" x="521.064868" y="477.520661" style="fill: #add8e6; stroke: #add8e6"/>
     <use xlink:href="#m17d0c768e7" x="751.05745" y="477.520661" style="fill: #add8e6; stroke: #add8e6"/>
     <use xlink:href="#m17d0c768e7" x="632.828331" y="102.644628" style="fill: #add8e6; stroke: #add8e6"/>
     <use xlink:href="#m17d0c768e7" x="977.355372" y="477.520661" style="fill: #add8e6; stroke: #add8e6"/>
     <use xlink:href="#m17d0c768e7" x="730.73682" y="352.561983" style="fill: #add8e6; stroke: #add8e6"/>
     <use xlink:href="#m17d0c768e7" x="601.423722" y="477.520661" style="fill: #add8e6; stroke: #add8e6"/>
     <use xlink:href="#m17d0c768e7" x="862.820913" y="477.520661" style="fill: #add8e6; stroke: #add8e6"/>
     <use xlink:href="#m17d0c768e7" x="703.02687" y="602.479339" style="fill: #add8e6; stroke: #add8e6"/>
     <use xlink:href="#m17d0c768e7" x="760.2941" y="727.438017" style="fill: #add8e6; stroke: #add8e6"/>
     <use xlink:href="#m17d0c768e7" x="817.561329" y="602.479339" style="fill: #add8e6; stroke: #add8e6"/>
     <use xlink:href="#m17d0c768e7" x="588.492412" y="602.479339" style="fill: #add8e6; stroke: #add8e6"/>
     <use xlink:href="#m17d0c768e7" x="678.087916" y="477.520661" style="fill: #add8e6; stroke: #add8e6"/>
     <use xlink:href="#m17d0c768e7" x="393.599099" y="602.479339" style="fill: #add8e6; stroke: #add8e6"/>
     <use xlink:href="#m17d0c768e7" x="404.683079" y="352.561983" style="fill: #add8e6; stroke: #add8e6"/>
     <use xlink:href="#m17d0c768e7" x="444.400674" y="477.520661" style="fill: #add8e6; stroke: #add8e6"/>
     <use xlink:href="#m17d0c768e7" x="439.782349" y="727.438017" style="fill: #add8e6; stroke: #add8e6"/>
     <use xlink:href="#m17d0c768e7" x="313.240245" y="602.479339" style="fill: #add8e6; stroke: #add8e6"/>
     <use xlink:href="#m17d0c768e7" x="102.644628" y="477.520661" style="fill: #add8e6; stroke: #add8e6"/>
     <use xlink:href="#m17d0c768e7" x="520.141203" y="727.438017" style="fill: #add8e6; stroke: #add8e6"/>
     <use xlink:href="#m17d0c768e7" x="825.874314" y="352.561983" style="fill: #add8e6; stroke: #add8e6"/>
     <use xlink:href="#m17d0c768e7" x="932.095787" y="602.479339" style="fill: #add8e6; stroke: #add8e6"/>
     <use xlink:href="#m17d0c768e7" x="267.056996" y="727.438017" style="fill: #add8e6; stroke: #add8e6"/>
     <use xlink:href="#m17d0c768e7" x="508.133558" y="602.479339" style="fill: #add8e6; stroke: #add8e6"/>
     <use xlink:href="#m17d0c768e7" x="731.660485" y="852.396694" style="fill: #add8e6; stroke: #add8e6"/>
    </g>
   </g>
  </g>
 </g>
 <defs>
  <clipPath id="pa63bbdd3aa">
   <rect x="10.8" y="10.8" width="1058.4" height="1058.4"/>
  </clipPath>
 </defs>
</svg>
