<?xml version="1.0" encoding="utf-8" standalone="no"?>
<!DOCTYPE svg PUBLIC "-//W3C//DTD SVG 1.1//EN"
  "http://www.w3.org/Graphics/SVG/1.1/DTD/svg11.dtd">
<svg xmlns:xlink="http://www.w3.org/1999/xlink" width="1080pt" height="1080pt" viewBox="0 0 1080 1080" xmlns="http://www.w3.org/2000/svg" version="1.1">
 <metadata>
  <rdf:RDF xmlns:dc="http://purl.org/dc/elements/1.1/" xmlns:cc="http://creativecommons.org/ns#" xmlns:rdf="http://www.w3.org/1999/02/22-rdf-syntax-ns#">
   <cc:Work>
    <dc:type rdf:resource="http://purl.org/dc/dcmitype/StillImage"/>
    <dc:date>2022-07-26T11:42:02.093090</dc:date>
    <dc:format>image/svg+xml</dc:format>
    <dc:creator>
     <cc:Agent>
      <dc:title>Matplotlib v3.5.1, https://matplotlib.org/</dc:title>
     </cc:Agent>
    </dc:creator>
   </cc:Work>
  </rdf:RDF>
 </metadata>
 <defs>
  <style type="text/css">*{stroke-linejoin: round; stroke-linecap: butt}</style>
 </defs>
 <g id="figure_1">
  <g id="patch_1">
   <path d="M 0 1080 
L 1080 1080 
L 1080 0 
L 0 0 
z
" style="fill: #ffffff"/>
  </g>
  <g id="axes_1">
   <g id="LineCollection_1">
    <path d="M 977.355372 540 
L 297.018291 903.647642 
" clip-path="url(#p1bcd8ec2e1)" style="fill: none; stroke: #000000"/>
    <path d="M 977.355372 540 
L 135.936336 372.631322 
" clip-path="url(#p1bcd8ec2e1)" style="fill: none; stroke: #000000"/>
    <path d="M 977.355372 540 
L 625.323814 111.048302 
" clip-path="url(#p1bcd8ec2e1)" style="fill: none; stroke: #000000"/>
    <path d="M 977.355372 540 
L 230.74303 849.256918 
" clip-path="url(#p1bcd8ec2e1)" style="fill: none; stroke: #000000"/>
    <path d="M 297.018291 903.647642 
L 454.676199 111.048302 
" clip-path="url(#p1bcd8ec2e1)" style="fill: none; stroke: #000000"/>
    <path d="M 297.018291 903.647642 
L 111.048276 625.323768 
" clip-path="url(#p1bcd8ec2e1)" style="fill: none; stroke: #000000"/>
    <path d="M 297.018291 903.647642 
L 454.676173 968.951698 
" clip-path="url(#p1bcd8ec2e1)" style="fill: none; stroke: #000000"/>
    <path d="M 135.936336 372.631322 
L 944.063664 372.631335 
" clip-path="url(#p1bcd8ec2e1)" style="fill: none; stroke: #000000"/>
    <path d="M 135.936336 372.631322 
L 944.06369 707.368652 
" clip-path="url(#p1bcd8ec2e1)" style="fill: none; stroke: #000000"/>
    <path d="M 135.936336 372.631322 
L 968.951724 625.323755 
" clip-path="url(#p1bcd8ec2e1)" style="fill: none; stroke: #000000"/>
    <path d="M 625.323814 111.048302 
L 782.981631 176.352306 
" clip-path="url(#p1bcd8ec2e1)" style="fill: none; stroke: #000000"/>
    <path d="M 625.323814 111.048302 
L 372.631283 944.063638 
" clip-path="url(#p1bcd8ec2e1)" style="fill: none; stroke: #000000"/>
    <path d="M 625.323814 111.048302 
L 230.743056 230.743056 
" clip-path="url(#p1bcd8ec2e1)" style="fill: none; stroke: #000000"/>
    <path d="M 230.74303 849.256918 
L 372.631361 135.93631 
" clip-path="url(#p1bcd8ec2e1)" style="fill: none; stroke: #000000"/>
    <path d="M 230.74303 849.256918 
L 297.018395 176.35228 
" clip-path="url(#p1bcd8ec2e1)" style="fill: none; stroke: #000000"/>
    <path d="M 230.74303 849.256918 
L 111.048276 454.676205 
" clip-path="url(#p1bcd8ec2e1)" style="fill: none; stroke: #000000"/>
    <path d="M 968.951698 454.676199 
L 111.048276 625.323768 
" clip-path="url(#p1bcd8ec2e1)" style="fill: none; stroke: #000000"/>
    <path d="M 968.951698 454.676199 
L 782.981631 176.352306 
" clip-path="url(#p1bcd8ec2e1)" style="fill: none; stroke: #000000"/>
    <path d="M 968.951698 454.676199 
L 176.35228 297.018395 
" clip-path="url(#p1bcd8ec2e1)" style="fill: none; stroke: #000000"/>
    <path d="M 968.951698 454.676199 
L 176.352306 782.981657 
" clip-path="url(#p1bcd8ec2e1)" style="fill: none; stroke: #000000"/>
    <path d="M 111.048276 625.323768 
L 903.647694 297.018369 
" clip-path="url(#p1bcd8ec2e1)" style="fill: none; stroke: #000000"/>
    <path d="M 111.048276 625.323768 
L 903.647694 782.981657 
" clip-path="url(#p1bcd8ec2e1)" style="fill: none; stroke: #000000"/>
    <path d="M 782.981631 176.352306 
L 625.32384 968.951698 
" clip-path="url(#p1bcd8ec2e1)" style="fill: none; stroke: #000000"/>
    <path d="M 782.981631 176.352306 
L 102.644628 540.000038 
" clip-path="url(#p1bcd8ec2e1)" style="fill: none; stroke: #000000"/>
    <path d="M 176.35228 297.018395 
L 454.676199 111.048302 
" clip-path="url(#p1bcd8ec2e1)" style="fill: none; stroke: #000000"/>
    <path d="M 176.35228 297.018395 
L 540.000005 977.355372 
" clip-path="url(#p1bcd8ec2e1)" style="fill: none; stroke: #000000"/>
    <path d="M 176.35228 297.018395 
L 111.048276 454.676205 
" clip-path="url(#p1bcd8ec2e1)" style="fill: none; stroke: #000000"/>
    <path d="M 176.352306 782.981657 
L 944.063664 372.631335 
" clip-path="url(#p1bcd8ec2e1)" style="fill: none; stroke: #000000"/>
    <path d="M 176.352306 782.981657 
L 849.256892 849.256996 
" clip-path="url(#p1bcd8ec2e1)" style="fill: none; stroke: #000000"/>
    <path d="M 176.352306 782.981657 
L 707.368717 944.063638 
" clip-path="url(#p1bcd8ec2e1)" style="fill: none; stroke: #000000"/>
    <path d="M 944.063664 372.631335 
L 230.743056 230.743056 
" clip-path="url(#p1bcd8ec2e1)" style="fill: none; stroke: #000000"/>
    <path d="M 944.063664 372.631335 
L 782.981527 903.647746 
" clip-path="url(#p1bcd8ec2e1)" style="fill: none; stroke: #000000"/>
    <path d="M 230.743056 230.743056 
L 903.647694 297.018369 
" clip-path="url(#p1bcd8ec2e1)" style="fill: none; stroke: #000000"/>
    <path d="M 230.743056 230.743056 
L 540.000005 977.355372 
" clip-path="url(#p1bcd8ec2e1)" style="fill: none; stroke: #000000"/>
    <path d="M 782.981527 903.647746 
L 849.256944 230.743056 
" clip-path="url(#p1bcd8ec2e1)" style="fill: none; stroke: #000000"/>
    <path d="M 782.981527 903.647746 
L 454.676199 111.048302 
" clip-path="url(#p1bcd8ec2e1)" style="fill: none; stroke: #000000"/>
    <path d="M 782.981527 903.647746 
L 372.631361 135.93631 
" clip-path="url(#p1bcd8ec2e1)" style="fill: none; stroke: #000000"/>
    <path d="M 903.647694 297.018369 
L 135.936336 707.368665 
" clip-path="url(#p1bcd8ec2e1)" style="fill: none; stroke: #000000"/>
    <path d="M 903.647694 297.018369 
L 372.631361 135.93631 
" clip-path="url(#p1bcd8ec2e1)" style="fill: none; stroke: #000000"/>
    <path d="M 135.936336 707.368665 
L 297.018395 176.35228 
" clip-path="url(#p1bcd8ec2e1)" style="fill: none; stroke: #000000"/>
    <path d="M 135.936336 707.368665 
L 849.256892 849.256996 
" clip-path="url(#p1bcd8ec2e1)" style="fill: none; stroke: #000000"/>
    <path d="M 135.936336 707.368665 
L 944.06369 707.368652 
" clip-path="url(#p1bcd8ec2e1)" style="fill: none; stroke: #000000"/>
    <path d="M 372.631361 135.93631 
L 372.631283 944.063638 
" clip-path="url(#p1bcd8ec2e1)" style="fill: none; stroke: #000000"/>
    <path d="M 849.256944 230.743056 
L 102.644628 540.000038 
" clip-path="url(#p1bcd8ec2e1)" style="fill: none; stroke: #000000"/>
    <path d="M 849.256944 230.743056 
L 968.951724 625.323755 
" clip-path="url(#p1bcd8ec2e1)" style="fill: none; stroke: #000000"/>
    <path d="M 849.256944 230.743056 
L 707.368717 944.063638 
" clip-path="url(#p1bcd8ec2e1)" style="fill: none; stroke: #000000"/>
    <path d="M 102.644628 540.000038 
L 944.06369 707.368652 
" clip-path="url(#p1bcd8ec2e1)" style="fill: none; stroke: #000000"/>
    <path d="M 102.644628 540.000038 
L 454.676173 968.951698 
" clip-path="url(#p1bcd8ec2e1)" style="fill: none; stroke: #000000"/>
    <path d="M 968.951724 625.323755 
L 540.000005 977.355372 
" clip-path="url(#p1bcd8ec2e1)" style="fill: none; stroke: #000000"/>
    <path d="M 968.951724 625.323755 
L 903.647694 782.981657 
" clip-path="url(#p1bcd8ec2e1)" style="fill: none; stroke: #000000"/>
    <path d="M 707.368717 944.063638 
L 707.368665 135.936336 
" clip-path="url(#p1bcd8ec2e1)" style="fill: none; stroke: #000000"/>
    <path d="M 707.368717 944.063638 
L 297.018395 176.35228 
" clip-path="url(#p1bcd8ec2e1)" style="fill: none; stroke: #000000"/>
    <path d="M 625.32384 968.951698 
L 454.676199 111.048302 
" clip-path="url(#p1bcd8ec2e1)" style="fill: none; stroke: #000000"/>
    <path d="M 625.32384 968.951698 
L 297.018395 176.35228 
" clip-path="url(#p1bcd8ec2e1)" style="fill: none; stroke: #000000"/>
    <path d="M 625.32384 968.951698 
L 903.647694 782.981657 
" clip-path="url(#p1bcd8ec2e1)" style="fill: none; stroke: #000000"/>
    <path d="M 707.368665 135.936336 
L 372.631283 944.063638 
" clip-path="url(#p1bcd8ec2e1)" style="fill: none; stroke: #000000"/>
    <path d="M 707.368665 135.936336 
L 540.000005 977.355372 
" clip-path="url(#p1bcd8ec2e1)" style="fill: none; stroke: #000000"/>
    <path d="M 707.368665 135.936336 
L 454.676173 968.951698 
" clip-path="url(#p1bcd8ec2e1)" style="fill: none; stroke: #000000"/>
    <path d="M 372.631283 944.063638 
L 539.999981 102.644628 
" clip-path="url(#p1bcd8ec2e1)" style="fill: none; stroke: #000000"/>
    <path d="M 454.676173 968.951698 
L 849.256892 849.256996 
" clip-path="url(#p1bcd8ec2e1)" style="fill: none; stroke: #000000"/>
    <path d="M 539.999981 102.644628 
L 903.647694 782.981657 
" clip-path="url(#p1bcd8ec2e1)" style="fill: none; stroke: #000000"/>
    <path d="M 539.999981 102.644628 
L 111.048276 454.676205 
" clip-path="url(#p1bcd8ec2e1)" style="fill: none; stroke: #000000"/>
    <path d="M 539.999981 102.644628 
L 849.256892 849.256996 
" clip-path="url(#p1bcd8ec2e1)" style="fill: none; stroke: #000000"/>
    <path d="M 111.048276 454.676205 
L 944.06369 707.368652 
" clip-path="url(#p1bcd8ec2e1)" style="fill: none; stroke: #000000"/>
   </g>
   <g id="PathCollection_1">
    <defs>
     <path id="C0_0_a1b4373464" d="M 0 8.660254 
C 2.296726 8.660254 4.499694 7.747755 6.123724 6.123724 
C 7.747755 4.499694 8.660254 2.296726 8.660254 -0 
C 8.660254 -2.296726 7.747755 -4.499694 6.123724 -6.123724 
C 4.499694 -7.747755 2.296726 -8.660254 0 -8.660254 
C -2.296726 -8.660254 -4.499694 -7.747755 -6.123724 -6.123724 
C -7.747755 -4.499694 -8.660254 -2.296726 -8.660254 0 
C -8.660254 2.296726 -7.747755 4.499694 -6.123724 6.123724 
C -4.499694 7.747755 -2.296726 8.660254 0 8.660254 
z
"/>
    </defs>
    <g clip-path="url(#p1bcd8ec2e1)">
     <use xlink:href="#C0_0_a1b4373464" x="977.355372" y="540" style="fill: #68abd0; stroke: #68abd0"/>
    </g>
    <g clip-path="url(#p1bcd8ec2e1)">
     <use xlink:href="#C0_0_a1b4373464" x="297.018291" y="903.647642" style="fill: #d5e7f1; stroke: #d5e7f1"/>
    </g>
    <g clip-path="url(#p1bcd8ec2e1)">
     <use xlink:href="#C0_0_a1b4373464" x="135.936336" y="372.631322" style="fill: #b6d7e8; stroke: #b6d7e8"/>
    </g>
    <g clip-path="url(#p1bcd8ec2e1)">
     <use xlink:href="#C0_0_a1b4373464" x="625.323814" y="111.048302" style="fill: #93c6de; stroke: #93c6de"/>
    </g>
    <g clip-path="url(#p1bcd8ec2e1)">
     <use xlink:href="#C0_0_a1b4373464" x="230.74303" y="849.256918" style="fill: #d2e6f0; stroke: #d2e6f0"/>
    </g>
    <g clip-path="url(#p1bcd8ec2e1)">
     <use xlink:href="#C0_0_a1b4373464" x="968.951698" y="454.676199" style="fill: #6eaed2; stroke: #6eaed2"/>
    </g>
    <g clip-path="url(#p1bcd8ec2e1)">
     <use xlink:href="#C0_0_a1b4373464" x="111.048276" y="625.323768" style="fill: #c5dfec; stroke: #c5dfec"/>
    </g>
    <g clip-path="url(#p1bcd8ec2e1)">
     <use xlink:href="#C0_0_a1b4373464" x="782.981631" y="176.352306" style="fill: #87beda; stroke: #87beda"/>
    </g>
    <g clip-path="url(#p1bcd8ec2e1)">
     <use xlink:href="#C0_0_a1b4373464" x="176.35228" y="297.018395" style="fill: #b1d5e7; stroke: #b1d5e7"/>
    </g>
    <g clip-path="url(#p1bcd8ec2e1)">
     <use xlink:href="#C0_0_a1b4373464" x="176.352306" y="782.981657" style="fill: #cfe4ef; stroke: #cfe4ef"/>
    </g>
    <g clip-path="url(#p1bcd8ec2e1)">
     <use xlink:href="#C0_0_a1b4373464" x="944.063664" y="372.631335" style="fill: #75b2d4; stroke: #75b2d4"/>
    </g>
    <g clip-path="url(#p1bcd8ec2e1)">
     <use xlink:href="#C0_0_a1b4373464" x="230.743056" y="230.743056" style="fill: #acd2e5; stroke: #acd2e5"/>
    </g>
    <g clip-path="url(#p1bcd8ec2e1)">
     <use xlink:href="#C0_0_a1b4373464" x="782.981527" y="903.647746" style="fill: #e7f0f4; stroke: #e7f0f4"/>
    </g>
    <g clip-path="url(#p1bcd8ec2e1)">
     <use xlink:href="#C0_0_a1b4373464" x="903.647694" y="297.018369" style="fill: #7bb6d6; stroke: #7bb6d6"/>
    </g>
    <g clip-path="url(#p1bcd8ec2e1)">
     <use xlink:href="#C0_0_a1b4373464" x="135.936336" y="707.368665" style="fill: #cae1ee; stroke: #cae1ee"/>
    </g>
    <g clip-path="url(#p1bcd8ec2e1)">
     <use xlink:href="#C0_0_a1b4373464" x="372.631361" y="135.93631" style="fill: #a2cde3; stroke: #a2cde3"/>
    </g>
    <g clip-path="url(#p1bcd8ec2e1)">
     <use xlink:href="#C0_0_a1b4373464" x="849.256944" y="230.743056" style="fill: #81bad8; stroke: #81bad8"/>
    </g>
    <g clip-path="url(#p1bcd8ec2e1)">
     <use xlink:href="#C0_0_a1b4373464" x="102.644628" y="540.000038" style="fill: #c0dceb; stroke: #c0dceb"/>
    </g>
    <g clip-path="url(#p1bcd8ec2e1)">
     <use xlink:href="#C0_0_a1b4373464" x="968.951724" y="625.323755" style="fill: #f3f5f6; stroke: #f3f5f6"/>
    </g>
    <g clip-path="url(#p1bcd8ec2e1)">
     <use xlink:href="#C0_0_a1b4373464" x="707.368717" y="944.063638" style="fill: #e4eef4; stroke: #e4eef4"/>
    </g>
    <g clip-path="url(#p1bcd8ec2e1)">
     <use xlink:href="#C0_0_a1b4373464" x="625.32384" y="968.951698" style="fill: #e1edf3; stroke: #e1edf3"/>
    </g>
    <g clip-path="url(#p1bcd8ec2e1)">
     <use xlink:href="#C0_0_a1b4373464" x="707.368665" y="135.936336" style="fill: #8dc2dc; stroke: #8dc2dc"/>
    </g>
    <g clip-path="url(#p1bcd8ec2e1)">
     <use xlink:href="#C0_0_a1b4373464" x="372.631283" y="944.063638" style="fill: #d8e9f1; stroke: #d8e9f1"/>
    </g>
    <g clip-path="url(#p1bcd8ec2e1)">
     <use xlink:href="#C0_0_a1b4373464" x="540.000005" y="977.355372" style="fill: #deebf2; stroke: #deebf2"/>
    </g>
    <g clip-path="url(#p1bcd8ec2e1)">
     <use xlink:href="#C0_0_a1b4373464" x="454.676173" y="968.951698" style="fill: #dbeaf2; stroke: #dbeaf2"/>
    </g>
    <g clip-path="url(#p1bcd8ec2e1)">
     <use xlink:href="#C0_0_a1b4373464" x="539.999981" y="102.644628" style="fill: #98c8e0; stroke: #98c8e0"/>
    </g>
    <g clip-path="url(#p1bcd8ec2e1)">
     <use xlink:href="#C0_0_a1b4373464" x="903.647694" y="782.981657" style="fill: #edf2f5; stroke: #edf2f5"/>
    </g>
    <g clip-path="url(#p1bcd8ec2e1)">
     <use xlink:href="#C0_0_a1b4373464" x="111.048276" y="454.676205" style="fill: #bbdaea; stroke: #bbdaea"/>
    </g>
    <g clip-path="url(#p1bcd8ec2e1)">
     <use xlink:href="#C0_0_a1b4373464" x="849.256892" y="849.256996" style="fill: #eaf1f5; stroke: #eaf1f5"/>
    </g>
    <g clip-path="url(#p1bcd8ec2e1)">
     <use xlink:href="#C0_0_a1b4373464" x="454.676199" y="111.048302" style="fill: #9dcbe1; stroke: #9dcbe1"/>
    </g>
    <g clip-path="url(#p1bcd8ec2e1)">
     <use xlink:href="#C0_0_a1b4373464" x="297.018395" y="176.35228" style="fill: #a7d0e4; stroke: #a7d0e4"/>
    </g>
    <g clip-path="url(#p1bcd8ec2e1)">
     <use xlink:href="#C0_0_a1b4373464" x="944.06369" y="707.368652" style="fill: #f0f4f6; stroke: #f0f4f6"/>
    </g>
   </g>
  </g>
 </g>
 <defs>
  <clipPath id="p1bcd8ec2e1">
   <rect x="10.8" y="10.8" width="1058.4" height="1058.4"/>
  </clipPath>
 </defs>
</svg>
