<?xml version="1.0" encoding="utf-8" standalone="no"?>
<!DOCTYPE svg PUBLIC "-//W3C//DTD SVG 1.1//EN"
  "http://www.w3.org/Graphics/SVG/1.1/DTD/svg11.dtd">
<svg xmlns:xlink="http://www.w3.org/1999/xlink" width="1080pt" height="1080pt" viewBox="0 0 1080 1080" xmlns="http://www.w3.org/2000/svg" version="1.1">
 <metadata>
  <rdf:RDF xmlns:dc="http://purl.org/dc/elements/1.1/" xmlns:cc="http://creativecommons.org/ns#" xmlns:rdf="http://www.w3.org/1999/02/22-rdf-syntax-ns#">
   <cc:Work>
    <dc:type rdf:resource="http://purl.org/dc/dcmitype/StillImage"/>
    <dc:date>2022-07-22T11:22:03.599864</dc:date>
    <dc:format>image/svg+xml</dc:format>
    <dc:creator>
     <cc:Agent>
      <dc:title>Matplotlib v3.5.1, https://matplotlib.org/</dc:title>
     </cc:Agent>
    </dc:creator>
   </cc:Work>
  </rdf:RDF>
 </metadata>
 <defs>
  <style type="text/css">*{stroke-linejoin: round; stroke-linecap: butt}</style>
 </defs>
 <g id="figure_1">
  <g id="patch_1">
   <path d="M 0 1080 
L 1080 1080 
L 1080 0 
L 0 0 
z
" style="fill: #ffffff"/>
  </g>
  <g id="axes_1">
   <g id="LineCollection_1">
    <path d="M 977.355372 540 
L 102.644628 540.000038 
" clip-path="url(#p666cc96cb4)" style="fill: none; stroke: #000000"/>
    <path d="M 977.355372 540 
L 903.647694 297.018369 
" clip-path="url(#p666cc96cb4)" style="fill: none; stroke: #000000"/>
    <path d="M 977.355372 540 
L 372.631361 135.93631 
" clip-path="url(#p666cc96cb4)" style="fill: none; stroke: #000000"/>
    <path d="M 977.355372 540 
L 782.981631 176.352306 
" clip-path="url(#p666cc96cb4)" style="fill: none; stroke: #000000"/>
    <path d="M 102.644628 540.000038 
L 176.352306 782.981657 
" clip-path="url(#p666cc96cb4)" style="fill: none; stroke: #000000"/>
    <path d="M 102.644628 540.000038 
L 707.368717 944.063638 
" clip-path="url(#p666cc96cb4)" style="fill: none; stroke: #000000"/>
    <path d="M 102.644628 540.000038 
L 297.018291 903.647642 
" clip-path="url(#p666cc96cb4)" style="fill: none; stroke: #000000"/>
    <path d="M 903.647694 297.018369 
L 135.936336 372.631322 
" clip-path="url(#p666cc96cb4)" style="fill: none; stroke: #000000"/>
    <path d="M 903.647694 297.018369 
L 625.32384 968.951698 
" clip-path="url(#p666cc96cb4)" style="fill: none; stroke: #000000"/>
    <path d="M 903.647694 297.018369 
L 372.631283 944.063638 
" clip-path="url(#p666cc96cb4)" style="fill: none; stroke: #000000"/>
    <path d="M 372.631361 135.93631 
L 625.323814 111.048302 
" clip-path="url(#p666cc96cb4)" style="fill: none; stroke: #000000"/>
    <path d="M 372.631361 135.93631 
L 968.951724 625.323755 
" clip-path="url(#p666cc96cb4)" style="fill: none; stroke: #000000"/>
    <path d="M 372.631361 135.93631 
L 903.647694 782.981657 
" clip-path="url(#p666cc96cb4)" style="fill: none; stroke: #000000"/>
    <path d="M 782.981631 176.352306 
L 968.951698 454.676199 
" clip-path="url(#p666cc96cb4)" style="fill: none; stroke: #000000"/>
    <path d="M 782.981631 176.352306 
L 849.256944 230.743056 
" clip-path="url(#p666cc96cb4)" style="fill: none; stroke: #000000"/>
    <path d="M 782.981631 176.352306 
L 135.936336 707.368665 
" clip-path="url(#p666cc96cb4)" style="fill: none; stroke: #000000"/>
    <path d="M 968.951698 454.676199 
L 111.048276 625.323768 
" clip-path="url(#p666cc96cb4)" style="fill: none; stroke: #000000"/>
    <path d="M 968.951698 454.676199 
L 230.743056 230.743056 
" clip-path="url(#p666cc96cb4)" style="fill: none; stroke: #000000"/>
    <path d="M 968.951698 454.676199 
L 297.018395 176.35228 
" clip-path="url(#p666cc96cb4)" style="fill: none; stroke: #000000"/>
    <path d="M 111.048276 625.323768 
L 297.018291 903.647642 
" clip-path="url(#p666cc96cb4)" style="fill: none; stroke: #000000"/>
    <path d="M 111.048276 625.323768 
L 849.256892 849.256996 
" clip-path="url(#p666cc96cb4)" style="fill: none; stroke: #000000"/>
    <path d="M 111.048276 625.323768 
L 782.981527 903.647746 
" clip-path="url(#p666cc96cb4)" style="fill: none; stroke: #000000"/>
    <path d="M 230.743056 230.743056 
L 707.368665 135.936336 
" clip-path="url(#p666cc96cb4)" style="fill: none; stroke: #000000"/>
    <path d="M 230.743056 230.743056 
L 968.951724 625.323755 
" clip-path="url(#p666cc96cb4)" style="fill: none; stroke: #000000"/>
    <path d="M 230.743056 230.743056 
L 176.35228 297.018395 
" clip-path="url(#p666cc96cb4)" style="fill: none; stroke: #000000"/>
    <path d="M 297.018395 176.35228 
L 539.999981 102.644628 
" clip-path="url(#p666cc96cb4)" style="fill: none; stroke: #000000"/>
    <path d="M 297.018395 176.35228 
L 372.631283 944.063638 
" clip-path="url(#p666cc96cb4)" style="fill: none; stroke: #000000"/>
    <path d="M 297.018395 176.35228 
L 944.06369 707.368652 
" clip-path="url(#p666cc96cb4)" style="fill: none; stroke: #000000"/>
    <path d="M 944.063664 372.631335 
L 454.676173 968.951698 
" clip-path="url(#p666cc96cb4)" style="fill: none; stroke: #000000"/>
    <path d="M 944.063664 372.631335 
L 968.951724 625.323755 
" clip-path="url(#p666cc96cb4)" style="fill: none; stroke: #000000"/>
    <path d="M 944.063664 372.631335 
L 540.000005 977.355372 
" clip-path="url(#p666cc96cb4)" style="fill: none; stroke: #000000"/>
    <path d="M 944.063664 372.631335 
L 297.018291 903.647642 
" clip-path="url(#p666cc96cb4)" style="fill: none; stroke: #000000"/>
    <path d="M 454.676173 968.951698 
L 849.256944 230.743056 
" clip-path="url(#p666cc96cb4)" style="fill: none; stroke: #000000"/>
    <path d="M 454.676173 968.951698 
L 135.936336 372.631322 
" clip-path="url(#p666cc96cb4)" style="fill: none; stroke: #000000"/>
    <path d="M 454.676173 968.951698 
L 707.368717 944.063638 
" clip-path="url(#p666cc96cb4)" style="fill: none; stroke: #000000"/>
    <path d="M 968.951724 625.323755 
L 372.631283 944.063638 
" clip-path="url(#p666cc96cb4)" style="fill: none; stroke: #000000"/>
    <path d="M 540.000005 977.355372 
L 539.999981 102.644628 
" clip-path="url(#p666cc96cb4)" style="fill: none; stroke: #000000"/>
    <path d="M 540.000005 977.355372 
L 782.981527 903.647746 
" clip-path="url(#p666cc96cb4)" style="fill: none; stroke: #000000"/>
    <path d="M 540.000005 977.355372 
L 903.647694 782.981657 
" clip-path="url(#p666cc96cb4)" style="fill: none; stroke: #000000"/>
    <path d="M 297.018291 903.647642 
L 230.74303 849.256918 
" clip-path="url(#p666cc96cb4)" style="fill: none; stroke: #000000"/>
    <path d="M 135.936336 372.631322 
L 782.981527 903.647746 
" clip-path="url(#p666cc96cb4)" style="fill: none; stroke: #000000"/>
    <path d="M 135.936336 372.631322 
L 230.74303 849.256918 
" clip-path="url(#p666cc96cb4)" style="fill: none; stroke: #000000"/>
    <path d="M 625.32384 968.951698 
L 849.256944 230.743056 
" clip-path="url(#p666cc96cb4)" style="fill: none; stroke: #000000"/>
    <path d="M 625.32384 968.951698 
L 454.676199 111.048302 
" clip-path="url(#p666cc96cb4)" style="fill: none; stroke: #000000"/>
    <path d="M 625.32384 968.951698 
L 903.647694 782.981657 
" clip-path="url(#p666cc96cb4)" style="fill: none; stroke: #000000"/>
    <path d="M 372.631283 944.063638 
L 849.256892 849.256996 
" clip-path="url(#p666cc96cb4)" style="fill: none; stroke: #000000"/>
    <path d="M 849.256944 230.743056 
L 944.06369 707.368652 
" clip-path="url(#p666cc96cb4)" style="fill: none; stroke: #000000"/>
    <path d="M 944.06369 707.368652 
L 625.323814 111.048302 
" clip-path="url(#p666cc96cb4)" style="fill: none; stroke: #000000"/>
    <path d="M 944.06369 707.368652 
L 176.352306 782.981657 
" clip-path="url(#p666cc96cb4)" style="fill: none; stroke: #000000"/>
    <path d="M 135.936336 707.368665 
L 625.323814 111.048302 
" clip-path="url(#p666cc96cb4)" style="fill: none; stroke: #000000"/>
    <path d="M 135.936336 707.368665 
L 539.999981 102.644628 
" clip-path="url(#p666cc96cb4)" style="fill: none; stroke: #000000"/>
    <path d="M 135.936336 707.368665 
L 111.048276 454.676205 
" clip-path="url(#p666cc96cb4)" style="fill: none; stroke: #000000"/>
    <path d="M 707.368665 135.936336 
L 176.352306 782.981657 
" clip-path="url(#p666cc96cb4)" style="fill: none; stroke: #000000"/>
    <path d="M 707.368665 135.936336 
L 782.981527 903.647746 
" clip-path="url(#p666cc96cb4)" style="fill: none; stroke: #000000"/>
    <path d="M 707.368665 135.936336 
L 111.048276 454.676205 
" clip-path="url(#p666cc96cb4)" style="fill: none; stroke: #000000"/>
    <path d="M 176.352306 782.981657 
L 454.676199 111.048302 
" clip-path="url(#p666cc96cb4)" style="fill: none; stroke: #000000"/>
    <path d="M 111.048276 454.676205 
L 849.256892 849.256996 
" clip-path="url(#p666cc96cb4)" style="fill: none; stroke: #000000"/>
    <path d="M 111.048276 454.676205 
L 707.368717 944.063638 
" clip-path="url(#p666cc96cb4)" style="fill: none; stroke: #000000"/>
    <path d="M 625.323814 111.048302 
L 230.74303 849.256918 
" clip-path="url(#p666cc96cb4)" style="fill: none; stroke: #000000"/>
    <path d="M 230.74303 849.256918 
L 454.676199 111.048302 
" clip-path="url(#p666cc96cb4)" style="fill: none; stroke: #000000"/>
    <path d="M 539.999981 102.644628 
L 176.35228 297.018395 
" clip-path="url(#p666cc96cb4)" style="fill: none; stroke: #000000"/>
    <path d="M 176.35228 297.018395 
L 454.676199 111.048302 
" clip-path="url(#p666cc96cb4)" style="fill: none; stroke: #000000"/>
    <path d="M 176.35228 297.018395 
L 707.368717 944.063638 
" clip-path="url(#p666cc96cb4)" style="fill: none; stroke: #000000"/>
    <path d="M 903.647694 782.981657 
L 849.256892 849.256996 
" clip-path="url(#p666cc96cb4)" style="fill: none; stroke: #000000"/>
   </g>
   <g id="PathCollection_1">
    <defs>
     <path id="C0_0_6e56ae3060" d="M 0 8.660254 
C 2.296726 8.660254 4.499694 7.747755 6.123724 6.123724 
C 7.747755 4.499694 8.660254 2.296726 8.660254 -0 
C 8.660254 -2.296726 7.747755 -4.499694 6.123724 -6.123724 
C 4.499694 -7.747755 2.296726 -8.660254 0 -8.660254 
C -2.296726 -8.660254 -4.499694 -7.747755 -6.123724 -6.123724 
C -7.747755 -4.499694 -8.660254 -2.296726 -8.660254 0 
C -8.660254 2.296726 -7.747755 4.499694 -6.123724 6.123724 
C -4.499694 7.747755 -2.296726 8.660254 0 8.660254 
z
"/>
    </defs>
    <g clip-path="url(#p666cc96cb4)">
     <use xlink:href="#C0_0_6e56ae3060" x="977.355372" y="540" style="fill: #68abd0; stroke: #68abd0"/>
    </g>
    <g clip-path="url(#p666cc96cb4)">
     <use xlink:href="#C0_0_6e56ae3060" x="102.644628" y="540.000038" style="fill: #c0dceb; stroke: #c0dceb"/>
    </g>
    <g clip-path="url(#p666cc96cb4)">
     <use xlink:href="#C0_0_6e56ae3060" x="903.647694" y="297.018369" style="fill: #7bb6d6; stroke: #7bb6d6"/>
    </g>
    <g clip-path="url(#p666cc96cb4)">
     <use xlink:href="#C0_0_6e56ae3060" x="372.631361" y="135.93631" style="fill: #a2cde3; stroke: #a2cde3"/>
    </g>
    <g clip-path="url(#p666cc96cb4)">
     <use xlink:href="#C0_0_6e56ae3060" x="782.981631" y="176.352306" style="fill: #87beda; stroke: #87beda"/>
    </g>
    <g clip-path="url(#p666cc96cb4)">
     <use xlink:href="#C0_0_6e56ae3060" x="968.951698" y="454.676199" style="fill: #6eaed2; stroke: #6eaed2"/>
    </g>
    <g clip-path="url(#p666cc96cb4)">
     <use xlink:href="#C0_0_6e56ae3060" x="111.048276" y="625.323768" style="fill: #c5dfec; stroke: #c5dfec"/>
    </g>
    <g clip-path="url(#p666cc96cb4)">
     <use xlink:href="#C0_0_6e56ae3060" x="230.743056" y="230.743056" style="fill: #acd2e5; stroke: #acd2e5"/>
    </g>
    <g clip-path="url(#p666cc96cb4)">
     <use xlink:href="#C0_0_6e56ae3060" x="297.018395" y="176.35228" style="fill: #a7d0e4; stroke: #a7d0e4"/>
    </g>
    <g clip-path="url(#p666cc96cb4)">
     <use xlink:href="#C0_0_6e56ae3060" x="944.063664" y="372.631335" style="fill: #75b2d4; stroke: #75b2d4"/>
    </g>
    <g clip-path="url(#p666cc96cb4)">
     <use xlink:href="#C0_0_6e56ae3060" x="454.676173" y="968.951698" style="fill: #dbeaf2; stroke: #dbeaf2"/>
    </g>
    <g clip-path="url(#p666cc96cb4)">
     <use xlink:href="#C0_0_6e56ae3060" x="968.951724" y="625.323755" style="fill: #f3f5f6; stroke: #f3f5f6"/>
    </g>
    <g clip-path="url(#p666cc96cb4)">
     <use xlink:href="#C0_0_6e56ae3060" x="540.000005" y="977.355372" style="fill: #deebf2; stroke: #deebf2"/>
    </g>
    <g clip-path="url(#p666cc96cb4)">
     <use xlink:href="#C0_0_6e56ae3060" x="297.018291" y="903.647642" style="fill: #d5e7f1; stroke: #d5e7f1"/>
    </g>
    <g clip-path="url(#p666cc96cb4)">
     <use xlink:href="#C0_0_6e56ae3060" x="135.936336" y="372.631322" style="fill: #b6d7e8; stroke: #b6d7e8"/>
    </g>
    <g clip-path="url(#p666cc96cb4)">
     <use xlink:href="#C0_0_6e56ae3060" x="625.32384" y="968.951698" style="fill: #e1edf3; stroke: #e1edf3"/>
    </g>
    <g clip-path="url(#p666cc96cb4)">
     <use xlink:href="#C0_0_6e56ae3060" x="372.631283" y="944.063638" style="fill: #d8e9f1; stroke: #d8e9f1"/>
    </g>
    <g clip-path="url(#p666cc96cb4)">
     <use xlink:href="#C0_0_6e56ae3060" x="849.256944" y="230.743056" style="fill: #81bad8; stroke: #81bad8"/>
    </g>
    <g clip-path="url(#p666cc96cb4)">
     <use xlink:href="#C0_0_6e56ae3060" x="944.06369" y="707.368652" style="fill: #f0f4f6; stroke: #f0f4f6"/>
    </g>
    <g clip-path="url(#p666cc96cb4)">
     <use xlink:href="#C0_0_6e56ae3060" x="135.936336" y="707.368665" style="fill: #cae1ee; stroke: #cae1ee"/>
    </g>
    <g clip-path="url(#p666cc96cb4)">
     <use xlink:href="#C0_0_6e56ae3060" x="707.368665" y="135.936336" style="fill: #8dc2dc; stroke: #8dc2dc"/>
    </g>
    <g clip-path="url(#p666cc96cb4)">
     <use xlink:href="#C0_0_6e56ae3060" x="176.352306" y="782.981657" style="fill: #cfe4ef; stroke: #cfe4ef"/>
    </g>
    <g clip-path="url(#p666cc96cb4)">
     <use xlink:href="#C0_0_6e56ae3060" x="782.981527" y="903.647746" style="fill: #e7f0f4; stroke: #e7f0f4"/>
    </g>
    <g clip-path="url(#p666cc96cb4)">
     <use xlink:href="#C0_0_6e56ae3060" x="111.048276" y="454.676205" style="fill: #bbdaea; stroke: #bbdaea"/>
    </g>
    <g clip-path="url(#p666cc96cb4)">
     <use xlink:href="#C0_0_6e56ae3060" x="625.323814" y="111.048302" style="fill: #93c6de; stroke: #93c6de"/>
    </g>
    <g clip-path="url(#p666cc96cb4)">
     <use xlink:href="#C0_0_6e56ae3060" x="230.74303" y="849.256918" style="fill: #d2e6f0; stroke: #d2e6f0"/>
    </g>
    <g clip-path="url(#p666cc96cb4)">
     <use xlink:href="#C0_0_6e56ae3060" x="539.999981" y="102.644628" style="fill: #98c8e0; stroke: #98c8e0"/>
    </g>
    <g clip-path="url(#p666cc96cb4)">
     <use xlink:href="#C0_0_6e56ae3060" x="176.35228" y="297.018395" style="fill: #b1d5e7; stroke: #b1d5e7"/>
    </g>
    <g clip-path="url(#p666cc96cb4)">
     <use xlink:href="#C0_0_6e56ae3060" x="454.676199" y="111.048302" style="fill: #9dcbe1; stroke: #9dcbe1"/>
    </g>
    <g clip-path="url(#p666cc96cb4)">
     <use xlink:href="#C0_0_6e56ae3060" x="903.647694" y="782.981657" style="fill: #edf2f5; stroke: #edf2f5"/>
    </g>
    <g clip-path="url(#p666cc96cb4)">
     <use xlink:href="#C0_0_6e56ae3060" x="707.368717" y="944.063638" style="fill: #e4eef4; stroke: #e4eef4"/>
    </g>
    <g clip-path="url(#p666cc96cb4)">
     <use xlink:href="#C0_0_6e56ae3060" x="849.256892" y="849.256996" style="fill: #eaf1f5; stroke: #eaf1f5"/>
    </g>
   </g>
   <g id="text_1">
    <g clip-path="url(#p666cc96cb4)">
     <!-- 0 -->
     <g transform="translate(973.537872 543.31125)scale(0.12 -0.12)">
      <defs>
       <path id="DejaVuSans-30" d="M 2034 4250 
Q 1547 4250 1301 3770 
Q 1056 3291 1056 2328 
Q 1056 1369 1301 889 
Q 1547 409 2034 409 
Q 2525 409 2770 889 
Q 3016 1369 3016 2328 
Q 3016 3291 2770 3770 
Q 2525 4250 2034 4250 
z
M 2034 4750 
Q 2819 4750 3233 4129 
Q 3647 3509 3647 2328 
Q 3647 1150 3233 529 
Q 2819 -91 2034 -91 
Q 1250 -91 836 529 
Q 422 1150 422 2328 
Q 422 3509 836 4129 
Q 1250 4750 2034 4750 
z
" transform="scale(0.015625)"/>
      </defs>
      <use xlink:href="#DejaVuSans-30"/>
     </g>
    </g>
   </g>
   <g id="text_2">
    <g clip-path="url(#p666cc96cb4)">
     <!-- 16 -->
     <g transform="translate(95.009628 543.311288)scale(0.12 -0.12)">
      <defs>
       <path id="DejaVuSans-31" d="M 794 531 
L 1825 531 
L 1825 4091 
L 703 3866 
L 703 4441 
L 1819 4666 
L 2450 4666 
L 2450 531 
L 3481 531 
L 3481 0 
L 794 0 
L 794 531 
z
" transform="scale(0.015625)"/>
       <path id="DejaVuSans-36" d="M 2113 2584 
Q 1688 2584 1439 2293 
Q 1191 2003 1191 1497 
Q 1191 994 1439 701 
Q 1688 409 2113 409 
Q 2538 409 2786 701 
Q 3034 994 3034 1497 
Q 3034 2003 2786 2293 
Q 2538 2584 2113 2584 
z
M 3366 4563 
L 3366 3988 
Q 3128 4100 2886 4159 
Q 2644 4219 2406 4219 
Q 1781 4219 1451 3797 
Q 1122 3375 1075 2522 
Q 1259 2794 1537 2939 
Q 1816 3084 2150 3084 
Q 2853 3084 3261 2657 
Q 3669 2231 3669 1497 
Q 3669 778 3244 343 
Q 2819 -91 2113 -91 
Q 1303 -91 875 529 
Q 447 1150 447 2328 
Q 447 3434 972 4092 
Q 1497 4750 2381 4750 
Q 2619 4750 2861 4703 
Q 3103 4656 3366 4563 
z
" transform="scale(0.015625)"/>
      </defs>
      <use xlink:href="#DejaVuSans-31"/>
      <use xlink:href="#DejaVuSans-36" x="63.623047"/>
     </g>
    </g>
   </g>
   <g id="text_3">
    <g clip-path="url(#p666cc96cb4)">
     <!-- 3 -->
     <g transform="translate(899.830194 300.329619)scale(0.12 -0.12)">
      <defs>
       <path id="DejaVuSans-33" d="M 2597 2516 
Q 3050 2419 3304 2112 
Q 3559 1806 3559 1356 
Q 3559 666 3084 287 
Q 2609 -91 1734 -91 
Q 1441 -91 1130 -33 
Q 819 25 488 141 
L 488 750 
Q 750 597 1062 519 
Q 1375 441 1716 441 
Q 2309 441 2620 675 
Q 2931 909 2931 1356 
Q 2931 1769 2642 2001 
Q 2353 2234 1838 2234 
L 1294 2234 
L 1294 2753 
L 1863 2753 
Q 2328 2753 2575 2939 
Q 2822 3125 2822 3475 
Q 2822 3834 2567 4026 
Q 2313 4219 1838 4219 
Q 1578 4219 1281 4162 
Q 984 4106 628 3988 
L 628 4550 
Q 988 4650 1302 4700 
Q 1616 4750 1894 4750 
Q 2613 4750 3031 4423 
Q 3450 4097 3450 3541 
Q 3450 3153 3228 2886 
Q 3006 2619 2597 2516 
z
" transform="scale(0.015625)"/>
      </defs>
      <use xlink:href="#DejaVuSans-33"/>
     </g>
    </g>
   </g>
   <g id="text_4">
    <g clip-path="url(#p666cc96cb4)">
     <!-- 10 -->
     <g transform="translate(364.996361 139.24756)scale(0.12 -0.12)">
      <use xlink:href="#DejaVuSans-31"/>
      <use xlink:href="#DejaVuSans-30" x="63.623047"/>
     </g>
    </g>
   </g>
   <g id="text_5">
    <g clip-path="url(#p666cc96cb4)">
     <!-- 5 -->
     <g transform="translate(779.164131 179.663556)scale(0.12 -0.12)">
      <defs>
       <path id="DejaVuSans-35" d="M 691 4666 
L 3169 4666 
L 3169 4134 
L 1269 4134 
L 1269 2991 
Q 1406 3038 1543 3061 
Q 1681 3084 1819 3084 
Q 2600 3084 3056 2656 
Q 3513 2228 3513 1497 
Q 3513 744 3044 326 
Q 2575 -91 1722 -91 
Q 1428 -91 1123 -41 
Q 819 9 494 109 
L 494 744 
Q 775 591 1075 516 
Q 1375 441 1709 441 
Q 2250 441 2565 725 
Q 2881 1009 2881 1497 
Q 2881 1984 2565 2268 
Q 2250 2553 1709 2553 
Q 1456 2553 1204 2497 
Q 953 2441 691 2322 
L 691 4666 
z
" transform="scale(0.015625)"/>
      </defs>
      <use xlink:href="#DejaVuSans-35"/>
     </g>
    </g>
   </g>
   <g id="text_6">
    <g clip-path="url(#p666cc96cb4)">
     <!-- 1 -->
     <g transform="translate(965.134198 457.987449)scale(0.12 -0.12)">
      <use xlink:href="#DejaVuSans-31"/>
     </g>
    </g>
   </g>
   <g id="text_7">
    <g clip-path="url(#p666cc96cb4)">
     <!-- 17 -->
     <g transform="translate(103.413276 628.635018)scale(0.12 -0.12)">
      <defs>
       <path id="DejaVuSans-37" d="M 525 4666 
L 3525 4666 
L 3525 4397 
L 1831 0 
L 1172 0 
L 2766 4134 
L 525 4134 
L 525 4666 
z
" transform="scale(0.015625)"/>
      </defs>
      <use xlink:href="#DejaVuSans-31"/>
      <use xlink:href="#DejaVuSans-37" x="63.623047"/>
     </g>
    </g>
   </g>
   <g id="text_8">
    <g clip-path="url(#p666cc96cb4)">
     <!-- 12 -->
     <g transform="translate(223.108056 234.054306)scale(0.12 -0.12)">
      <defs>
       <path id="DejaVuSans-32" d="M 1228 531 
L 3431 531 
L 3431 0 
L 469 0 
L 469 531 
Q 828 903 1448 1529 
Q 2069 2156 2228 2338 
Q 2531 2678 2651 2914 
Q 2772 3150 2772 3378 
Q 2772 3750 2511 3984 
Q 2250 4219 1831 4219 
Q 1534 4219 1204 4116 
Q 875 4013 500 3803 
L 500 4441 
Q 881 4594 1212 4672 
Q 1544 4750 1819 4750 
Q 2544 4750 2975 4387 
Q 3406 4025 3406 3419 
Q 3406 3131 3298 2873 
Q 3191 2616 2906 2266 
Q 2828 2175 2409 1742 
Q 1991 1309 1228 531 
z
" transform="scale(0.015625)"/>
      </defs>
      <use xlink:href="#DejaVuSans-31"/>
      <use xlink:href="#DejaVuSans-32" x="63.623047"/>
     </g>
    </g>
   </g>
   <g id="text_9">
    <g clip-path="url(#p666cc96cb4)">
     <!-- 11 -->
     <g transform="translate(289.383395 179.66353)scale(0.12 -0.12)">
      <use xlink:href="#DejaVuSans-31"/>
      <use xlink:href="#DejaVuSans-31" x="63.623047"/>
     </g>
    </g>
   </g>
   <g id="text_10">
    <g clip-path="url(#p666cc96cb4)">
     <!-- 2 -->
     <g transform="translate(940.246164 375.942585)scale(0.12 -0.12)">
      <use xlink:href="#DejaVuSans-32"/>
     </g>
    </g>
   </g>
   <g id="text_11">
    <g clip-path="url(#p666cc96cb4)">
     <!-- 23 -->
     <g transform="translate(447.041173 972.262948)scale(0.12 -0.12)">
      <use xlink:href="#DejaVuSans-32"/>
      <use xlink:href="#DejaVuSans-33" x="63.623047"/>
     </g>
    </g>
   </g>
   <g id="text_12">
    <g clip-path="url(#p666cc96cb4)">
     <!-- 31 -->
     <g transform="translate(961.316724 628.635005)scale(0.12 -0.12)">
      <use xlink:href="#DejaVuSans-33"/>
      <use xlink:href="#DejaVuSans-31" x="63.623047"/>
     </g>
    </g>
   </g>
   <g id="text_13">
    <g clip-path="url(#p666cc96cb4)">
     <!-- 24 -->
     <g transform="translate(532.365005 980.666622)scale(0.12 -0.12)">
      <defs>
       <path id="DejaVuSans-34" d="M 2419 4116 
L 825 1625 
L 2419 1625 
L 2419 4116 
z
M 2253 4666 
L 3047 4666 
L 3047 1625 
L 3713 1625 
L 3713 1100 
L 3047 1100 
L 3047 0 
L 2419 0 
L 2419 1100 
L 313 1100 
L 313 1709 
L 2253 4666 
z
" transform="scale(0.015625)"/>
      </defs>
      <use xlink:href="#DejaVuSans-32"/>
      <use xlink:href="#DejaVuSans-34" x="63.623047"/>
     </g>
    </g>
   </g>
   <g id="text_14">
    <g clip-path="url(#p666cc96cb4)">
     <!-- 21 -->
     <g transform="translate(289.383291 906.958892)scale(0.12 -0.12)">
      <use xlink:href="#DejaVuSans-32"/>
      <use xlink:href="#DejaVuSans-31" x="63.623047"/>
     </g>
    </g>
   </g>
   <g id="text_15">
    <g clip-path="url(#p666cc96cb4)">
     <!-- 14 -->
     <g transform="translate(128.301336 375.942572)scale(0.12 -0.12)">
      <use xlink:href="#DejaVuSans-31"/>
      <use xlink:href="#DejaVuSans-34" x="63.623047"/>
     </g>
    </g>
   </g>
   <g id="text_16">
    <g clip-path="url(#p666cc96cb4)">
     <!-- 25 -->
     <g transform="translate(617.68884 972.262948)scale(0.12 -0.12)">
      <use xlink:href="#DejaVuSans-32"/>
      <use xlink:href="#DejaVuSans-35" x="63.623047"/>
     </g>
    </g>
   </g>
   <g id="text_17">
    <g clip-path="url(#p666cc96cb4)">
     <!-- 22 -->
     <g transform="translate(364.996283 947.374888)scale(0.12 -0.12)">
      <use xlink:href="#DejaVuSans-32"/>
      <use xlink:href="#DejaVuSans-32" x="63.623047"/>
     </g>
    </g>
   </g>
   <g id="text_18">
    <g clip-path="url(#p666cc96cb4)">
     <!-- 4 -->
     <g transform="translate(845.439444 234.054306)scale(0.12 -0.12)">
      <use xlink:href="#DejaVuSans-34"/>
     </g>
    </g>
   </g>
   <g id="text_19">
    <g clip-path="url(#p666cc96cb4)">
     <!-- 30 -->
     <g transform="translate(936.42869 710.679902)scale(0.12 -0.12)">
      <use xlink:href="#DejaVuSans-33"/>
      <use xlink:href="#DejaVuSans-30" x="63.623047"/>
     </g>
    </g>
   </g>
   <g id="text_20">
    <g clip-path="url(#p666cc96cb4)">
     <!-- 18 -->
     <g transform="translate(128.301336 710.679915)scale(0.12 -0.12)">
      <defs>
       <path id="DejaVuSans-38" d="M 2034 2216 
Q 1584 2216 1326 1975 
Q 1069 1734 1069 1313 
Q 1069 891 1326 650 
Q 1584 409 2034 409 
Q 2484 409 2743 651 
Q 3003 894 3003 1313 
Q 3003 1734 2745 1975 
Q 2488 2216 2034 2216 
z
M 1403 2484 
Q 997 2584 770 2862 
Q 544 3141 544 3541 
Q 544 4100 942 4425 
Q 1341 4750 2034 4750 
Q 2731 4750 3128 4425 
Q 3525 4100 3525 3541 
Q 3525 3141 3298 2862 
Q 3072 2584 2669 2484 
Q 3125 2378 3379 2068 
Q 3634 1759 3634 1313 
Q 3634 634 3220 271 
Q 2806 -91 2034 -91 
Q 1263 -91 848 271 
Q 434 634 434 1313 
Q 434 1759 690 2068 
Q 947 2378 1403 2484 
z
M 1172 3481 
Q 1172 3119 1398 2916 
Q 1625 2713 2034 2713 
Q 2441 2713 2670 2916 
Q 2900 3119 2900 3481 
Q 2900 3844 2670 4047 
Q 2441 4250 2034 4250 
Q 1625 4250 1398 4047 
Q 1172 3844 1172 3481 
z
" transform="scale(0.015625)"/>
      </defs>
      <use xlink:href="#DejaVuSans-31"/>
      <use xlink:href="#DejaVuSans-38" x="63.623047"/>
     </g>
    </g>
   </g>
   <g id="text_21">
    <g clip-path="url(#p666cc96cb4)">
     <!-- 6 -->
     <g transform="translate(703.551165 139.247586)scale(0.12 -0.12)">
      <use xlink:href="#DejaVuSans-36"/>
     </g>
    </g>
   </g>
   <g id="text_22">
    <g clip-path="url(#p666cc96cb4)">
     <!-- 19 -->
     <g transform="translate(168.717306 786.292907)scale(0.12 -0.12)">
      <defs>
       <path id="DejaVuSans-39" d="M 703 97 
L 703 672 
Q 941 559 1184 500 
Q 1428 441 1663 441 
Q 2288 441 2617 861 
Q 2947 1281 2994 2138 
Q 2813 1869 2534 1725 
Q 2256 1581 1919 1581 
Q 1219 1581 811 2004 
Q 403 2428 403 3163 
Q 403 3881 828 4315 
Q 1253 4750 1959 4750 
Q 2769 4750 3195 4129 
Q 3622 3509 3622 2328 
Q 3622 1225 3098 567 
Q 2575 -91 1691 -91 
Q 1453 -91 1209 -44 
Q 966 3 703 97 
z
M 1959 2075 
Q 2384 2075 2632 2365 
Q 2881 2656 2881 3163 
Q 2881 3666 2632 3958 
Q 2384 4250 1959 4250 
Q 1534 4250 1286 3958 
Q 1038 3666 1038 3163 
Q 1038 2656 1286 2365 
Q 1534 2075 1959 2075 
z
" transform="scale(0.015625)"/>
      </defs>
      <use xlink:href="#DejaVuSans-31"/>
      <use xlink:href="#DejaVuSans-39" x="63.623047"/>
     </g>
    </g>
   </g>
   <g id="text_23">
    <g clip-path="url(#p666cc96cb4)">
     <!-- 27 -->
     <g transform="translate(775.346527 906.958996)scale(0.12 -0.12)">
      <use xlink:href="#DejaVuSans-32"/>
      <use xlink:href="#DejaVuSans-37" x="63.623047"/>
     </g>
    </g>
   </g>
   <g id="text_24">
    <g clip-path="url(#p666cc96cb4)">
     <!-- 15 -->
     <g transform="translate(103.413276 457.987455)scale(0.12 -0.12)">
      <use xlink:href="#DejaVuSans-31"/>
      <use xlink:href="#DejaVuSans-35" x="63.623047"/>
     </g>
    </g>
   </g>
   <g id="text_25">
    <g clip-path="url(#p666cc96cb4)">
     <!-- 7 -->
     <g transform="translate(621.506314 114.359552)scale(0.12 -0.12)">
      <use xlink:href="#DejaVuSans-37"/>
     </g>
    </g>
   </g>
   <g id="text_26">
    <g clip-path="url(#p666cc96cb4)">
     <!-- 20 -->
     <g transform="translate(223.10803 852.568168)scale(0.12 -0.12)">
      <use xlink:href="#DejaVuSans-32"/>
      <use xlink:href="#DejaVuSans-30" x="63.623047"/>
     </g>
    </g>
   </g>
   <g id="text_27">
    <g clip-path="url(#p666cc96cb4)">
     <!-- 8 -->
     <g transform="translate(536.182481 105.955878)scale(0.12 -0.12)">
      <use xlink:href="#DejaVuSans-38"/>
     </g>
    </g>
   </g>
   <g id="text_28">
    <g clip-path="url(#p666cc96cb4)">
     <!-- 13 -->
     <g transform="translate(168.71728 300.329645)scale(0.12 -0.12)">
      <use xlink:href="#DejaVuSans-31"/>
      <use xlink:href="#DejaVuSans-33" x="63.623047"/>
     </g>
    </g>
   </g>
   <g id="text_29">
    <g clip-path="url(#p666cc96cb4)">
     <!-- 9 -->
     <g transform="translate(450.858699 114.359552)scale(0.12 -0.12)">
      <use xlink:href="#DejaVuSans-39"/>
     </g>
    </g>
   </g>
   <g id="text_30">
    <g clip-path="url(#p666cc96cb4)">
     <!-- 29 -->
     <g transform="translate(896.012694 786.292907)scale(0.12 -0.12)">
      <use xlink:href="#DejaVuSans-32"/>
      <use xlink:href="#DejaVuSans-39" x="63.623047"/>
     </g>
    </g>
   </g>
   <g id="text_31">
    <g clip-path="url(#p666cc96cb4)">
     <!-- 26 -->
     <g transform="translate(699.733717 947.374888)scale(0.12 -0.12)">
      <use xlink:href="#DejaVuSans-32"/>
      <use xlink:href="#DejaVuSans-36" x="63.623047"/>
     </g>
    </g>
   </g>
   <g id="text_32">
    <g clip-path="url(#p666cc96cb4)">
     <!-- 28 -->
     <g transform="translate(841.621892 852.568246)scale(0.12 -0.12)">
      <use xlink:href="#DejaVuSans-32"/>
      <use xlink:href="#DejaVuSans-38" x="63.623047"/>
     </g>
    </g>
   </g>
  </g>
 </g>
 <defs>
  <clipPath id="p666cc96cb4">
   <rect x="10.8" y="10.8" width="1058.4" height="1058.4"/>
  </clipPath>
 </defs>
</svg>
